{
copyright = "Copyright (c) 2012-2015, Omnibus-Type (www.omnibus-type.com omnibus.type@gmail.com)";
customParameters = (
{
name = licenseURL;
value = "http://scripts.sil.org/OFL";
},
{
name = description;
value = "Archivo Narrow was designed to be used simultaneously in print and digital platforms. The technical and aesthetic characteristics of the font are both crafted for high performance typography.";
},
{
name = trademark;
value = Archivo;
},
{
name = license;
value = "This Font Software is licensed under the SIL Open Font License, Version 1.1. This license is available with a FAQ at: http://scripts.sil.org/OFL";
},
{
name = openTypeOS2VendorID;
value = OMNI;
},
{
name = fsType;
value = (
);
},
{
name = "Family Alignment Zones";
value = (
"{686, 12}",
"{526, 12}",
"{0, -12}",
);
}
);
date = "2015-02-05 02:37:04 +0000";
designer = "Hector Gatti";
familyName = "Archivo Narrow";
fontMaster = (
{
alignmentZones = (
"{723, 8}",
"{686, 12}",
"{526, 12}",
"{0, -12}",
"{-183, 10}"
);
ascender = 723;
capHeight = 686;
customParameters = (
{
name = typoAscender;
value = "957";
},
{
name = typoDescender;
value = "-303";
},
{
name = typoLineGap;
value = "0";
},
{
name = winAscent;
value = "957";
},
{
name = winDescent;
value = "303";
},
{
name = hheaAscender;
value = "957";
},
{
name = hheaDescender;
value = "-303";
},
{
name = hheaLineGap;
value = "0";
}
);
descender = "-183";
horizontalStems = (
81,
73,
84
);
id = UUID0;
verticalStems = (
82,
88,
86,
92
);
xHeight = 526;
}
);
glyphs = (
{
color = (31,255,0,1);
glyphname = A;
lastChange = "2015-02-05 02:37:04 +0000";
layers = (
{
anchors = (
{
name = ogonek;
position = "{522, 5}";
},
{
name = top;
position = "{273, 686}";
}
);
background = {
paths = (
{
closed = 1;
nodes = (
"330 686 LINE",
"217 686 LINE",
"-1 0 LINE",
"87 0 LINE",
"133 151 LINE",
"406 151 LINE",
"453 0 LINE",
"548 0 LINE"
);
},
{
closed = 1;
nodes = (
"272 614 LINE",
"272 614 OFFCURVE",
"281 561 OFFCURVE",
"288 538 CURVE SMOOTH",
"381 235 LINE",
"159 235 LINE",
"252 538 LINE SMOOTH",
"259 560 OFFCURVE",
"268 614 OFFCURVE",
"268 614 CURVE"
);
}
);
};
layerId = UUID0;
name = Regular;
paths = (
{
closed = 1;
nodes = (
"453 0 LINE",
"548 0 LINE",
"330 686 LINE",
"217 686 LINE",
"-1 0 LINE",
"87 0 LINE",
"134 153 LINE",
"406 153 LINE"
);
},
{
closed = 1;
nodes = (
"252 538 LINE",
"259 560 OFFCURVE",
"268 614 OFFCURVE",
"268 614 CURVE",
"272 614 LINE",
"272 614 OFFCURVE",
"281 561 OFFCURVE",
"288 538 CURVE SMOOTH",
"381 233 LINE",
"158 233 LINE"
);
}
);
width = 547;
}
);
unicode = 0041;
},
{
color = (31,255,0,1);
glyphname = Aacute;
lastChange = "2015-02-05 02:37:04 +0000";
layers = (
{
background = {
paths = (
{
closed = 1;
nodes = (
"548 0 LINE",
"330 686 LINE",
"217 686 LINE",
"-1 0 LINE",
"87 0 LINE",
"133 151 LINE",
"406 151 LINE",
"453 0 LINE"
);
},
{
closed = 1;
nodes = (
"272 614 LINE",
"272 614 OFFCURVE",
"281 561 OFFCURVE",
"288 538 CURVE SMOOTH",
"381 235 LINE",
"159 235 LINE",
"252 538 LINE SMOOTH",
"259 560 OFFCURVE",
"268 614 OFFCURVE",
"268 614 CURVE"
);
}
);
};
layerId = UUID0;
name = Regular;
paths = (
{
closed = 1;
nodes = (
"391 880 LINE",
"390 883 LINE",
"300 883 LINE",
"214 751 LINE",
"283 751 LINE"
);
},
{
closed = 1;
nodes = (
"453 0 LINE",
"548 0 LINE",
"330 686 LINE",
"217 686 LINE",
"-1 0 LINE",
"87 0 LINE",
"134 153 LINE",
"406 153 LINE"
);
},
{
closed = 1;
nodes = (
"252 538 LINE SMOOTH",
"259 560 OFFCURVE",
"268 614 OFFCURVE",
"268 614 CURVE",
"272 614 LINE",
"272 614 OFFCURVE",
"281 561 OFFCURVE",
"288 538 CURVE SMOOTH",
"381 233 LINE",
"158 233 LINE"
);
}
);
width = 547;
}
);
unicode = 00C1;
},
{
color = (31,255,0,1);
glyphname = Abreve;
lastChange = "2015-02-05 02:37:04 +0000";
layers = (
{
background = {
paths = (
{
closed = 1;
nodes = (
"330 686 LINE",
"217 686 LINE",
"-1 0 LINE",
"87 0 LINE",
"133 151 LINE",
"406 151 LINE",
"453 0 LINE",
"548 0 LINE"
);
},
{
closed = 1;
nodes = (
"272 614 LINE",
"272 614 OFFCURVE",
"281 561 OFFCURVE",
"288 538 CURVE SMOOTH",
"381 235 LINE",
"159 235 LINE",
"252 538 LINE SMOOTH",
"259 560 OFFCURVE",
"268 614 OFFCURVE",
"268 614 CURVE"
);
}
);
};
layerId = UUID0;
name = Regular;
paths = (
{
closed = 1;
nodes = (
"333 883 LINE",
"332 869 OFFCURVE",
"307 850 OFFCURVE",
"273 850 CURVE SMOOTH",
"240 850 OFFCURVE",
"217 869 OFFCURVE",
"214 883 CURVE",
"150 883 LINE",
"150 838 OFFCURVE",
"197 786 OFFCURVE",
"273 786 CURVE SMOOTH",
"350 786 OFFCURVE",
"397 838 OFFCURVE",
"397 883 CURVE"
);
},
{
closed = 1;
nodes = (
"453 0 LINE",
"548 0 LINE",
"330 686 LINE",
"217 686 LINE",
"-1 0 LINE",
"87 0 LINE",
"134 153 LINE",
"406 153 LINE"
);
},
{
closed = 1;
nodes = (
"252 538 LINE SMOOTH",
"259 560 OFFCURVE",
"268 614 OFFCURVE",
"268 614 CURVE",
"272 614 LINE",
"272 614 OFFCURVE",
"281 561 OFFCURVE",
"288 538 CURVE SMOOTH",
"381 233 LINE",
"158 233 LINE"
);
}
);
width = 547;
}
);
unicode = 0102;
},
{
color = (31,255,0,1);
glyphname = Acircumflex;
lastChange = "2015-02-05 02:37:04 +0000";
layers = (
{
background = {
paths = (
{
closed = 1;
nodes = (
"330 686 LINE",
"217 686 LINE",
"-1 0 LINE",
"87 0 LINE",
"133 151 LINE",
"406 151 LINE",
"453 0 LINE",
"548 0 LINE"
);
},
{
closed = 1;
nodes = (
"272 614 LINE",
"272 614 OFFCURVE",
"281 561 OFFCURVE",
"288 538 CURVE SMOOTH",
"381 235 LINE",
"159 235 LINE",
"252 538 LINE SMOOTH",
"259 560 OFFCURVE",
"268 614 OFFCURVE",
"268 614 CURVE"
);
}
);
};
layerId = UUID0;
name = Regular;
paths = (
{
closed = 1;
nodes = (
"313 882 LINE",
"235 882 LINE",
"149 747 LINE",
"229 747 LINE",
"274 826 LINE",
"318 747 LINE",
"398 747 LINE"
);
},
{
closed = 1;
nodes = (
"453 0 LINE",
"548 0 LINE",
"330 686 LINE",
"217 686 LINE",
"-1 0 LINE",
"87 0 LINE",
"134 153 LINE",
"406 153 LINE"
);
},
{
closed = 1;
nodes = (
"252 538 LINE SMOOTH",
"259 560 OFFCURVE",
"268 614 OFFCURVE",
"268 614 CURVE",
"272 614 LINE",
"272 614 OFFCURVE",
"281 561 OFFCURVE",
"288 538 CURVE SMOOTH",
"381 233 LINE",
"158 233 LINE"
);
}
);
width = 547;
}
);
unicode = 00C2;
},
{
color = (31,255,0,1);
glyphname = Adieresis;
lastChange = "2015-02-05 02:37:04 +0000";
layers = (
{
background = {
paths = (
{
closed = 1;
nodes = (
"330 686 LINE",
"217 686 LINE",
"-1 0 LINE",
"87 0 LINE",
"133 151 LINE",
"406 151 LINE",
"453 0 LINE",
"548 0 LINE"
);
},
{
closed = 1;
nodes = (
"272 614 LINE",
"272 614 OFFCURVE",
"281 561 OFFCURVE",
"288 538 CURVE SMOOTH",
"381 235 LINE",
"159 235 LINE",
"252 538 LINE SMOOTH",
"259 560 OFFCURVE",
"268 614 OFFCURVE",
"268 614 CURVE"
);
}
);
};
layerId = UUID0;
name = Regular;
paths = (
{
closed = 1;
nodes = (
"392 883 LINE",
"305 883 LINE",
"305 788 LINE",
"392 788 LINE"
);
},
{
closed = 1;
nodes = (
"242 883 LINE",
"155 883 LINE",
"155 788 LINE",
"242 788 LINE"
);
},
{
closed = 1;
nodes = (
"453 0 LINE",
"548 0 LINE",
"330 686 LINE",
"217 686 LINE",
"-1 0 LINE",
"87 0 LINE",
"134 153 LINE",
"406 153 LINE"
);
},
{
closed = 1;
nodes = (
"252 538 LINE SMOOTH",
"259 560 OFFCURVE",
"268 614 OFFCURVE",
"268 614 CURVE",
"272 614 LINE",
"272 614 OFFCURVE",
"281 561 OFFCURVE",
"288 538 CURVE SMOOTH",
"381 233 LINE",
"158 233 LINE"
);
}
);
width = 547;
}
);
unicode = 00C4;
},
{
color = (31,255,0,1);
glyphname = Agrave;
lastChange = "2015-02-05 02:37:04 +0000";
layers = (
{
background = {
paths = (
{
closed = 1;
nodes = (
"548 0 LINE",
"330 686 LINE",
"217 686 LINE",
"-1 0 LINE",
"87 0 LINE",
"133 151 LINE",
"406 151 LINE",
"453 0 LINE"
);
},
{
closed = 1;
nodes = (
"272 614 LINE",
"272 614 OFFCURVE",
"281 561 OFFCURVE",
"288 538 CURVE SMOOTH",
"381 235 LINE",
"159 235 LINE",
"252 538 LINE SMOOTH",
"259 560 OFFCURVE",
"268 614 OFFCURVE",
"268 614 CURVE"
);
}
);
};
layerId = UUID0;
name = Regular;
paths = (
{
closed = 1;
nodes = (
"333 751 LINE",
"247 883 LINE",
"157 883 LINE",
"156 880 LINE",
"264 751 LINE"
);
},
{
closed = 1;
nodes = (
"453 0 LINE",
"548 0 LINE",
"330 686 LINE",
"217 686 LINE",
"-1 0 LINE",
"87 0 LINE",
"134 153 LINE",
"406 153 LINE"
);
},
{
closed = 1;
nodes = (
"252 538 LINE SMOOTH",
"259 560 OFFCURVE",
"268 614 OFFCURVE",
"268 614 CURVE",
"272 614 LINE",
"272 614 OFFCURVE",
"281 561 OFFCURVE",
"288 538 CURVE SMOOTH",
"381 233 LINE",
"158 233 LINE"
);
}
);
width = 547;
}
);
unicode = 00C0;
},
{
color = (31,255,0,1);
glyphname = Amacron;
lastChange = "2015-02-05 02:37:04 +0000";
layers = (
{
background = {
paths = (
{
closed = 1;
nodes = (
"330 686 LINE",
"217 686 LINE",
"-1 0 LINE",
"87 0 LINE",
"133 151 LINE",
"406 151 LINE",
"453 0 LINE",
"548 0 LINE"
);
},
{
closed = 1;
nodes = (
"272 614 LINE",
"272 614 OFFCURVE",
"281 561 OFFCURVE",
"288 538 CURVE SMOOTH",
"381 235 LINE",
"159 235 LINE",
"252 538 LINE SMOOTH",
"259 560 OFFCURVE",
"268 614 OFFCURVE",
"268 614 CURVE"
);
}
);
};
layerId = UUID0;
name = Regular;
paths = (
{
closed = 1;
nodes = (
"399 831 LINE",
"148 831 LINE",
"148 759 LINE",
"399 759 LINE"
);
},
{
closed = 1;
nodes = (
"453 0 LINE",
"548 0 LINE",
"330 686 LINE",
"217 686 LINE",
"-1 0 LINE",
"87 0 LINE",
"134 153 LINE",
"406 153 LINE"
);
},
{
closed = 1;
nodes = (
"252 538 LINE SMOOTH",
"259 560 OFFCURVE",
"268 614 OFFCURVE",
"268 614 CURVE",
"272 614 LINE",
"272 614 OFFCURVE",
"281 561 OFFCURVE",
"288 538 CURVE SMOOTH",
"381 233 LINE",
"158 233 LINE"
);
}
);
width = 547;
}
);
unicode = 0100;
},
{
color = (31,255,0,1);
glyphname = Aogonek;
lastChange = "2015-02-05 02:37:04 +0000";
layers = (
{
background = {
paths = (
{
closed = 1;
nodes = (
"453 0 LINE",
"548 0 LINE",
"330 686 LINE",
"217 686 LINE",
"-1 0 LINE",
"87 0 LINE",
"134 153 LINE",
"406 153 LINE"
);
},
{
closed = 1;
nodes = (
"252 538 LINE SMOOTH",
"259 560 OFFCURVE",
"268 614 OFFCURVE",
"268 614 CURVE",
"272 614 LINE",
"272 614 OFFCURVE",
"281 561 OFFCURVE",
"288 538 CURVE SMOOTH",
"381 233 LINE",
"158 233 LINE"
);
}
);
};
layerId = UUID0;
name = Regular;
paths = (
{
closed = 1;
nodes = (
"330 686 LINE",
"217 686 LINE",
"-1 0 LINE",
"87 0 LINE",
"134 153 LINE",
"406 153 LINE",
"453 0 LINE",
"432 -23 OFFCURVE",
"416 -50 OFFCURVE",
"416 -92 CURVE SMOOTH",
"416 -161 OFFCURVE",
"467 -182 OFFCURVE",
"510 -182 CURVE SMOOTH",
"530 -182 OFFCURVE",
"550 -177 OFFCURVE",
"571 -168 CURVE",
"571 -117 LINE",
"540 -117 LINE SMOOTH",
"506 -117 OFFCURVE",
"494 -90 OFFCURVE",
"494 -62 CURVE SMOOTH",
"494 -38 OFFCURVE",
"507 -15 OFFCURVE",
"518 0 CURVE",
"548 0 LINE"
);
},
{
closed = 1;
nodes = (
"272 614 LINE",
"272 614 OFFCURVE",
"281 561 OFFCURVE",
"288 538 CURVE SMOOTH",
"381 233 LINE",
"158 233 LINE",
"252 538 LINE SMOOTH",
"259 560 OFFCURVE",
"268 614 OFFCURVE",
"268 614 CURVE"
);
}
);
width = 547;
}
);
unicode = 0104;
},
{
color = (31,255,0,1);
glyphname = Aring;
lastChange = "2015-02-05 02:37:04 +0000";
layers = (
{
background = {
paths = (
{
closed = 1;
nodes = (
"330 686 LINE",
"217 686 LINE",
"-1 0 LINE",
"87 0 LINE",
"133 151 LINE",
"406 151 LINE",
"453 0 LINE",
"548 0 LINE"
);
},
{
closed = 1;
nodes = (
"272 614 LINE",
"272 614 OFFCURVE",
"281 561 OFFCURVE",
"288 538 CURVE SMOOTH",
"381 235 LINE",
"159 235 LINE",
"252 538 LINE SMOOTH",
"259 560 OFFCURVE",
"268 614 OFFCURVE",
"268 614 CURVE"
);
}
);
};
layerId = UUID0;
name = Regular;
paths = (
{
closed = 1;
nodes = (
"220 915 OFFCURVE",
"177 872 OFFCURVE",
"177 819 CURVE SMOOTH",
"177 765 OFFCURVE",
"221 723 OFFCURVE",
"273 723 CURVE SMOOTH",
"327 723 OFFCURVE",
"369 766 OFFCURVE",
"369 819 CURVE SMOOTH",
"369 871 OFFCURVE",
"328 915 OFFCURVE",
"273 915 CURVE SMOOTH"
);
},
{
closed = 1;
nodes = (
"300 870 OFFCURVE",
"324 847 OFFCURVE",
"324 819 CURVE SMOOTH",
"324 791 OFFCURVE",
"300 768 OFFCURVE",
"273 768 CURVE SMOOTH",
"246 768 OFFCURVE",
"222 791 OFFCURVE",
"222 819 CURVE SMOOTH",
"222 847 OFFCURVE",
"246 870 OFFCURVE",
"273 870 CURVE SMOOTH"
);
},
{
closed = 1;
nodes = (
"453 0 LINE",
"548 0 LINE",
"330 686 LINE",
"217 686 LINE",
"-1 0 LINE",
"87 0 LINE",
"134 153 LINE",
"406 153 LINE"
);
},
{
closed = 1;
nodes = (
"252 538 LINE SMOOTH",
"259 560 OFFCURVE",
"268 614 OFFCURVE",
"268 614 CURVE",
"272 614 LINE",
"272 614 OFFCURVE",
"281 561 OFFCURVE",
"288 538 CURVE SMOOTH",
"381 233 LINE",
"158 233 LINE"
);
}
);
width = 547;
}
);
unicode = 00C5;
},
{
color = (31,255,0,1);
glyphname = Aringacute;
lastChange = "2015-02-05 02:37:04 +0000";
layers = (
{
background = {
paths = (
{
closed = 1;
nodes = (
"453 0 LINE",
"548 0 LINE",
"330 686 LINE",
"217 686 LINE",
"-1 0 LINE",
"87 0 LINE",
"134 153 LINE",
"406 153 LINE"
);
},
{
closed = 1;
nodes = (
"252 538 LINE SMOOTH",
"259 560 OFFCURVE",
"268 614 OFFCURVE",
"268 614 CURVE",
"272 614 LINE",
"272 614 OFFCURVE",
"281 561 OFFCURVE",
"288 538 CURVE SMOOTH",
"381 233 LINE",
"158 233 LINE"
);
}
);
};
layerId = UUID0;
name = Regular;
paths = (
{
closed = 1;
nodes = (
"221 821 OFFCURVE",
"178 780 OFFCURVE",
"178 729 CURVE SMOOTH",
"178 701 OFFCURVE",
"190 677 OFFCURVE",
"209 661 CURVE",
"-1 0 LINE",
"87 0 LINE",
"134 153 LINE",
"406 153 LINE",
"453 0 LINE",
"548 0 LINE",
"338 660 LINE",
"357 677 OFFCURVE",
"370 701 OFFCURVE",
"370 729 CURVE SMOOTH",
"370 779 OFFCURVE",
"328 821 OFFCURVE",
"274 821 CURVE SMOOTH"
);
},
{
closed = 1;
nodes = (
"272 614 LINE",
"272 614 OFFCURVE",
"281 561 OFFCURVE",
"288 538 CURVE SMOOTH",
"381 233 LINE",
"158 233 LINE",
"252 538 LINE SMOOTH",
"259 560 OFFCURVE",
"268 614 OFFCURVE",
"268 614 CURVE"
);
},
{
closed = 1;
nodes = (
"404 957 LINE",
"314 957 LINE",
"243 848 LINE",
"312 848 LINE",
"405 953 LINE"
);
},
{
closed = 1;
nodes = (
"301 778 OFFCURVE",
"325 756 OFFCURVE",
"325 729 CURVE SMOOTH",
"325 702 OFFCURVE",
"301 680 OFFCURVE",
"274 680 CURVE SMOOTH",
"246 680 OFFCURVE",
"223 702 OFFCURVE",
"223 729 CURVE SMOOTH",
"223 756 OFFCURVE",
"246 778 OFFCURVE",
"274 778 CURVE SMOOTH"
);
}
);
width = 547;
}
);
unicode = 01FA;
},
{
color = (31,255,0,1);
glyphname = Atilde;
lastChange = "2015-02-05 02:37:04 +0000";
layers = (
{
background = {
paths = (
{
closed = 1;
nodes = (
"330 686 LINE",
"217 686 LINE",
"-1 0 LINE",
"87 0 LINE",
"133 151 LINE",
"406 151 LINE",
"453 0 LINE",
"548 0 LINE"
);
},
{
closed = 1;
nodes = (
"272 614 LINE",
"272 614 OFFCURVE",
"281 561 OFFCURVE",
"288 538 CURVE SMOOTH",
"381 235 LINE",
"159 235 LINE",
"252 538 LINE SMOOTH",
"259 560 OFFCURVE",
"268 614 OFFCURVE",
"268 614 CURVE"
);
}
);
};
layerId = UUID0;
name = Regular;
paths = (
{
closed = 1;
nodes = (
"361 883 LINE",
"358 860 OFFCURVE",
"345 853 OFFCURVE",
"327 853 CURVE SMOOTH",
"288 853 OFFCURVE",
"255 883 OFFCURVE",
"212 883 CURVE SMOOTH",
"152 883 OFFCURVE",
"127 825 OFFCURVE",
"127 779 CURVE",
"186 779 LINE",
"188 802 OFFCURVE",
"201 810 OFFCURVE",
"219 810 CURVE SMOOTH",
"258 810 OFFCURVE",
"291 779 OFFCURVE",
"334 779 CURVE SMOOTH",
"395 779 OFFCURVE",
"419 837 OFFCURVE",
"419 883 CURVE"
);
},
{
closed = 1;
nodes = (
"453 0 LINE",
"548 0 LINE",
"330 686 LINE",
"217 686 LINE",
"-1 0 LINE",
"87 0 LINE",
"134 153 LINE",
"406 153 LINE"
);
},
{
closed = 1;
nodes = (
"252 538 LINE SMOOTH",
"259 560 OFFCURVE",
"268 614 OFFCURVE",
"268 614 CURVE",
"272 614 LINE",
"272 614 OFFCURVE",
"281 561 OFFCURVE",
"288 538 CURVE SMOOTH",
"381 233 LINE",
"158 233 LINE"
);
}
);
width = 547;
}
);
unicode = 00C3;
},
{
color = (31,255,0,1);
glyphname = AE;
lastChange = "2015-02-05 02:37:04 +0000";
layers = (
{
anchors = (
{
name = top;
position = "{472, 686}";
}
);
background = {
paths = (
{
closed = 1;
nodes = (
"782 686 LINE",
"279 686 LINE",
"1 0 LINE",
"88 0 LINE",
"148 151 LINE",
"421 151 LINE",
"454 0 LINE",
"789 0 LINE",
"775 84 LINE",
"527 84 LINE",
"478 309 LINE",
"742 309 LINE",
"742 393 LINE",
"460 393 LINE",
"414 602 LINE",
"769 602 LINE"
);
},
{
closed = 1;
nodes = (
"322 602 LINE",
"403 235 LINE",
"181 235 LINE",
"318 602 LINE"
);
}
);
};
layerId = UUID0;
name = Regular;
paths = (
{
closed = 1;
nodes = (
"783 0 LINE",
"783 80 LINE",
"529 80 LINE",
"477 311 LINE",
"733 311 LINE",
"733 391 LINE",
"459 391 LINE",
"410 606 LINE",
"777 606 LINE",
"777 686 LINE",
"279 686 LINE",
"-1 0 LINE",
"87 0 LINE",
"146 153 LINE",
"419 153 LINE",
"453 0 LINE"
);
},
{
closed = 1;
nodes = (
"298 543 LINE SMOOTH",
"306 565 OFFCURVE",
"319 605 OFFCURVE",
"319 605 CURVE",
"323 605 LINE",
"323 605 OFFCURVE",
"327 566 OFFCURVE",
"334 543 CURVE",
"402 233 LINE",
"177 233 LINE"
);
}
);
width = 820;
}
);
unicode = 00C6;
},
{
color = (31,255,0,1);
glyphname = AEacute;
lastChange = "2015-02-05 02:37:04 +0000";
layers = (
{
background = {
paths = (
{
closed = 1;
nodes = (
"769 602 LINE",
"782 686 LINE",
"279 686 LINE",
"1 0 LINE",
"88 0 LINE",
"148 151 LINE",
"421 151 LINE",
"454 0 LINE",
"789 0 LINE",
"775 84 LINE",
"527 84 LINE",
"478 309 LINE",
"742 309 LINE",
"742 393 LINE",
"460 393 LINE",
"414 602 LINE"
);
},
{
closed = 1;
nodes = (
"318 602 LINE",
"322 602 LINE",
"403 235 LINE",
"181 235 LINE"
);
}
);
};
layerId = UUID0;
name = Regular;
paths = (
{
closed = 1;
nodes = (
"625 880 LINE",
"624 883 LINE",
"534 883 LINE",
"448 751 LINE",
"517 751 LINE"
);
},
{
closed = 1;
nodes = (
"783 0 LINE",
"783 80 LINE",
"529 80 LINE",
"477 311 LINE",
"733 311 LINE",
"733 391 LINE",
"459 391 LINE",
"410 606 LINE",
"777 606 LINE",
"777 686 LINE",
"279 686 LINE",
"-1 0 LINE",
"87 0 LINE",
"146 153 LINE",
"419 153 LINE",
"453 0 LINE"
);
},
{
closed = 1;
nodes = (
"298 543 LINE SMOOTH",
"306 565 OFFCURVE",
"319 605 OFFCURVE",
"319 605 CURVE",
"323 605 LINE",
"323 605 OFFCURVE",
"327 566 OFFCURVE",
"334 543 CURVE",
"402 233 LINE",
"177 233 LINE"
);
}
);
width = 820;
}
);
unicode = 01FC;
},
{
color = (31,255,0,1);
glyphname = B;
lastChange = "2015-02-05 02:37:04 +0000";
layers = (
{
background = {
paths = (
{
closed = 1;
nodes = (
"65 686 LINE",
"65 0 LINE",
"325 0 LINE SMOOTH",
"430 0 OFFCURVE",
"518 69 OFFCURVE",
"518 184 CURVE SMOOTH",
"518 272 OFFCURVE",
"465 335 OFFCURVE",
"397 356 CURVE",
"397 360 LINE",
"456 381 OFFCURVE",
"502 437 OFFCURVE",
"502 516 CURVE SMOOTH",
"502 617 OFFCURVE",
"427 686 OFFCURVE",
"325 686 CURVE SMOOTH"
);
},
{
closed = 1;
nodes = (
"307 309 LINE",
"380 309 OFFCURVE",
"426 258 OFFCURVE",
"426 196 CURVE SMOOTH",
"426 125 OFFCURVE",
"378 84 OFFCURVE",
"313 84 CURVE SMOOTH",
"153 84 LINE",
"153 309 LINE"
);
},
{
closed = 1;
nodes = (
"305 602 LINE",
"368 602 OFFCURVE",
"410 566 OFFCURVE",
"410 497 CURVE SMOOTH",
"410 439 OFFCURVE",
"366 393 OFFCURVE",
"299 393 CURVE SMOOTH",
"153 393 LINE",
"153 602 LINE"
);
}
);
};
layerId = UUID0;
name = Regular;
paths = (
{
closed = 1;
nodes = (
"65 0 LINE",
"325 0 LINE SMOOTH",
"430 0 OFFCURVE",
"518 67 OFFCURVE",
"518 182 CURVE SMOOTH",
"518 270 OFFCURVE",
"465 335 OFFCURVE",
"397 356 CURVE",
"397 360 LINE",
"456 381 OFFCURVE",
"502 439 OFFCURVE",
"502 518 CURVE SMOOTH",
"502 619 OFFCURVE",
"427 686 OFFCURVE",
"325 686 CURVE SMOOTH",
"65 686 LINE"
);
},
{
closed = 1;
nodes = (
"307 311 LINE",
"380 311 OFFCURVE",
"426 256 OFFCURVE",
"426 194 CURVE SMOOTH",
"426 120 OFFCURVE",
"378 80 OFFCURVE",
"313 80 CURVE SMOOTH",
"153 80 LINE",
"153 311 LINE"
);
},
{
closed = 1;
nodes = (
"305 606 LINE",
"368 606 OFFCURVE",
"410 571 OFFCURVE",
"410 499 CURVE SMOOTH",
"410 441 OFFCURVE",
"366 391 OFFCURVE",
"299 391 CURVE SMOOTH",
"153 391 LINE",
"153 606 LINE"
);
}
);
width = 547;
}
);
unicode = 0042;
},
{
glyphname = C;
lastChange = "2015-02-05 02:37:04 +0000";
layers = (
{
anchors = (
{
name = bottom;
position = "{296, 0}";
},
{
name = top;
position = "{296, 686}";
}
);
layerId = UUID0;
name = Regular;
paths = (
{
closed = 1;
nodes = (
"134 698 OFFCURVE",
"42 581 OFFCURVE",
"42 343 CURVE SMOOTH",
"42 105 OFFCURVE",
"134 -12 OFFCURVE",
"312 -12 CURVE SMOOTH",
"452 -12 OFFCURVE",
"551 69 OFFCURVE",
"551 246 CURVE",
"464 246 LINE",
"464 127 OFFCURVE",
"404 69 OFFCURVE",
"312 69 CURVE SMOOTH",
"192 69 OFFCURVE",
"134 151 OFFCURVE",
"134 318 CURVE SMOOTH",
"134 368 LINE SMOOTH",
"134 535 OFFCURVE",
"192 617 OFFCURVE",
"312 617 CURVE SMOOTH",
"402 617 OFFCURVE",
"461 558 OFFCURVE",
"461 438 CURVE",
"551 438 LINE",
"551 613 OFFCURVE",
"452 698 OFFCURVE",
"312 698 CURVE SMOOTH"
);
}
);
width = 592;
}
);
unicode = 0043;
},
{
glyphname = Cacute;
lastChange = "2015-02-05 02:37:04 +0000";
layers = (
{
layerId = UUID0;
name = Regular;
paths = (
{
closed = 1;
nodes = (
"134 698 OFFCURVE",
"42 581 OFFCURVE",
"42 343 CURVE SMOOTH",
"42 105 OFFCURVE",
"134 -12 OFFCURVE",
"312 -12 CURVE SMOOTH",
"452 -12 OFFCURVE",
"551 69 OFFCURVE",
"551 246 CURVE",
"464 246 LINE",
"464 127 OFFCURVE",
"404 69 OFFCURVE",
"312 69 CURVE SMOOTH",
"192 69 OFFCURVE",
"134 151 OFFCURVE",
"134 318 CURVE SMOOTH",
"134 368 LINE SMOOTH",
"134 535 OFFCURVE",
"192 617 OFFCURVE",
"312 617 CURVE SMOOTH",
"402 617 OFFCURVE",
"461 558 OFFCURVE",
"461 438 CURVE",
"551 438 LINE",
"551 613 OFFCURVE",
"452 698 OFFCURVE",
"312 698 CURVE SMOOTH"
);
},
{
closed = 1;
nodes = (
"428 880 LINE",
"427 883 LINE",
"337 883 LINE",
"251 751 LINE",
"320 751 LINE"
);
}
);
width = 592;
}
);
unicode = 0106;
},
{
glyphname = Ccaron;
lastChange = "2015-02-05 02:37:04 +0000";
layers = (
{
layerId = UUID0;
name = Regular;
paths = (
{
closed = 1;
nodes = (
"134 698 OFFCURVE",
"42 581 OFFCURVE",
"42 343 CURVE SMOOTH",
"42 105 OFFCURVE",
"134 -12 OFFCURVE",
"312 -12 CURVE SMOOTH",
"452 -12 OFFCURVE",
"551 69 OFFCURVE",
"551 246 CURVE",
"464 246 LINE",
"464 127 OFFCURVE",
"404 69 OFFCURVE",
"312 69 CURVE SMOOTH",
"192 69 OFFCURVE",
"134 151 OFFCURVE",
"134 318 CURVE SMOOTH",
"134 368 LINE SMOOTH",
"134 535 OFFCURVE",
"192 617 OFFCURVE",
"312 617 CURVE SMOOTH",
"402 617 OFFCURVE",
"461 558 OFFCURVE",
"461 438 CURVE",
"551 438 LINE",
"551 613 OFFCURVE",
"452 698 OFFCURVE",
"312 698 CURVE SMOOTH"
);
},
{
closed = 1;
nodes = (
"421 883 LINE",
"341 883 LINE",
"296 804 LINE",
"251 883 LINE",
"171 883 LINE",
"256 748 LINE",
"334 748 LINE"
);
}
);
width = 592;
}
);
unicode = 010C;
},
{
glyphname = Ccedilla;
lastChange = "2015-02-05 02:37:04 +0000";
layers = (
{
layerId = UUID0;
name = Regular;
paths = (
{
closed = 1;
nodes = (
"134 698 OFFCURVE",
"42 581 OFFCURVE",
"42 343 CURVE SMOOTH",
"42 130 OFFCURVE",
"115 14 OFFCURVE",
"258 -8 CURVE",
"247 -77 LINE",
"280 -77 LINE SMOOTH",
"306 -77 OFFCURVE",
"314 -85 OFFCURVE",
"314 -101 CURVE SMOOTH",
"314 -120 OFFCURVE",
"300 -125 OFFCURVE",
"278 -125 CURVE SMOOTH",
"202 -125 LINE",
"202 -174 LINE",
"226 -179 OFFCURVE",
"258 -182 OFFCURVE",
"286 -182 CURVE SMOOTH",
"327 -182 OFFCURVE",
"390 -168 OFFCURVE",
"390 -101 CURVE SMOOTH",
"390 -55 OFFCURVE",
"352 -39 OFFCURVE",
"309 -36 CURVE",
"312 -12 LINE",
"452 -12 OFFCURVE",
"551 69 OFFCURVE",
"551 246 CURVE",
"464 246 LINE",
"464 127 OFFCURVE",
"404 69 OFFCURVE",
"312 69 CURVE SMOOTH",
"192 69 OFFCURVE",
"134 151 OFFCURVE",
"134 318 CURVE SMOOTH",
"134 368 LINE SMOOTH",
"134 535 OFFCURVE",
"192 617 OFFCURVE",
"312 617 CURVE SMOOTH",
"402 617 OFFCURVE",
"461 558 OFFCURVE",
"461 438 CURVE",
"551 438 LINE",
"551 613 OFFCURVE",
"452 698 OFFCURVE",
"312 698 CURVE SMOOTH"
);
}
);
width = 592;
}
);
unicode = 00C7;
},
{
glyphname = Ccircumflex;
lastChange = "2015-02-05 02:37:04 +0000";
layers = (
{
layerId = UUID0;
name = Regular;
paths = (
{
closed = 1;
nodes = (
"134 698 OFFCURVE",
"42 581 OFFCURVE",
"42 343 CURVE SMOOTH",
"42 105 OFFCURVE",
"134 -12 OFFCURVE",
"312 -12 CURVE SMOOTH",
"452 -12 OFFCURVE",
"551 69 OFFCURVE",
"551 246 CURVE",
"464 246 LINE",
"464 127 OFFCURVE",
"404 69 OFFCURVE",
"312 69 CURVE SMOOTH",
"192 69 OFFCURVE",
"134 151 OFFCURVE",
"134 318 CURVE SMOOTH",
"134 368 LINE SMOOTH",
"134 535 OFFCURVE",
"192 617 OFFCURVE",
"312 617 CURVE SMOOTH",
"402 617 OFFCURVE",
"461 558 OFFCURVE",
"461 438 CURVE",
"551 438 LINE",
"551 613 OFFCURVE",
"452 698 OFFCURVE",
"312 698 CURVE SMOOTH"
);
},
{
closed = 1;
nodes = (
"335 882 LINE",
"257 882 LINE",
"171 747 LINE",
"251 747 LINE",
"297 826 LINE",
"341 747 LINE",
"421 747 LINE"
);
}
);
width = 592;
}
);
unicode = 0108;
},
{
glyphname = Cdotaccent;
lastChange = "2015-02-05 02:37:04 +0000";
layers = (
{
layerId = UUID0;
name = Regular;
paths = (
{
closed = 1;
nodes = (
"134 698 OFFCURVE",
"42 581 OFFCURVE",
"42 343 CURVE SMOOTH",
"42 105 OFFCURVE",
"134 -12 OFFCURVE",
"312 -12 CURVE SMOOTH",
"452 -12 OFFCURVE",
"551 69 OFFCURVE",
"551 246 CURVE",
"464 246 LINE",
"464 127 OFFCURVE",
"404 69 OFFCURVE",
"312 69 CURVE SMOOTH",
"192 69 OFFCURVE",
"134 151 OFFCURVE",
"134 318 CURVE SMOOTH",
"134 368 LINE SMOOTH",
"134 535 OFFCURVE",
"192 617 OFFCURVE",
"312 617 CURVE SMOOTH",
"402 617 OFFCURVE",
"461 558 OFFCURVE",
"461 438 CURVE",
"551 438 LINE",
"551 613 OFFCURVE",
"452 698 OFFCURVE",
"312 698 CURVE SMOOTH"
);
},
{
closed = 1;
nodes = (
"340 883 LINE",
"252 883 LINE",
"252 788 LINE",
"340 788 LINE"
);
}
);
width = 592;
}
);
unicode = 010A;
},
{
color = (31,255,0,1);
glyphname = D;
lastChange = "2015-02-05 02:37:04 +0000";
layers = (
{
anchors = (
{
name = center;
position = "{296, 343}";
},
{
name = top;
position = "{296, 686}";
}
);
background = {
paths = (
{
closed = 1;
nodes = (
"70 686 LINE",
"70 0 LINE",
"283 0 LINE",
"445 0 OFFCURVE",
"543 118 OFFCURVE",
"543 353 CURVE SMOOTH",
"543 574 OFFCURVE",
"445 686 OFFCURVE",
"283 686 CURVE SMOOTH"
);
},
{
closed = 1;
nodes = (
"275 602 LINE",
"383 602 OFFCURVE",
"451 528 OFFCURVE",
"451 378 CURVE SMOOTH",
"451 328 LINE SMOOTH",
"451 164 OFFCURVE",
"383 84 OFFCURVE",
"275 84 CURVE SMOOTH",
"158 84 LINE",
"158 602 LINE"
);
}
);
};
layerId = UUID0;
name = Regular;
paths = (
{
closed = 1;
nodes = (
"283 0 LINE",
"445 0 OFFCURVE",
"543 118 OFFCURVE",
"543 353 CURVE SMOOTH",
"543 574 OFFCURVE",
"445 686 OFFCURVE",
"283 686 CURVE SMOOTH",
"70 686 LINE",
"70 0 LINE"
);
},
{
closed = 1;
nodes = (
"275 606 LINE",
"383 606 OFFCURVE",
"451 531 OFFCURVE",
"451 378 CURVE SMOOTH",
"451 328 LINE SMOOTH",
"451 161 OFFCURVE",
"383 80 OFFCURVE",
"275 80 CURVE SMOOTH",
"158 80 LINE",
"158 606 LINE"
);
}
);
width = 592;
}
);
unicode = 0044;
},
{
color = (31,255,0,1);
glyphname = Eth;
lastChange = "2015-02-05 02:37:04 +0000";
layers = (
{
background = {
paths = (
{
closed = 1;
nodes = (
"70 686 LINE",
"70 387 LINE",
"5 387 LINE",
"5 323 LINE",
"70 323 LINE",
"70 0 LINE",
"283 0 LINE SMOOTH",
"445 0 OFFCURVE",
"543 118 OFFCURVE",
"543 353 CURVE SMOOTH",
"543 574 OFFCURVE",
"445 686 OFFCURVE",
"283 686 CURVE SMOOTH"
);
},
{
closed = 1;
nodes = (
"275 602 LINE",
"383 602 OFFCURVE",
"451 528 OFFCURVE",
"451 378 CURVE SMOOTH",
"451 328 LINE SMOOTH",
"451 164 OFFCURVE",
"383 84 OFFCURVE",
"275 84 CURVE SMOOTH",
"158 84 LINE",
"158 323 LINE",
"315 323 LINE",
"315 387 LINE",
"158 387 LINE",
"158 602 LINE"
);
}
);
};
layerId = UUID0;
name = Regular;
paths = (
{
closed = 1;
nodes = (
"5 323 LINE",
"70 323 LINE",
"70 0 LINE",
"283 0 LINE SMOOTH",
"445 0 OFFCURVE",
"543 118 OFFCURVE",
"543 353 CURVE SMOOTH",
"543 574 OFFCURVE",
"445 686 OFFCURVE",
"283 686 CURVE SMOOTH",
"70 686 LINE",
"70 387 LINE",
"5 387 LINE"
);
},
{
closed = 1;
nodes = (
"275 606 LINE",
"383 606 OFFCURVE",
"451 531 OFFCURVE",
"451 378 CURVE SMOOTH",
"451 328 LINE SMOOTH",
"451 161 OFFCURVE",
"383 80 OFFCURVE",
"275 80 CURVE SMOOTH",
"158 80 LINE",
"158 323 LINE",
"315 323 LINE",
"315 387 LINE",
"158 387 LINE",
"158 606 LINE"
);
}
);
width = 592;
}
);
unicode = 00D0;
},
{
color = (31,255,0,1);
glyphname = Dcaron;
lastChange = "2015-02-05 02:37:04 +0000";
layers = (
{
background = {
paths = (
{
closed = 1;
nodes = (
"70 686 LINE",
"70 0 LINE",
"283 0 LINE SMOOTH",
"445 0 OFFCURVE",
"543 118 OFFCURVE",
"543 353 CURVE SMOOTH",
"543 574 OFFCURVE",
"445 686 OFFCURVE",
"283 686 CURVE SMOOTH"
);
},
{
closed = 1;
nodes = (
"275 602 LINE SMOOTH",
"383 602 OFFCURVE",
"451 528 OFFCURVE",
"451 378 CURVE SMOOTH",
"451 328 LINE SMOOTH",
"451 164 OFFCURVE",
"383 84 OFFCURVE",
"275 84 CURVE SMOOTH",
"158 84 LINE",
"158 602 LINE"
);
}
);
};
layerId = UUID0;
name = Regular;
paths = (
{
closed = 1;
nodes = (
"421 883 LINE",
"341 883 LINE",
"296 804 LINE",
"251 883 LINE",
"171 883 LINE",
"256 748 LINE",
"334 748 LINE"
);
},
{
closed = 1;
nodes = (
"283 0 LINE SMOOTH",
"445 0 OFFCURVE",
"543 118 OFFCURVE",
"543 353 CURVE SMOOTH",
"543 574 OFFCURVE",
"445 686 OFFCURVE",
"283 686 CURVE SMOOTH",
"70 686 LINE",
"70 0 LINE"
);
},
{
closed = 1;
nodes = (
"275 606 LINE SMOOTH",
"383 606 OFFCURVE",
"451 531 OFFCURVE",
"451 378 CURVE SMOOTH",
"451 328 LINE SMOOTH",
"451 161 OFFCURVE",
"383 80 OFFCURVE",
"275 80 CURVE SMOOTH",
"158 80 LINE",
"158 606 LINE"
);
}
);
width = 592;
}
);
unicode = 010E;
},
{
color = (31,255,0,1);
glyphname = Dcroat;
lastChange = "2015-02-05 02:37:04 +0000";
layers = (
{
background = {
paths = (
{
closed = 1;
nodes = (
"70 686 LINE",
"70 387 LINE",
"5 387 LINE",
"5 323 LINE",
"70 323 LINE",
"70 0 LINE",
"283 0 LINE SMOOTH",
"445 0 OFFCURVE",
"543 118 OFFCURVE",
"543 353 CURVE SMOOTH",
"543 574 OFFCURVE",
"445 686 OFFCURVE",
"283 686 CURVE SMOOTH"
);
},
{
closed = 1;
nodes = (
"275 602 LINE SMOOTH",
"383 602 OFFCURVE",
"451 528 OFFCURVE",
"451 378 CURVE SMOOTH",
"451 328 LINE SMOOTH",
"451 164 OFFCURVE",
"383 84 OFFCURVE",
"275 84 CURVE SMOOTH",
"158 84 LINE",
"158 323 LINE",
"315 323 LINE",
"315 387 LINE",
"158 387 LINE",
"158 602 LINE"
);
}
);
};
layerId = UUID0;
name = Regular;
paths = (
{
closed = 1;
nodes = (
"5 323 LINE",
"70 323 LINE",
"70 0 LINE",
"283 0 LINE SMOOTH",
"445 0 OFFCURVE",
"543 118 OFFCURVE",
"543 353 CURVE SMOOTH",
"543 574 OFFCURVE",
"445 686 OFFCURVE",
"283 686 CURVE SMOOTH",
"70 686 LINE",
"70 387 LINE",
"5 387 LINE"
);
},
{
closed = 1;
nodes = (
"275 606 LINE SMOOTH",
"383 606 OFFCURVE",
"451 531 OFFCURVE",
"451 378 CURVE SMOOTH",
"451 328 LINE SMOOTH",
"451 161 OFFCURVE",
"383 80 OFFCURVE",
"275 80 CURVE SMOOTH",
"158 80 LINE",
"158 323 LINE",
"315 323 LINE",
"315 387 LINE",
"158 387 LINE",
"158 606 LINE"
);
}
);
width = 592;
}
);
unicode = 0110;
},
{
color = (31,255,0,1);
glyphname = E;
lastChange = "2015-02-05 02:37:04 +0000";
layers = (
{
anchors = (
{
name = bottom;
position = "{273, 0}";
},
{
name = ogonek;
position = "{500, 5}";
},
{
name = top;
position = "{273, 686}";
}
);
background = {
paths = (
{
closed = 1;
nodes = (
"499 686 LINE",
"70 686 LINE",
"70 0 LINE",
"506 0 LINE",
"492 84 LINE",
"158 84 LINE",
"158 309 LINE",
"459 309 LINE",
"459 393 LINE",
"158 393 LINE",
"158 602 LINE",
"486 602 LINE"
);
}
);
};
layerId = UUID0;
name = Regular;
paths = (
{
closed = 1;
nodes = (
"499 0 LINE",
"499 80 LINE",
"158 80 LINE",
"158 311 LINE",
"449 311 LINE",
"449 391 LINE",
"158 391 LINE",
"158 606 LINE",
"493 606 LINE",
"493 686 LINE",
"70 686 LINE",
"70 0 LINE"
);
}
);
width = 547;
}
);
unicode = 0045;
},
{
color = (31,255,0,1);
glyphname = Eacute;
lastChange = "2015-02-05 02:37:04 +0000";
layers = (
{
background = {
paths = (
{
closed = 1;
nodes = (
"486 602 LINE",
"499 686 LINE",
"70 686 LINE",
"70 0 LINE",
"506 0 LINE",
"492 84 LINE",
"158 84 LINE",
"158 309 LINE",
"459 309 LINE",
"459 393 LINE",
"158 393 LINE",
"158 602 LINE"
);
}
);
};
layerId = UUID0;
name = Regular;
paths = (
{
closed = 1;
nodes = (
"391 880 LINE",
"390 883 LINE",
"300 883 LINE",
"214 751 LINE",
"283 751 LINE"
);
},
{
closed = 1;
nodes = (
"499 0 LINE",
"499 80 LINE",
"158 80 LINE",
"158 311 LINE",
"449 311 LINE",
"449 391 LINE",
"158 391 LINE",
"158 606 LINE",
"493 606 LINE",
"493 686 LINE",
"70 686 LINE",
"70 0 LINE"
);
}
);
width = 547;
}
);
unicode = 00C9;
},
{
color = (31,255,0,1);
glyphname = Ebreve;
lastChange = "2015-02-05 02:37:04 +0000";
layers = (
{
background = {
paths = (
{
closed = 1;
nodes = (
"499 686 LINE",
"70 686 LINE",
"70 0 LINE",
"506 0 LINE",
"492 84 LINE",
"158 84 LINE",
"158 309 LINE",
"459 309 LINE",
"459 393 LINE",
"158 393 LINE",
"158 602 LINE",
"486 602 LINE"
);
}
);
};
layerId = UUID0;
name = Regular;
paths = (
{
closed = 1;
nodes = (
"333 883 LINE",
"332 869 OFFCURVE",
"307 850 OFFCURVE",
"273 850 CURVE SMOOTH",
"240 850 OFFCURVE",
"217 869 OFFCURVE",
"214 883 CURVE",
"150 883 LINE",
"150 838 OFFCURVE",
"197 786 OFFCURVE",
"273 786 CURVE SMOOTH",
"350 786 OFFCURVE",
"397 838 OFFCURVE",
"397 883 CURVE"
);
},
{
closed = 1;
nodes = (
"499 0 LINE",
"499 80 LINE",
"158 80 LINE",
"158 311 LINE",
"449 311 LINE",
"449 391 LINE",
"158 391 LINE",
"158 606 LINE",
"493 606 LINE",
"493 686 LINE",
"70 686 LINE",
"70 0 LINE"
);
}
);
width = 547;
}
);
unicode = 0114;
},
{
color = (31,255,0,1);
glyphname = Ecaron;
lastChange = "2015-02-05 02:37:04 +0000";
layers = (
{
background = {
paths = (
{
closed = 1;
nodes = (
"499 686 LINE",
"70 686 LINE",
"70 0 LINE",
"506 0 LINE",
"492 84 LINE",
"158 84 LINE",
"158 309 LINE",
"459 309 LINE",
"459 393 LINE",
"158 393 LINE",
"158 602 LINE",
"486 602 LINE"
);
}
);
};
layerId = UUID0;
name = Regular;
paths = (
{
closed = 1;
nodes = (
"398 883 LINE",
"318 883 LINE",
"273 804 LINE",
"229 883 LINE",
"149 883 LINE",
"234 748 LINE",
"312 748 LINE"
);
},
{
closed = 1;
nodes = (
"499 0 LINE",
"499 80 LINE",
"158 80 LINE",
"158 311 LINE",
"449 311 LINE",
"449 391 LINE",
"158 391 LINE",
"158 606 LINE",
"493 606 LINE",
"493 686 LINE",
"70 686 LINE",
"70 0 LINE"
);
}
);
width = 547;
}
);
unicode = 011A;
},
{
color = (31,255,0,1);
glyphname = Ecircumflex;
lastChange = "2015-02-05 02:37:04 +0000";
layers = (
{
background = {
paths = (
{
closed = 1;
nodes = (
"499 686 LINE",
"70 686 LINE",
"70 0 LINE",
"506 0 LINE",
"492 84 LINE",
"158 84 LINE",
"158 309 LINE",
"459 309 LINE",
"459 393 LINE",
"158 393 LINE",
"158 602 LINE",
"486 602 LINE"
);
}
);
};
layerId = UUID0;
name = Regular;
paths = (
{
closed = 1;
nodes = (
"313 882 LINE",
"235 882 LINE",
"149 747 LINE",
"229 747 LINE",
"274 826 LINE",
"318 747 LINE",
"398 747 LINE"
);
},
{
closed = 1;
nodes = (
"499 0 LINE",
"499 80 LINE",
"158 80 LINE",
"158 311 LINE",
"449 311 LINE",
"449 391 LINE",
"158 391 LINE",
"158 606 LINE",
"493 606 LINE",
"493 686 LINE",
"70 686 LINE",
"70 0 LINE"
);
}
);
width = 547;
}
);
unicode = 00CA;
},
{
color = (31,255,0,1);
glyphname = Edieresis;
lastChange = "2015-02-05 02:37:04 +0000";
layers = (
{
background = {
paths = (
{
closed = 1;
nodes = (
"499 686 LINE",
"70 686 LINE",
"70 0 LINE",
"506 0 LINE",
"492 84 LINE",
"158 84 LINE",
"158 309 LINE",
"459 309 LINE",
"459 393 LINE",
"158 393 LINE",
"158 602 LINE",
"486 602 LINE"
);
}
);
};
layerId = UUID0;
name = Regular;
paths = (
{
closed = 1;
nodes = (
"392 883 LINE",
"305 883 LINE",
"305 788 LINE",
"392 788 LINE"
);
},
{
closed = 1;
nodes = (
"242 883 LINE",
"155 883 LINE",
"155 788 LINE",
"242 788 LINE"
);
},
{
closed = 1;
nodes = (
"499 0 LINE",
"499 80 LINE",
"158 80 LINE",
"158 311 LINE",
"449 311 LINE",
"449 391 LINE",
"158 391 LINE",
"158 606 LINE",
"493 606 LINE",
"493 686 LINE",
"70 686 LINE",
"70 0 LINE"
);
}
);
width = 547;
}
);
unicode = 00CB;
},
{
color = (31,255,0,1);
glyphname = Edotaccent;
lastChange = "2015-02-05 02:37:04 +0000";
layers = (
{
background = {
paths = (
{
closed = 1;
nodes = (
"499 686 LINE",
"70 686 LINE",
"70 0 LINE",
"506 0 LINE",
"492 84 LINE",
"158 84 LINE",
"158 309 LINE",
"459 309 LINE",
"459 393 LINE",
"158 393 LINE",
"158 602 LINE",
"486 602 LINE"
);
}
);
};
layerId = UUID0;
name = Regular;
paths = (
{
closed = 1;
nodes = (
"317 883 LINE",
"230 883 LINE",
"230 788 LINE",
"317 788 LINE"
);
},
{
closed = 1;
nodes = (
"499 0 LINE",
"499 80 LINE",
"158 80 LINE",
"158 311 LINE",
"449 311 LINE",
"449 391 LINE",
"158 391 LINE",
"158 606 LINE",
"493 606 LINE",
"493 686 LINE",
"70 686 LINE",
"70 0 LINE"
);
}
);
width = 547;
}
);
unicode = 0116;
},
{
color = (31,255,0,1);
glyphname = Egrave;
lastChange = "2015-02-05 02:37:04 +0000";
layers = (
{
background = {
paths = (
{
closed = 1;
nodes = (
"486 602 LINE",
"499 686 LINE",
"70 686 LINE",
"70 0 LINE",
"506 0 LINE",
"492 84 LINE",
"158 84 LINE",
"158 309 LINE",
"459 309 LINE",
"459 393 LINE",
"158 393 LINE",
"158 602 LINE"
);
}
);
};
layerId = UUID0;
name = Regular;
paths = (
{
closed = 1;
nodes = (
"333 751 LINE",
"247 883 LINE",
"157 883 LINE",
"156 880 LINE",
"264 751 LINE"
);
},
{
closed = 1;
nodes = (
"499 0 LINE",
"499 80 LINE",
"158 80 LINE",
"158 311 LINE",
"449 311 LINE",
"449 391 LINE",
"158 391 LINE",
"158 606 LINE",
"493 606 LINE",
"493 686 LINE",
"70 686 LINE",
"70 0 LINE"
);
}
);
width = 547;
}
);
unicode = 00C8;
},
{
color = (31,255,0,1);
glyphname = Emacron;
lastChange = "2015-02-05 02:37:04 +0000";
layers = (
{
background = {
paths = (
{
closed = 1;
nodes = (
"499 686 LINE",
"70 686 LINE",
"70 0 LINE",
"506 0 LINE",
"492 84 LINE",
"158 84 LINE",
"158 309 LINE",
"459 309 LINE",
"459 393 LINE",
"158 393 LINE",
"158 602 LINE",
"486 602 LINE"
);
}
);
};
layerId = UUID0;
name = Regular;
paths = (
{
closed = 1;
nodes = (
"399 831 LINE",
"148 831 LINE",
"148 759 LINE",
"399 759 LINE"
);
},
{
closed = 1;
nodes = (
"499 0 LINE",
"499 80 LINE",
"158 80 LINE",
"158 311 LINE",
"449 311 LINE",
"449 391 LINE",
"158 391 LINE",
"158 606 LINE",
"493 606 LINE",
"493 686 LINE",
"70 686 LINE",
"70 0 LINE"
);
}
);
width = 547;
}
);
unicode = 0112;
},
{
color = (31,255,0,1);
glyphname = Eogonek;
lastChange = "2015-02-05 02:37:04 +0000";
layers = (
{
background = {
paths = (
{
closed = 1;
nodes = (
"499 0 LINE",
"499 80 LINE",
"158 80 LINE",
"158 311 LINE",
"449 311 LINE",
"449 391 LINE",
"158 391 LINE",
"158 606 LINE",
"493 606 LINE",
"493 686 LINE",
"70 686 LINE",
"70 0 LINE"
);
}
);
};
layerId = UUID0;
name = Regular;
paths = (
{
closed = 1;
nodes = (
"493 686 LINE",
"70 686 LINE",
"70 0 LINE",
"434 0 LINE",
"413 -23 OFFCURVE",
"397 -50 OFFCURVE",
"397 -92 CURVE SMOOTH",
"397 -161 OFFCURVE",
"448 -182 OFFCURVE",
"491 -182 CURVE SMOOTH",
"511 -182 OFFCURVE",
"531 -177 OFFCURVE",
"552 -168 CURVE",
"552 -117 LINE",
"521 -117 LINE SMOOTH",
"487 -117 OFFCURVE",
"475 -90 OFFCURVE",
"475 -62 CURVE SMOOTH",
"475 -38 OFFCURVE",
"488 -15 OFFCURVE",
"499 0 CURVE",
"499 80 LINE",
"158 80 LINE",
"158 311 LINE",
"449 311 LINE",
"449 391 LINE",
"158 391 LINE",
"158 606 LINE",
"493 606 LINE"
);
}
);
width = 547;
}
);
unicode = 0118;
},
{
color = (31,255,0,1);
glyphname = F;
lastChange = "2015-02-05 02:37:04 +0000";
layers = (
{
background = {
paths = (
{
closed = 1;
nodes = (
"472 686 LINE",
"70 686 LINE",
"70 0 LINE",
"158 0 LINE",
"158 302 LINE",
"432 302 LINE",
"432 386 LINE",
"158 386 LINE",
"158 602 LINE",
"459 602 LINE"
);
}
);
};
layerId = UUID0;
name = Regular;
paths = (
{
closed = 1;
nodes = (
"158 0 LINE",
"158 304 LINE",
"430 304 LINE",
"430 384 LINE",
"158 384 LINE",
"158 606 LINE",
"466 606 LINE",
"466 686 LINE",
"70 686 LINE",
"70 0 LINE"
);
}
);
width = 501;
}
);
unicode = 0046;
},
{
color = (31,255,0,1);
glyphname = G;
lastChange = "2015-02-05 02:37:04 +0000";
layers = (
{
anchors = (
{
name = bottom;
position = "{319, 0}";
},
{
name = top;
position = "{319, 686}";
}
);
background = {
paths = (
{
closed = 1;
nodes = (
"153 698 OFFCURVE",
"49 581 OFFCURVE",
"49 343 CURVE SMOOTH",
"49 105 OFFCURVE",
"146 -12 OFFCURVE",
"319 -12 CURVE SMOOTH",
"393 -12 OFFCURVE",
"454 14 OFFCURVE",
"496 76 CURVE",
"515 0 LINE",
"573 0 LINE",
"573 359 LINE",
"305 359 LINE",
"305 278 LINE",
"483 278 LINE",
"483 264 LINE SMOOTH",
"483 133 OFFCURVE",
"433 69 OFFCURVE",
"319 69 CURVE SMOOTH",
"204 69 OFFCURVE",
"141 151 OFFCURVE",
"141 318 CURVE SMOOTH",
"141 368 LINE SMOOTH",
"141 535 OFFCURVE",
"211 617 OFFCURVE",
"324 617 CURVE SMOOTH",
"418 617 OFFCURVE",
"483 566 OFFCURVE",
"483 452 CURVE",
"573 452 LINE",
"573 618 OFFCURVE",
"467 698 OFFCURVE",
"324 698 CURVE SMOOTH"
);
}
);
};
layerId = UUID0;
name = Regular;
paths = (
{
closed = 1;
nodes = (
"515 0 LINE",
"573 0 LINE",
"573 357 LINE",
"305 357 LINE",
"305 280 LINE",
"483 280 LINE",
"483 264 LINE SMOOTH",
"483 133 OFFCURVE",
"433 69 OFFCURVE",
"319 69 CURVE SMOOTH",
"204 69 OFFCURVE",
"141 151 OFFCURVE",
"141 318 CURVE SMOOTH",
"141 368 LINE SMOOTH",
"141 535 OFFCURVE",
"211 617 OFFCURVE",
"324 617 CURVE SMOOTH",
"418 617 OFFCURVE",
"483 566 OFFCURVE",
"483 452 CURVE",
"573 452 LINE",
"573 618 OFFCURVE",
"467 698 OFFCURVE",
"324 698 CURVE SMOOTH",
"153 698 OFFCURVE",
"49 581 OFFCURVE",
"49 343 CURVE SMOOTH",
"49 105 OFFCURVE",
"146 -12 OFFCURVE",
"319 -12 CURVE SMOOTH",
"393 -12 OFFCURVE",
"454 14 OFFCURVE",
"496 76 CURVE"
);
}
);
width = 638;
}
);
unicode = 0047;
},
{
color = (31,255,0,1);
glyphname = Gbreve;
lastChange = "2015-02-05 02:37:04 +0000";
layers = (
{
background = {
paths = (
{
closed = 1;
nodes = (
"153 698 OFFCURVE",
"49 581 OFFCURVE",
"49 343 CURVE SMOOTH",
"49 105 OFFCURVE",
"146 -12 OFFCURVE",
"319 -12 CURVE SMOOTH",
"393 -12 OFFCURVE",
"454 14 OFFCURVE",
"496 76 CURVE",
"515 0 LINE",
"573 0 LINE",
"573 359 LINE",
"305 359 LINE",
"305 278 LINE",
"483 278 LINE",
"483 264 LINE SMOOTH",
"483 133 OFFCURVE",
"433 69 OFFCURVE",
"319 69 CURVE SMOOTH",
"204 69 OFFCURVE",
"141 151 OFFCURVE",
"141 318 CURVE SMOOTH",
"141 368 LINE SMOOTH",
"141 535 OFFCURVE",
"211 617 OFFCURVE",
"324 617 CURVE SMOOTH",
"418 617 OFFCURVE",
"483 566 OFFCURVE",
"483 452 CURVE",
"573 452 LINE",
"573 618 OFFCURVE",
"467 698 OFFCURVE",
"324 698 CURVE SMOOTH"
);
}
);
};
layerId = UUID0;
name = Regular;
paths = (
{
closed = 1;
nodes = (
"379 883 LINE",
"377 869 OFFCURVE",
"353 850 OFFCURVE",
"319 850 CURVE SMOOTH",
"286 850 OFFCURVE",
"263 869 OFFCURVE",
"260 883 CURVE",
"196 883 LINE",
"196 838 OFFCURVE",
"243 786 OFFCURVE",
"319 786 CURVE SMOOTH",
"396 786 OFFCURVE",
"443 838 OFFCURVE",
"443 883 CURVE"
);
},
{
closed = 1;
nodes = (
"515 0 LINE",
"573 0 LINE",
"573 357 LINE",
"305 357 LINE",
"305 280 LINE",
"483 280 LINE",
"483 264 LINE SMOOTH",
"483 133 OFFCURVE",
"433 69 OFFCURVE",
"319 69 CURVE SMOOTH",
"204 69 OFFCURVE",
"141 151 OFFCURVE",
"141 318 CURVE SMOOTH",
"141 368 LINE SMOOTH",
"141 535 OFFCURVE",
"211 617 OFFCURVE",
"324 617 CURVE SMOOTH",
"418 617 OFFCURVE",
"483 566 OFFCURVE",
"483 452 CURVE",
"573 452 LINE",
"573 618 OFFCURVE",
"467 698 OFFCURVE",
"324 698 CURVE SMOOTH",
"153 698 OFFCURVE",
"49 581 OFFCURVE",
"49 343 CURVE SMOOTH",
"49 105 OFFCURVE",
"146 -12 OFFCURVE",
"319 -12 CURVE SMOOTH",
"393 -12 OFFCURVE",
"454 14 OFFCURVE",
"496 76 CURVE"
);
}
);
width = 638;
}
);
unicode = 011E;
},
{
color = (31,255,0,1);
glyphname = Gcircumflex;
lastChange = "2015-02-05 02:37:04 +0000";
layers = (
{
background = {
paths = (
{
closed = 1;
nodes = (
"153 698 OFFCURVE",
"49 581 OFFCURVE",
"49 343 CURVE SMOOTH",
"49 105 OFFCURVE",
"146 -12 OFFCURVE",
"319 -12 CURVE SMOOTH",
"393 -12 OFFCURVE",
"454 14 OFFCURVE",
"496 76 CURVE",
"515 0 LINE",
"573 0 LINE",
"573 359 LINE",
"305 359 LINE",
"305 278 LINE",
"483 278 LINE",
"483 264 LINE SMOOTH",
"483 133 OFFCURVE",
"433 69 OFFCURVE",
"319 69 CURVE SMOOTH",
"204 69 OFFCURVE",
"141 151 OFFCURVE",
"141 318 CURVE SMOOTH",
"141 368 LINE SMOOTH",
"141 535 OFFCURVE",
"211 617 OFFCURVE",
"324 617 CURVE SMOOTH",
"418 617 OFFCURVE",
"483 566 OFFCURVE",
"483 452 CURVE",
"573 452 LINE",
"573 618 OFFCURVE",
"467 698 OFFCURVE",
"324 698 CURVE SMOOTH"
);
}
);
};
layerId = UUID0;
name = Regular;
paths = (
{
closed = 1;
nodes = (
"359 882 LINE",
"281 882 LINE",
"195 747 LINE",
"275 747 LINE",
"320 826 LINE",
"364 747 LINE",
"444 747 LINE"
);
},
{
closed = 1;
nodes = (
"515 0 LINE",
"573 0 LINE",
"573 357 LINE",
"305 357 LINE",
"305 280 LINE",
"483 280 LINE",
"483 264 LINE SMOOTH",
"483 133 OFFCURVE",
"433 69 OFFCURVE",
"319 69 CURVE SMOOTH",
"204 69 OFFCURVE",
"141 151 OFFCURVE",
"141 318 CURVE SMOOTH",
"141 368 LINE SMOOTH",
"141 535 OFFCURVE",
"211 617 OFFCURVE",
"324 617 CURVE SMOOTH",
"418 617 OFFCURVE",
"483 566 OFFCURVE",
"483 452 CURVE",
"573 452 LINE",
"573 618 OFFCURVE",
"467 698 OFFCURVE",
"324 698 CURVE SMOOTH",
"153 698 OFFCURVE",
"49 581 OFFCURVE",
"49 343 CURVE SMOOTH",
"49 105 OFFCURVE",
"146 -12 OFFCURVE",
"319 -12 CURVE SMOOTH",
"393 -12 OFFCURVE",
"454 14 OFFCURVE",
"496 76 CURVE"
);
}
);
width = 638;
}
);
unicode = 011C;
},
{
color = (31,255,0,1);
glyphname = Gcommaaccent;
lastChange = "2015-02-05 02:37:04 +0000";
layers = (
{
background = {
paths = (
{
closed = 1;
nodes = (
"153 698 OFFCURVE",
"49 581 OFFCURVE",
"49 343 CURVE SMOOTH",
"49 105 OFFCURVE",
"146 -12 OFFCURVE",
"319 -12 CURVE SMOOTH",
"393 -12 OFFCURVE",
"454 14 OFFCURVE",
"496 76 CURVE",
"515 0 LINE",
"573 0 LINE",
"573 359 LINE",
"305 359 LINE",
"305 278 LINE",
"483 278 LINE",
"483 264 LINE SMOOTH",
"483 133 OFFCURVE",
"433 69 OFFCURVE",
"319 69 CURVE SMOOTH",
"204 69 OFFCURVE",
"141 151 OFFCURVE",
"141 318 CURVE SMOOTH",
"141 368 LINE SMOOTH",
"141 535 OFFCURVE",
"211 617 OFFCURVE",
"324 617 CURVE SMOOTH",
"418 617 OFFCURVE",
"483 566 OFFCURVE",
"483 452 CURVE",
"573 452 LINE",
"573 618 OFFCURVE",
"467 698 OFFCURVE",
"324 698 CURVE SMOOTH"
);
}
);
};
layerId = UUID0;
name = Regular;
paths = (
{
closed = 1;
nodes = (
"362 -60 LINE",
"277 -60 LINE",
"277 -151 LINE",
"311 -151 LINE",
"289 -222 LINE",
"333 -222 LINE",
"362 -144 LINE"
);
},
{
closed = 1;
nodes = (
"515 0 LINE",
"573 0 LINE",
"573 357 LINE",
"305 357 LINE",
"305 280 LINE",
"483 280 LINE",
"483 264 LINE SMOOTH",
"483 133 OFFCURVE",
"433 69 OFFCURVE",
"319 69 CURVE SMOOTH",
"204 69 OFFCURVE",
"141 151 OFFCURVE",
"141 318 CURVE SMOOTH",
"141 368 LINE SMOOTH",
"141 535 OFFCURVE",
"211 617 OFFCURVE",
"324 617 CURVE SMOOTH",
"418 617 OFFCURVE",
"483 566 OFFCURVE",
"483 452 CURVE",
"573 452 LINE",
"573 618 OFFCURVE",
"467 698 OFFCURVE",
"324 698 CURVE SMOOTH",
"153 698 OFFCURVE",
"49 581 OFFCURVE",
"49 343 CURVE SMOOTH",
"49 105 OFFCURVE",
"146 -12 OFFCURVE",
"319 -12 CURVE SMOOTH",
"393 -12 OFFCURVE",
"454 14 OFFCURVE",
"496 76 CURVE"
);
}
);
width = 638;
}
);
unicode = 0122;
},
{
color = (31,255,0,1);
glyphname = Gdotaccent;
lastChange = "2015-02-05 02:37:04 +0000";
layers = (
{
background = {
paths = (
{
closed = 1;
nodes = (
"153 698 OFFCURVE",
"49 581 OFFCURVE",
"49 343 CURVE SMOOTH",
"49 105 OFFCURVE",
"146 -12 OFFCURVE",
"319 -12 CURVE SMOOTH",
"393 -12 OFFCURVE",
"454 14 OFFCURVE",
"496 76 CURVE",
"515 0 LINE",
"573 0 LINE",
"573 359 LINE",
"305 359 LINE",
"305 278 LINE",
"483 278 LINE",
"483 264 LINE SMOOTH",
"483 133 OFFCURVE",
"433 69 OFFCURVE",
"319 69 CURVE SMOOTH",
"204 69 OFFCURVE",
"141 151 OFFCURVE",
"141 318 CURVE SMOOTH",
"141 368 LINE SMOOTH",
"141 535 OFFCURVE",
"211 617 OFFCURVE",
"324 617 CURVE SMOOTH",
"418 617 OFFCURVE",
"483 566 OFFCURVE",
"483 452 CURVE",
"573 452 LINE",
"573 618 OFFCURVE",
"467 698 OFFCURVE",
"324 698 CURVE SMOOTH"
);
}
);
};
layerId = UUID0;
name = Regular;
paths = (
{
closed = 1;
nodes = (
"363 883 LINE",
"276 883 LINE",
"276 788 LINE",
"363 788 LINE"
);
},
{
closed = 1;
nodes = (
"515 0 LINE",
"573 0 LINE",
"573 357 LINE",
"305 357 LINE",
"305 280 LINE",
"483 280 LINE",
"483 264 LINE SMOOTH",
"483 133 OFFCURVE",
"433 69 OFFCURVE",
"319 69 CURVE SMOOTH",
"204 69 OFFCURVE",
"141 151 OFFCURVE",
"141 318 CURVE SMOOTH",
"141 368 LINE SMOOTH",
"141 535 OFFCURVE",
"211 617 OFFCURVE",
"324 617 CURVE SMOOTH",
"418 617 OFFCURVE",
"483 566 OFFCURVE",
"483 452 CURVE",
"573 452 LINE",
"573 618 OFFCURVE",
"467 698 OFFCURVE",
"324 698 CURVE SMOOTH",
"153 698 OFFCURVE",
"49 581 OFFCURVE",
"49 343 CURVE SMOOTH",
"49 105 OFFCURVE",
"146 -12 OFFCURVE",
"319 -12 CURVE SMOOTH",
"393 -12 OFFCURVE",
"454 14 OFFCURVE",
"496 76 CURVE"
);
}
);
width = 638;
}
);
unicode = 0120;
},
{
color = (31,255,0,1);
glyphname = H;
lastChange = "2015-02-05 02:37:04 +0000";
layers = (
{
anchors = (
{
name = center;
position = "{296, 343}";
},
{
name = top;
position = "{296, 686}";
}
);
background = {
paths = (
{
closed = 1;
nodes = (
"522 686 LINE",
"434 686 LINE",
"434 393 LINE",
"158 393 LINE",
"158 686 LINE",
"70 686 LINE",
"70 0 LINE",
"158 0 LINE",
"158 309 LINE",
"434 309 LINE",
"434 0 LINE",
"522 0 LINE"
);
}
);
};
layerId = UUID0;
name = Regular;
paths = (
{
closed = 1;
nodes = (
"522 686 LINE",
"434 686 LINE",
"434 391 LINE",
"158 391 LINE",
"158 686 LINE",
"70 686 LINE",
"70 0 LINE",
"158 0 LINE",
"158 311 LINE",
"434 311 LINE",
"434 0 LINE",
"522 0 LINE"
);
}
);
width = 592;
}
);
unicode = 0048;
},
{
color = (31,255,0,1);
glyphname = Hbar;
lastChange = "2015-02-05 02:37:04 +0000";
layers = (
{
background = {
paths = (
{
closed = 1;
nodes = (
"522 686 LINE",
"434 686 LINE",
"434 391 LINE",
"158 391 LINE",
"158 686 LINE",
"70 686 LINE",
"70 0 LINE",
"158 0 LINE",
"158 311 LINE",
"434 311 LINE",
"434 0 LINE",
"522 0 LINE"
);
}
);
};
layerId = UUID0;
name = Regular;
paths = (
{
closed = 1;
nodes = (
"572 562 LINE",
"522 562 LINE",
"522 686 LINE",
"434 686 LINE",
"434 562 LINE",
"158 562 LINE",
"158 686 LINE",
"70 686 LINE",
"70 562 LINE",
"20 562 LINE",
"20 490 LINE",
"70 490 LINE",
"70 0 LINE",
"158 0 LINE",
"158 306 LINE",
"434 306 LINE",
"434 0 LINE",
"522 0 LINE",
"522 490 LINE",
"572 490 LINE"
);
},
{
closed = 1;
nodes = (
"158 386 LINE",
"158 490 LINE",
"434 490 LINE",
"434 386 LINE"
);
}
);
width = 592;
}
);
unicode = 0126;
},
{
color = (31,255,0,1);
glyphname = Hcircumflex;
lastChange = "2015-02-05 02:37:04 +0000";
layers = (
{
background = {
paths = (
{
closed = 1;
nodes = (
"522 686 LINE",
"434 686 LINE",
"434 393 LINE",
"158 393 LINE",
"158 686 LINE",
"70 686 LINE",
"70 0 LINE",
"158 0 LINE",
"158 309 LINE",
"434 309 LINE",
"434 0 LINE",
"522 0 LINE"
);
}
);
};
layerId = UUID0;
name = Regular;
paths = (
{
closed = 1;
nodes = (
"335 882 LINE",
"257 882 LINE",
"171 747 LINE",
"251 747 LINE",
"297 826 LINE",
"341 747 LINE",
"421 747 LINE"
);
},
{
closed = 1;
nodes = (
"522 686 LINE",
"434 686 LINE",
"434 391 LINE",
"158 391 LINE",
"158 686 LINE",
"70 686 LINE",
"70 0 LINE",
"158 0 LINE",
"158 311 LINE",
"434 311 LINE",
"434 0 LINE",
"522 0 LINE"
);
}
);
width = 592;
}
);
unicode = 0124;
},
{
glyphname = I;
lastChange = "2015-02-05 02:37:04 +0000";
layers = (
{
anchors = (
{
name = ogonek;
position = "{156, 5}";
},
{
name = top;
position = "{114, 686}";
}
);
layerId = UUID0;
name = Regular;
paths = (
{
closed = 1;
nodes = (
"158 686 LINE",
"70 686 LINE",
"70 0 LINE",
"158 0 LINE"
);
}
);
width = 228;
}
);
unicode = 0049;
},
{
glyphname = IJ;
lastChange = "2015-02-05 02:37:04 +0000";
layers = (
{
layerId = UUID0;
name = Regular;
paths = (
{
closed = 1;
nodes = (
"158 686 LINE",
"70 686 LINE",
"70 0 LINE",
"158 0 LINE"
);
},
{
closed = 1;
nodes = (
"573 686 LINE",
"485 686 LINE",
"485 158 LINE SMOOTH",
"485 100 OFFCURVE",
"457 69 OFFCURVE",
"407 69 CURVE SMOOTH",
"357 69 OFFCURVE",
"329 100 OFFCURVE",
"329 158 CURVE SMOOTH",
"329 208 LINE",
"241 208 LINE",
"241 163 LINE SMOOTH",
"241 49 OFFCURVE",
"302 -12 OFFCURVE",
"407 -12 CURVE SMOOTH",
"512 -12 OFFCURVE",
"573 49 OFFCURVE",
"573 163 CURVE SMOOTH"
);
}
);
width = 638;
}
);
unicode = 0132;
},
{
glyphname = Iacute;
lastChange = "2015-02-05 02:37:04 +0000";
layers = (
{
layerId = UUID0;
name = Regular;
paths = (
{
closed = 1;
nodes = (
"158 0 LINE",
"158 686 LINE",
"70 686 LINE",
"70 0 LINE"
);
},
{
closed = 1;
nodes = (
"231 880 LINE",
"230 883 LINE",
"141 883 LINE",
"55 751 LINE",
"124 751 LINE"
);
}
);
width = 228;
}
);
unicode = 00CD;
},
{
glyphname = Ibreve;
lastChange = "2015-02-05 02:37:04 +0000";
layers = (
{
layerId = UUID0;
name = Regular;
paths = (
{
closed = 1;
nodes = (
"158 686 LINE",
"70 686 LINE",
"70 0 LINE",
"158 0 LINE"
);
},
{
closed = 1;
nodes = (
"174 883 LINE",
"172 869 OFFCURVE",
"148 850 OFFCURVE",
"114 850 CURVE SMOOTH",
"81 850 OFFCURVE",
"58 869 OFFCURVE",
"55 883 CURVE",
"-10 883 LINE",
"-10 838 OFFCURVE",
"38 786 OFFCURVE",
"114 786 CURVE SMOOTH",
"191 786 OFFCURVE",
"238 838 OFFCURVE",
"238 883 CURVE"
);
}
);
width = 228;
}
);
unicode = 012C;
},
{
glyphname = Icircumflex;
lastChange = "2015-02-05 02:37:04 +0000";
layers = (
{
layerId = UUID0;
name = Regular;
paths = (
{
closed = 1;
nodes = (
"158 686 LINE",
"70 686 LINE",
"70 0 LINE",
"158 0 LINE"
);
},
{
closed = 1;
nodes = (
"154 882 LINE",
"76 882 LINE",
"-11 747 LINE",
"70 747 LINE",
"115 826 LINE",
"159 747 LINE",
"239 747 LINE"
);
}
);
width = 228;
}
);
unicode = 00CE;
},
{
glyphname = Idieresis;
lastChange = "2015-02-05 02:37:04 +0000";
layers = (
{
layerId = UUID0;
name = Regular;
paths = (
{
closed = 1;
nodes = (
"158 686 LINE",
"70 686 LINE",
"70 0 LINE",
"158 0 LINE"
);
},
{
closed = 1;
nodes = (
"233 883 LINE",
"146 883 LINE",
"146 788 LINE",
"233 788 LINE"
);
},
{
closed = 1;
nodes = (
"83 883 LINE",
"-4 883 LINE",
"-4 788 LINE",
"83 788 LINE"
);
}
);
width = 228;
}
);
unicode = 00CF;
},
{
glyphname = Idotaccent;
lastChange = "2015-02-05 02:37:04 +0000";
layers = (
{
layerId = UUID0;
name = Regular;
paths = (
{
closed = 1;
nodes = (
"158 686 LINE",
"70 686 LINE",
"70 0 LINE",
"158 0 LINE"
);
},
{
closed = 1;
nodes = (
"158 883 LINE",
"71 883 LINE",
"71 788 LINE",
"158 788 LINE"
);
}
);
width = 228;
}
);
unicode = 0130;
},
{
glyphname = Igrave;
lastChange = "2015-02-05 02:37:04 +0000";
layers = (
{
layerId = UUID0;
name = Regular;
paths = (
{
closed = 1;
nodes = (
"158 0 LINE",
"158 686 LINE",
"70 686 LINE",
"70 0 LINE"
);
},
{
closed = 1;
nodes = (
"174 751 LINE",
"88 883 LINE",
"-2 883 LINE",
"-3 880 LINE",
"105 751 LINE"
);
}
);
width = 228;
}
);
unicode = 00CC;
},
{
glyphname = Imacron;
lastChange = "2015-02-05 02:37:04 +0000";
layers = (
{
layerId = UUID0;
name = Regular;
paths = (
{
closed = 1;
nodes = (
"158 686 LINE",
"70 686 LINE",
"70 0 LINE",
"158 0 LINE"
);
},
{
closed = 1;
nodes = (
"240 831 LINE",
"-11 831 LINE",
"-11 759 LINE",
"240 759 LINE"
);
}
);
width = 228;
}
);
unicode = 012A;
},
{
glyphname = Iogonek;
lastChange = "2015-02-05 02:37:04 +0000";
layers = (
{
layerId = UUID0;
name = Regular;
paths = (
{
closed = 1;
nodes = (
"158 686 LINE",
"70 686 LINE",
"70 0 LINE",
"86 0 LINE",
"65 -23 OFFCURVE",
"49 -50 OFFCURVE",
"49 -92 CURVE SMOOTH",
"49 -161 OFFCURVE",
"101 -182 OFFCURVE",
"144 -182 CURVE SMOOTH",
"164 -182 OFFCURVE",
"184 -177 OFFCURVE",
"205 -168 CURVE",
"205 -117 LINE",
"173 -117 LINE SMOOTH",
"140 -117 OFFCURVE",
"127 -90 OFFCURVE",
"127 -62 CURVE SMOOTH",
"127 -38 OFFCURVE",
"140 -15 OFFCURVE",
"151 0 CURVE",
"158 0 LINE"
);
}
);
width = 228;
}
);
unicode = 012E;
},
{
glyphname = Itilde;
lastChange = "2015-02-05 02:37:04 +0000";
layers = (
{
layerId = UUID0;
name = Regular;
paths = (
{
closed = 1;
nodes = (
"158 686 LINE",
"70 686 LINE",
"70 0 LINE",
"158 0 LINE"
);
},
{
closed = 1;
nodes = (
"202 883 LINE",
"199 860 OFFCURVE",
"186 853 OFFCURVE",
"168 853 CURVE SMOOTH",
"129 853 OFFCURVE",
"96 883 OFFCURVE",
"53 883 CURVE SMOOTH",
"-7 883 OFFCURVE",
"-32 825 OFFCURVE",
"-32 779 CURVE",
"26 779 LINE",
"29 802 OFFCURVE",
"42 810 OFFCURVE",
"60 810 CURVE SMOOTH",
"99 810 OFFCURVE",
"132 779 OFFCURVE",
"175 779 CURVE SMOOTH",
"235 779 OFFCURVE",
"260 837 OFFCURVE",
"260 883 CURVE"
);
}
);
width = 228;
}
);
unicode = 0128;
},
{
glyphname = J;
lastChange = "2015-02-05 02:37:04 +0000";
layers = (
{
anchors = (
{
name = top;
position = "{302, 686}";
}
);
layerId = UUID0;
name = Regular;
paths = (
{
closed = 1;
nodes = (
"345 686 LINE",
"257 686 LINE",
"257 158 LINE SMOOTH",
"257 100 OFFCURVE",
"229 69 OFFCURVE",
"179 69 CURVE SMOOTH",
"129 69 OFFCURVE",
"101 100 OFFCURVE",
"101 158 CURVE SMOOTH",
"101 208 LINE",
"13 208 LINE",
"13 163 LINE SMOOTH",
"13 49 OFFCURVE",
"74 -12 OFFCURVE",
"179 -12 CURVE SMOOTH",
"284 -12 OFFCURVE",
"345 49 OFFCURVE",
"345 163 CURVE SMOOTH"
);
}
);
width = 410;
}
);
unicode = 004A;
},
{
glyphname = Jcircumflex;
lastChange = "2015-02-05 02:37:04 +0000";
layers = (
{
layerId = UUID0;
name = Regular;
paths = (
{
closed = 1;
nodes = (
"345 686 LINE",
"257 686 LINE",
"257 158 LINE SMOOTH",
"257 100 OFFCURVE",
"229 69 OFFCURVE",
"179 69 CURVE SMOOTH",
"129 69 OFFCURVE",
"101 100 OFFCURVE",
"101 158 CURVE SMOOTH",
"101 208 LINE",
"13 208 LINE",
"13 163 LINE SMOOTH",
"13 49 OFFCURVE",
"74 -12 OFFCURVE",
"179 -12 CURVE SMOOTH",
"284 -12 OFFCURVE",
"345 49 OFFCURVE",
"345 163 CURVE SMOOTH"
);
},
{
closed = 1;
nodes = (
"341 882 LINE",
"263 882 LINE",
"177 747 LINE",
"257 747 LINE",
"303 826 LINE",
"347 747 LINE",
"427 747 LINE"
);
}
);
width = 410;
}
);
unicode = 0134;
},
{
color = (31,255,0,1);
glyphname = K;
lastChange = "2015-02-05 02:37:04 +0000";
layers = (
{
anchors = (
{
name = bottom;
position = "{273, 0}";
},
{
name = top;
position = "{273, 686}";
}
);
background = {
paths = (
{
closed = 1;
nodes = (
"528 686 LINE",
"430 686 LINE",
"158 323 LINE",
"158 686 LINE",
"70 686 LINE",
"70 0 LINE",
"158 0 LINE",
"158 213 LINE",
"244 307 LINE",
"428 0 LINE",
"535 0 LINE",
"302 384 LINE"
);
}
);
};
layerId = UUID0;
name = Regular;
paths = (
{
closed = 1;
nodes = (
"158 686 LINE",
"70 686 LINE",
"70 0 LINE",
"158 0 LINE",
"158 213 LINE",
"268 335 LINE",
"435 0 LINE",
"535 0 LINE",
"322 409 LINE",
"528 686 LINE",
"430 686 LINE",
"158 323 LINE"
);
}
);
width = 547;
}
);
unicode = 004B;
},
{
color = (31,255,0,1);
glyphname = Kcommaaccent;
lastChange = "2015-02-05 02:37:04 +0000";
layers = (
{
background = {
paths = (
{
closed = 1;
nodes = (
"528 686 LINE",
"430 686 LINE",
"158 323 LINE",
"158 686 LINE",
"70 686 LINE",
"70 0 LINE",
"158 0 LINE",
"158 213 LINE",
"244 307 LINE",
"428 0 LINE",
"535 0 LINE",
"302 384 LINE"
);
}
);
};
layerId = UUID0;
name = Regular;
paths = (
{
closed = 1;
nodes = (
"316 -60 LINE",
"231 -60 LINE",
"231 -151 LINE",
"265 -151 LINE",
"243 -222 LINE",
"287 -222 LINE",
"316 -144 LINE"
);
},
{
closed = 1;
nodes = (
"158 686 LINE",
"70 686 LINE",
"70 0 LINE",
"158 0 LINE",
"158 213 LINE",
"268 335 LINE",
"435 0 LINE",
"535 0 LINE",
"322 409 LINE",
"528 686 LINE",
"430 686 LINE",
"158 323 LINE"
);
}
);
width = 547;
}
);
unicode = 0136;
},
{
color = (31,255,0,1);
glyphname = L;
lastChange = "2015-02-05 02:37:04 +0000";
layers = (
{
anchors = (
{
name = bottom;
position = "{228, 0}";
},
{
name = top;
position = "{125, 686}";
}
);
background = {
paths = (
{
closed = 1;
nodes = (
"158 686 LINE",
"70 686 LINE",
"70 0 LINE",
"445 0 LINE",
"431 84 LINE",
"158 84 LINE"
);
}
);
};
layerId = UUID0;
name = Regular;
paths = (
{
closed = 1;
nodes = (
"438 0 LINE",
"438 80 LINE",
"158 80 LINE",
"158 686 LINE",
"70 686 LINE",
"70 0 LINE"
);
}
);
width = 456;
}
);
unicode = 004C;
},
{
color = (31,255,0,1);
glyphname = Lacute;
lastChange = "2015-02-05 02:37:04 +0000";
layers = (
{
background = {
paths = (
{
closed = 1;
nodes = (
"158 84 LINE",
"158 686 LINE",
"70 686 LINE",
"70 0 LINE",
"445 0 LINE",
"431 84 LINE"
);
}
);
};
layerId = UUID0;
name = Regular;
paths = (
{
closed = 1;
nodes = (
"228 880 LINE",
"227 883 LINE",
"137 883 LINE",
"51 751 LINE",
"121 751 LINE"
);
},
{
closed = 1;
nodes = (
"438 0 LINE",
"438 80 LINE",
"158 80 LINE",
"158 686 LINE",
"70 686 LINE",
"70 0 LINE"
);
}
);
width = 456;
}
);
unicode = 0139;
},
{
color = (31,255,0,1);
glyphname = Lcaron;
lastChange = "2015-02-05 02:37:04 +0000";
layers = (
{
background = {
paths = (
{
closed = 1;
nodes = (
"158 686 LINE",
"70 686 LINE",
"70 0 LINE",
"445 0 LINE",
"431 84 LINE",
"158 84 LINE"
);
}
);
};
layerId = UUID0;
name = Regular;
paths = (
{
closed = 1;
nodes = (
"419 686 LINE",
"319 686 LINE",
"319 578 LINE",
"359 578 LINE",
"319 454 LINE",
"371 454 LINE",
"419 587 LINE"
);
},
{
closed = 1;
nodes = (
"438 0 LINE",
"438 80 LINE",
"158 80 LINE",
"158 686 LINE",
"70 686 LINE",
"70 0 LINE"
);
}
);
width = 456;
}
);
unicode = 013D;
},
{
color = (31,255,0,1);
glyphname = Lcommaaccent;
lastChange = "2015-02-05 02:37:04 +0000";
layers = (
{
background = {
paths = (
{
closed = 1;
nodes = (
"158 686 LINE",
"70 686 LINE",
"70 0 LINE",
"445 0 LINE",
"431 84 LINE",
"158 84 LINE"
);
}
);
};
layerId = UUID0;
name = Regular;
paths = (
{
closed = 1;
nodes = (
"271 -60 LINE",
"186 -60 LINE",
"186 -151 LINE",
"220 -151 LINE",
"197 -222 LINE",
"242 -222 LINE",
"271 -144 LINE"
);
},
{
closed = 1;
nodes = (
"438 0 LINE",
"438 80 LINE",
"158 80 LINE",
"158 686 LINE",
"70 686 LINE",
"70 0 LINE"
);
}
);
width = 456;
}
);
unicode = 013B;
},
{
color = (31,255,0,1);
glyphname = Ldot;
lastChange = "2015-02-05 02:37:04 +0000";
layers = (
{
background = {
paths = (
{
closed = 1;
nodes = (
"158 686 LINE",
"70 686 LINE",
"70 0 LINE",
"445 0 LINE",
"431 84 LINE",
"158 84 LINE"
);
}
);
};
layerId = UUID0;
name = Regular;
paths = (
{
closed = 1;
nodes = (
"396 525 LINE",
"295 525 LINE",
"295 414 LINE",
"396 414 LINE"
);
},
{
closed = 1;
nodes = (
"438 0 LINE",
"438 80 LINE",
"158 80 LINE",
"158 686 LINE",
"70 686 LINE",
"70 0 LINE"
);
}
);
width = 456;
}
);
unicode = 013F;
},
{
color = (31,255,0,1);
glyphname = Lslash;
lastChange = "2015-02-05 02:37:04 +0000";
layers = (
{
background = {
paths = (
{
closed = 1;
nodes = (
"438 0 LINE",
"438 80 LINE",
"158 80 LINE",
"158 686 LINE",
"70 686 LINE",
"70 0 LINE"
);
}
);
};
layerId = UUID0;
name = Regular;
paths = (
{
closed = 1;
nodes = (
"158 686 LINE",
"70 686 LINE",
"70 317 LINE",
"0 255 LINE",
"0 184 LINE",
"70 245 LINE",
"70 0 LINE",
"438 0 LINE",
"438 80 LINE",
"158 80 LINE",
"158 323 LINE",
"295 444 LINE",
"295 517 LINE",
"158 395 LINE"
);
}
);
width = 456;
}
);
unicode = 0141;
},
{
color = (31,255,0,1);
glyphname = M;
lastChange = "2015-02-05 02:37:04 +0000";
layers = (
{
background = {
paths = (
{
closed = 1;
nodes = (
"621 686 LINE",
"488 686 LINE",
"366 236 LINE SMOOTH",
"355 194 OFFCURVE",
"344 102 OFFCURVE",
"344 102 CURVE",
"340 102 LINE",
"340 102 OFFCURVE",
"329 192 OFFCURVE",
"317 236 CURVE SMOOTH",
"196 686 LINE",
"62 686 LINE",
"62 0 LINE",
"141 0 LINE",
"141 498 LINE SMOOTH",
"141 514 OFFCURVE",
"139 584 OFFCURVE",
"139 584 CURVE",
"143 584 LINE",
"143 584 OFFCURVE",
"156 513 OFFCURVE",
"160 498 CURVE SMOOTH",
"297 0 LINE",
"376 0 LINE",
"513 498 LINE SMOOTH",
"519 518 OFFCURVE",
"532 584 OFFCURVE",
"532 584 CURVE",
"536 584 LINE",
"536 584 OFFCURVE",
"533 518 OFFCURVE",
"533 498 CURVE SMOOTH",
"533 0 LINE",
"621 0 LINE"
);
}
);
};
layerId = UUID0;
name = Regular;
paths = (
{
closed = 1;
nodes = (
"621 0 LINE",
"621 686 LINE",
"488 686 LINE",
"366 236 LINE SMOOTH",
"353 188 OFFCURVE",
"344 82 OFFCURVE",
"344 82 CURVE",
"340 82 LINE",
"340 82 OFFCURVE",
"330 186 OFFCURVE",
"317 236 CURVE SMOOTH",
"196 686 LINE",
"62 686 LINE",
"62 0 LINE",
"141 0 LINE",
"141 498 LINE SMOOTH",
"141 518 OFFCURVE",
"135 604 OFFCURVE",
"135 604 CURVE",
"139 604 LINE",
"139 604 OFFCURVE",
"155 517 OFFCURVE",
"160 498 CURVE SMOOTH",
"297 0 LINE",
"376 0 LINE",
"513 498 LINE SMOOTH",
"520 522 OFFCURVE",
"536 604 OFFCURVE",
"536 604 CURVE",
"540 604 LINE",
"540 604 OFFCURVE",
"533 522 OFFCURVE",
"533 498 CURVE SMOOTH",
"533 0 LINE"
);
}
);
width = 683;
}
);
unicode = 004D;
},
{
glyphname = N;
lastChange = "2015-02-05 02:37:04 +0000";
layers = (
{
anchors = (
{
name = bottom;
position = "{296, 0}";
},
{
name = top;
position = "{296, 686}";
}
);
layerId = UUID0;
name = Regular;
paths = (
{
closed = 1;
nodes = (
"522 686 LINE",
"443 686 LINE",
"443 255 LINE SMOOTH",
"443 233 OFFCURVE",
"446 164 OFFCURVE",
"446 164 CURVE",
"443 163 LINE",
"443 163 OFFCURVE",
"416 229 OFFCURVE",
"401 255 CURVE SMOOTH",
"146 686 LINE",
"70 686 LINE",
"70 0 LINE",
"149 0 LINE",
"149 437 LINE SMOOTH",
"149 465 OFFCURVE",
"145 528 OFFCURVE",
"145 528 CURVE",
"148 529 LINE",
"148 529 OFFCURVE",
"175 466 OFFCURVE",
"192 437 CURVE SMOOTH",
"449 0 LINE",
"522 0 LINE"
);
}
);
width = 592;
}
);
unicode = 004E;
},
{
glyphname = Nacute;
lastChange = "2015-02-05 02:37:04 +0000";
layers = (
{
layerId = UUID0;
name = Regular;
paths = (
{
closed = 1;
nodes = (
"522 0 LINE",
"522 686 LINE",
"443 686 LINE",
"443 255 LINE SMOOTH",
"443 233 OFFCURVE",
"446 164 OFFCURVE",
"446 164 CURVE",
"443 163 LINE",
"443 163 OFFCURVE",
"416 229 OFFCURVE",
"401 255 CURVE SMOOTH",
"146 686 LINE",
"70 686 LINE",
"70 0 LINE",
"149 0 LINE",
"149 437 LINE SMOOTH",
"149 465 OFFCURVE",
"145 528 OFFCURVE",
"145 528 CURVE",
"148 529 LINE",
"148 529 OFFCURVE",
"175 466 OFFCURVE",
"192 437 CURVE SMOOTH",
"449 0 LINE"
);
},
{
closed = 1;
nodes = (
"413 880 LINE",
"412 883 LINE",
"322 883 LINE",
"236 751 LINE",
"306 751 LINE"
);
}
);
width = 592;
}
);
unicode = 0143;
},
{
glyphname = Ncaron;
lastChange = "2015-02-05 02:37:04 +0000";
layers = (
{
layerId = UUID0;
name = Regular;
paths = (
{
closed = 1;
nodes = (
"522 686 LINE",
"443 686 LINE",
"443 255 LINE SMOOTH",
"443 233 OFFCURVE",
"446 164 OFFCURVE",
"446 164 CURVE",
"443 163 LINE",
"443 163 OFFCURVE",
"416 229 OFFCURVE",
"401 255 CURVE SMOOTH",
"146 686 LINE",
"70 686 LINE",
"70 0 LINE",
"149 0 LINE",
"149 437 LINE SMOOTH",
"149 465 OFFCURVE",
"145 528 OFFCURVE",
"145 528 CURVE",
"148 529 LINE",
"148 529 OFFCURVE",
"175 466 OFFCURVE",
"192 437 CURVE SMOOTH",
"449 0 LINE",
"522 0 LINE"
);
},
{
closed = 1;
nodes = (
"421 883 LINE",
"341 883 LINE",
"296 804 LINE",
"251 883 LINE",
"171 883 LINE",
"256 748 LINE",
"334 748 LINE"
);
}
);
width = 592;
}
);
unicode = 0147;
},
{
glyphname = Ncommaaccent;
lastChange = "2015-02-05 02:37:04 +0000";
layers = (
{
layerId = UUID0;
name = Regular;
paths = (
{
closed = 1;
nodes = (
"522 686 LINE",
"443 686 LINE",
"443 255 LINE SMOOTH",
"443 233 OFFCURVE",
"446 164 OFFCURVE",
"446 164 CURVE",
"443 163 LINE",
"443 163 OFFCURVE",
"416 229 OFFCURVE",
"401 255 CURVE SMOOTH",
"146 686 LINE",
"70 686 LINE",
"70 0 LINE",
"149 0 LINE",
"149 437 LINE SMOOTH",
"149 465 OFFCURVE",
"145 528 OFFCURVE",
"145 528 CURVE",
"148 529 LINE",
"148 529 OFFCURVE",
"175 466 OFFCURVE",
"192 437 CURVE SMOOTH",
"449 0 LINE",
"522 0 LINE"
);
},
{
closed = 1;
nodes = (
"339 -60 LINE",
"253 -60 LINE",
"253 -151 LINE",
"288 -151 LINE",
"265 -222 LINE",
"310 -222 LINE",
"339 -144 LINE"
);
}
);
width = 592;
}
);
unicode = 0145;
},
{
color = (31,255,0,1);
glyphname = Eng;
lastChange = "2015-02-05 02:37:04 +0000";
layers = (
{
layerId = UUID0;
name = Regular;
paths = (
{
closed = 1;
nodes = (
"522 686 LINE",
"440 686 LINE",
"443 255 LINE SMOOTH",
"443 233 OFFCURVE",
"446 164 OFFCURVE",
"446 164 CURVE",
"443 163 LINE",
"443 163 OFFCURVE",
"416 229 OFFCURVE",
"401 255 CURVE SMOOTH",
"146 686 LINE",
"70 686 LINE",
"70 0 LINE",
"149 0 LINE",
"149 437 LINE SMOOTH",
"149 465 OFFCURVE",
"145 528 OFFCURVE",
"145 528 CURVE",
"148 529 LINE",
"148 529 OFFCURVE",
"175 466 OFFCURVE",
"192 437 CURVE SMOOTH",
"440 15 LINE",
"440 -65 LINE",
"440 -96 OFFCURVE",
"424 -113 OFFCURVE",
"393 -113 CURVE SMOOTH",
"349 -113 LINE",
"349 -170 LINE",
"366 -176 OFFCURVE",
"394 -182 OFFCURVE",
"418 -182 CURVE SMOOTH",
"498 -182 OFFCURVE",
"522 -121 OFFCURVE",
"522 -61 CURVE SMOOTH"
);
}
);
width = 592;
}
);
unicode = 014A;
},
{
glyphname = Ntilde;
lastChange = "2015-02-05 02:37:04 +0000";
layers = (
{
layerId = UUID0;
name = Regular;
paths = (
{
closed = 1;
nodes = (
"522 686 LINE",
"443 686 LINE",
"443 255 LINE SMOOTH",
"443 233 OFFCURVE",
"446 164 OFFCURVE",
"446 164 CURVE",
"443 163 LINE",
"443 163 OFFCURVE",
"416 229 OFFCURVE",
"401 255 CURVE SMOOTH",
"146 686 LINE",
"70 686 LINE",
"70 0 LINE",
"149 0 LINE",
"149 437 LINE SMOOTH",
"149 465 OFFCURVE",
"145 528 OFFCURVE",
"145 528 CURVE",
"148 529 LINE",
"148 529 OFFCURVE",
"175 466 OFFCURVE",
"192 437 CURVE SMOOTH",
"449 0 LINE",
"522 0 LINE"
);
},
{
closed = 1;
nodes = (
"384 883 LINE",
"381 860 OFFCURVE",
"368 853 OFFCURVE",
"350 853 CURVE SMOOTH",
"311 853 OFFCURVE",
"278 883 OFFCURVE",
"235 883 CURVE SMOOTH",
"175 883 OFFCURVE",
"150 825 OFFCURVE",
"150 779 CURVE",
"208 779 LINE",
"211 802 OFFCURVE",
"224 810 OFFCURVE",
"242 810 CURVE SMOOTH",
"281 810 OFFCURVE",
"313 779 OFFCURVE",
"357 779 CURVE SMOOTH",
"417 779 OFFCURVE",
"442 837 OFFCURVE",
"442 883 CURVE"
);
}
);
width = 592;
}
);
unicode = 00D1;
},
{
glyphname = O;
lastChange = "2015-02-05 02:37:04 +0000";
layers = (
{
anchors = (
{
name = top;
position = "{319, 686}";
}
);
layerId = UUID0;
name = Regular;
paths = (
{
closed = 1;
nodes = (
"151 698 OFFCURVE",
"49 581 OFFCURVE",
"49 343 CURVE SMOOTH",
"49 105 OFFCURVE",
"151 -12 OFFCURVE",
"319 -12 CURVE SMOOTH",
"487 -12 OFFCURVE",
"589 105 OFFCURVE",
"589 343 CURVE SMOOTH",
"589 581 OFFCURVE",
"487 698 OFFCURVE",
"319 698 CURVE SMOOTH"
);
},
{
closed = 1;
nodes = (
"429 617 OFFCURVE",
"497 535 OFFCURVE",
"497 368 CURVE SMOOTH",
"497 318 LINE SMOOTH",
"497 151 OFFCURVE",
"429 69 OFFCURVE",
"319 69 CURVE SMOOTH",
"209 69 OFFCURVE",
"141 151 OFFCURVE",
"141 318 CURVE SMOOTH",
"141 368 LINE",
"141 535 OFFCURVE",
"209 617 OFFCURVE",
"319 617 CURVE SMOOTH"
);
}
);
width = 638;
}
);
unicode = 004F;
},
{
glyphname = Oacute;
lastChange = "2015-02-05 02:37:04 +0000";
layers = (
{
layerId = UUID0;
name = Regular;
paths = (
{
closed = 1;
nodes = (
"151 698 OFFCURVE",
"49 581 OFFCURVE",
"49 343 CURVE SMOOTH",
"49 105 OFFCURVE",
"151 -12 OFFCURVE",
"319 -12 CURVE SMOOTH",
"487 -12 OFFCURVE",
"589 105 OFFCURVE",
"589 343 CURVE SMOOTH",
"589 581 OFFCURVE",
"487 698 OFFCURVE",
"319 698 CURVE SMOOTH"
);
},
{
closed = 1;
nodes = (
"429 617 OFFCURVE",
"497 535 OFFCURVE",
"497 368 CURVE SMOOTH",
"497 318 LINE SMOOTH",
"497 151 OFFCURVE",
"429 69 OFFCURVE",
"319 69 CURVE SMOOTH",
"209 69 OFFCURVE",
"141 151 OFFCURVE",
"141 318 CURVE SMOOTH",
"141 368 LINE",
"141 535 OFFCURVE",
"209 617 OFFCURVE",
"319 617 CURVE SMOOTH"
);
},
{
closed = 1;
nodes = (
"437 880 LINE",
"436 883 LINE",
"346 883 LINE",
"260 751 LINE",
"329 751 LINE"
);
}
);
width = 638;
}
);
unicode = 00D3;
},
{
glyphname = Obreve;
lastChange = "2015-02-05 02:37:04 +0000";
layers = (
{
layerId = UUID0;
name = Regular;
paths = (
{
closed = 1;
nodes = (
"151 698 OFFCURVE",
"49 581 OFFCURVE",
"49 343 CURVE SMOOTH",
"49 105 OFFCURVE",
"151 -12 OFFCURVE",
"319 -12 CURVE SMOOTH",
"487 -12 OFFCURVE",
"589 105 OFFCURVE",
"589 343 CURVE SMOOTH",
"589 581 OFFCURVE",
"487 698 OFFCURVE",
"319 698 CURVE SMOOTH"
);
},
{
closed = 1;
nodes = (
"429 617 OFFCURVE",
"497 535 OFFCURVE",
"497 368 CURVE SMOOTH",
"497 318 LINE SMOOTH",
"497 151 OFFCURVE",
"429 69 OFFCURVE",
"319 69 CURVE SMOOTH",
"209 69 OFFCURVE",
"141 151 OFFCURVE",
"141 318 CURVE SMOOTH",
"141 368 LINE",
"141 535 OFFCURVE",
"209 617 OFFCURVE",
"319 617 CURVE SMOOTH"
);
},
{
closed = 1;
nodes = (
"379 883 LINE",
"377 869 OFFCURVE",
"353 850 OFFCURVE",
"319 850 CURVE SMOOTH",
"286 850 OFFCURVE",
"263 869 OFFCURVE",
"260 883 CURVE",
"196 883 LINE",
"196 838 OFFCURVE",
"243 786 OFFCURVE",
"319 786 CURVE SMOOTH",
"396 786 OFFCURVE",
"443 838 OFFCURVE",
"443 883 CURVE"
);
}
);
width = 638;
}
);
unicode = 014E;
},
{
glyphname = Ocircumflex;
lastChange = "2015-02-05 02:37:04 +0000";
layers = (
{
layerId = UUID0;
name = Regular;
paths = (
{
closed = 1;
nodes = (
"151 698 OFFCURVE",
"49 581 OFFCURVE",
"49 343 CURVE SMOOTH",
"49 105 OFFCURVE",
"151 -12 OFFCURVE",
"319 -12 CURVE SMOOTH",
"487 -12 OFFCURVE",
"589 105 OFFCURVE",
"589 343 CURVE SMOOTH",
"589 581 OFFCURVE",
"487 698 OFFCURVE",
"319 698 CURVE SMOOTH"
);
},
{
closed = 1;
nodes = (
"429 617 OFFCURVE",
"497 535 OFFCURVE",
"497 368 CURVE SMOOTH",
"497 318 LINE SMOOTH",
"497 151 OFFCURVE",
"429 69 OFFCURVE",
"319 69 CURVE SMOOTH",
"209 69 OFFCURVE",
"141 151 OFFCURVE",
"141 318 CURVE SMOOTH",
"141 368 LINE",
"141 535 OFFCURVE",
"209 617 OFFCURVE",
"319 617 CURVE SMOOTH"
);
},
{
closed = 1;
nodes = (
"359 882 LINE",
"281 882 LINE",
"195 747 LINE",
"275 747 LINE",
"320 826 LINE",
"364 747 LINE",
"444 747 LINE"
);
}
);
width = 638;
}
);
unicode = 00D4;
},
{
glyphname = Odieresis;
lastChange = "2015-02-05 02:37:04 +0000";
layers = (
{
layerId = UUID0;
name = Regular;
paths = (
{
closed = 1;
nodes = (
"151 698 OFFCURVE",
"49 581 OFFCURVE",
"49 343 CURVE SMOOTH",
"49 105 OFFCURVE",
"151 -12 OFFCURVE",
"319 -12 CURVE SMOOTH",
"487 -12 OFFCURVE",
"589 105 OFFCURVE",
"589 343 CURVE SMOOTH",
"589 581 OFFCURVE",
"487 698 OFFCURVE",
"319 698 CURVE SMOOTH"
);
},
{
closed = 1;
nodes = (
"429 617 OFFCURVE",
"497 535 OFFCURVE",
"497 368 CURVE SMOOTH",
"497 318 LINE SMOOTH",
"497 151 OFFCURVE",
"429 69 OFFCURVE",
"319 69 CURVE SMOOTH",
"209 69 OFFCURVE",
"141 151 OFFCURVE",
"141 318 CURVE SMOOTH",
"141 368 LINE",
"141 535 OFFCURVE",
"209 617 OFFCURVE",
"319 617 CURVE SMOOTH"
);
},
{
closed = 1;
nodes = (
"438 883 LINE",
"351 883 LINE",
"351 788 LINE",
"438 788 LINE"
);
},
{
closed = 1;
nodes = (
"288 883 LINE",
"201 883 LINE",
"201 788 LINE",
"288 788 LINE"
);
}
);
width = 638;
}
);
unicode = 00D6;
},
{
glyphname = Ograve;
lastChange = "2015-02-05 02:37:04 +0000";
layers = (
{
layerId = UUID0;
name = Regular;
paths = (
{
closed = 1;
nodes = (
"151 698 OFFCURVE",
"49 581 OFFCURVE",
"49 343 CURVE SMOOTH",
"49 105 OFFCURVE",
"151 -12 OFFCURVE",
"319 -12 CURVE SMOOTH",
"487 -12 OFFCURVE",
"589 105 OFFCURVE",
"589 343 CURVE SMOOTH",
"589 581 OFFCURVE",
"487 698 OFFCURVE",
"319 698 CURVE SMOOTH"
);
},
{
closed = 1;
nodes = (
"429 617 OFFCURVE",
"497 535 OFFCURVE",
"497 368 CURVE SMOOTH",
"497 318 LINE SMOOTH",
"497 151 OFFCURVE",
"429 69 OFFCURVE",
"319 69 CURVE SMOOTH",
"209 69 OFFCURVE",
"141 151 OFFCURVE",
"141 318 CURVE SMOOTH",
"141 368 LINE",
"141 535 OFFCURVE",
"209 617 OFFCURVE",
"319 617 CURVE SMOOTH"
);
},
{
closed = 1;
nodes = (
"379 751 LINE",
"293 883 LINE",
"203 883 LINE",
"202 880 LINE",
"310 751 LINE"
);
}
);
width = 638;
}
);
unicode = 00D2;
},
{
glyphname = Ohungarumlaut;
lastChange = "2015-02-05 02:37:04 +0000";
layers = (
{
layerId = UUID0;
name = Regular;
paths = (
{
closed = 1;
nodes = (
"151 698 OFFCURVE",
"49 581 OFFCURVE",
"49 343 CURVE SMOOTH",
"49 105 OFFCURVE",
"151 -12 OFFCURVE",
"319 -12 CURVE SMOOTH",
"487 -12 OFFCURVE",
"589 105 OFFCURVE",
"589 343 CURVE SMOOTH",
"589 581 OFFCURVE",
"487 698 OFFCURVE",
"319 698 CURVE SMOOTH"
);
},
{
closed = 1;
nodes = (
"429 617 OFFCURVE",
"497 535 OFFCURVE",
"497 368 CURVE SMOOTH",
"497 318 LINE SMOOTH",
"497 151 OFFCURVE",
"429 69 OFFCURVE",
"319 69 CURVE SMOOTH",
"209 69 OFFCURVE",
"141 151 OFFCURVE",
"141 318 CURVE SMOOTH",
"141 368 LINE",
"141 535 OFFCURVE",
"209 617 OFFCURVE",
"319 617 CURVE SMOOTH"
);
},
{
closed = 1;
nodes = (
"506 883 LINE",
"416 883 LINE",
"354 751 LINE",
"423 751 LINE",
"507 880 LINE"
);
},
{
closed = 1;
nodes = (
"375 883 LINE",
"286 883 LINE",
"224 751 LINE",
"292 751 LINE",
"376 880 LINE"
);
}
);
width = 638;
}
);
unicode = 0150;
},
{
glyphname = Omacron;
lastChange = "2015-02-05 02:37:04 +0000";
layers = (
{
layerId = UUID0;
name = Regular;
paths = (
{
closed = 1;
nodes = (
"151 698 OFFCURVE",
"49 581 OFFCURVE",
"49 343 CURVE SMOOTH",
"49 105 OFFCURVE",
"151 -12 OFFCURVE",
"319 -12 CURVE SMOOTH",
"487 -12 OFFCURVE",
"589 105 OFFCURVE",
"589 343 CURVE SMOOTH",
"589 581 OFFCURVE",
"487 698 OFFCURVE",
"319 698 CURVE SMOOTH"
);
},
{
closed = 1;
nodes = (
"429 617 OFFCURVE",
"497 535 OFFCURVE",
"497 368 CURVE SMOOTH",
"497 318 LINE SMOOTH",
"497 151 OFFCURVE",
"429 69 OFFCURVE",
"319 69 CURVE SMOOTH",
"209 69 OFFCURVE",
"141 151 OFFCURVE",
"141 318 CURVE SMOOTH",
"141 368 LINE",
"141 535 OFFCURVE",
"209 617 OFFCURVE",
"319 617 CURVE SMOOTH"
);
},
{
closed = 1;
nodes = (
"445 831 LINE",
"194 831 LINE",
"194 759 LINE",
"445 759 LINE"
);
}
);
width = 638;
}
);
unicode = 014C;
},
{
glyphname = Oslash;
lastChange = "2015-02-05 02:37:04 +0000";
layers = (
{
anchors = (
{
name = top;
position = "{319, 686}";
}
);
layerId = UUID0;
name = Regular;
paths = (
{
closed = 1;
nodes = (
"589 723 LINE",
"525 723 LINE",
"478 648 LINE",
"436 681 OFFCURVE",
"382 698 OFFCURVE",
"319 698 CURVE SMOOTH",
"151 698 OFFCURVE",
"49 581 OFFCURVE",
"49 343 CURVE SMOOTH",
"49 224 OFFCURVE",
"74 135 OFFCURVE",
"121 76 CURVE",
"50 -37 LINE",
"114 -37 LINE",
"160 37 LINE",
"202 4 OFFCURVE",
"256 -12 OFFCURVE",
"319 -12 CURVE SMOOTH",
"487 -12 OFFCURVE",
"589 105 OFFCURVE",
"589 343 CURVE SMOOTH",
"589 461 OFFCURVE",
"563 550 OFFCURVE",
"517 609 CURVE"
);
},
{
closed = 1;
nodes = (
"466 527 LINE",
"486 487 OFFCURVE",
"497 434 OFFCURVE",
"497 368 CURVE",
"497 318 LINE SMOOTH",
"497 151 OFFCURVE",
"429 69 OFFCURVE",
"319 69 CURVE SMOOTH",
"273 69 OFFCURVE",
"235 83 OFFCURVE",
"206 111 CURVE"
);
},
{
closed = 1;
nodes = (
"364 617 OFFCURVE",
"402 603 OFFCURVE",
"432 574 CURVE",
"172 158 LINE",
"152 198 OFFCURVE",
"141 251 OFFCURVE",
"141 318 CURVE SMOOTH",
"141 368 LINE",
"141 535 OFFCURVE",
"209 617 OFFCURVE",
"319 617 CURVE SMOOTH"
);
}
);
width = 638;
}
);
unicode = 00D8;
},
{
glyphname = Oslashacute;
lastChange = "2015-02-05 02:37:04 +0000";
layers = (
{
layerId = UUID0;
name = Regular;
paths = (
{
closed = 1;
nodes = (
"589 723 LINE",
"525 723 LINE",
"478 648 LINE",
"436 681 OFFCURVE",
"382 698 OFFCURVE",
"319 698 CURVE SMOOTH",
"151 698 OFFCURVE",
"49 581 OFFCURVE",
"49 343 CURVE SMOOTH",
"49 224 OFFCURVE",
"74 135 OFFCURVE",
"121 76 CURVE",
"50 -37 LINE",
"114 -37 LINE",
"160 37 LINE",
"202 4 OFFCURVE",
"256 -12 OFFCURVE",
"319 -12 CURVE SMOOTH",
"487 -12 OFFCURVE",
"589 105 OFFCURVE",
"589 343 CURVE SMOOTH",
"589 461 OFFCURVE",
"563 550 OFFCURVE",
"517 609 CURVE"
);
},
{
closed = 1;
nodes = (
"466 527 LINE",
"486 487 OFFCURVE",
"497 434 OFFCURVE",
"497 368 CURVE",
"497 318 LINE SMOOTH",
"497 151 OFFCURVE",
"429 69 OFFCURVE",
"319 69 CURVE SMOOTH",
"273 69 OFFCURVE",
"235 83 OFFCURVE",
"206 111 CURVE"
);
},
{
closed = 1;
nodes = (
"364 617 OFFCURVE",
"402 603 OFFCURVE",
"432 574 CURVE",
"172 158 LINE",
"152 198 OFFCURVE",
"141 251 OFFCURVE",
"141 318 CURVE SMOOTH",
"141 368 LINE",
"141 535 OFFCURVE",
"209 617 OFFCURVE",
"319 617 CURVE SMOOTH"
);
},
{
closed = 1;
nodes = (
"437 880 LINE",
"436 883 LINE",
"346 883 LINE",
"260 751 LINE",
"329 751 LINE"
);
}
);
width = 638;
}
);
unicode = 01FE;
},
{
glyphname = Otilde;
lastChange = "2015-02-05 02:37:04 +0000";
layers = (
{
layerId = UUID0;
name = Regular;
paths = (
{
closed = 1;
nodes = (
"151 698 OFFCURVE",
"49 581 OFFCURVE",
"49 343 CURVE SMOOTH",
"49 105 OFFCURVE",
"151 -12 OFFCURVE",
"319 -12 CURVE SMOOTH",
"487 -12 OFFCURVE",
"589 105 OFFCURVE",
"589 343 CURVE SMOOTH",
"589 581 OFFCURVE",
"487 698 OFFCURVE",
"319 698 CURVE SMOOTH"
);
},
{
closed = 1;
nodes = (
"429 617 OFFCURVE",
"497 535 OFFCURVE",
"497 368 CURVE SMOOTH",
"497 318 LINE SMOOTH",
"497 151 OFFCURVE",
"429 69 OFFCURVE",
"319 69 CURVE SMOOTH",
"209 69 OFFCURVE",
"141 151 OFFCURVE",
"141 318 CURVE SMOOTH",
"141 368 LINE",
"141 535 OFFCURVE",
"209 617 OFFCURVE",
"319 617 CURVE SMOOTH"
);
},
{
closed = 1;
nodes = (
"407 883 LINE",
"404 860 OFFCURVE",
"391 853 OFFCURVE",
"373 853 CURVE SMOOTH",
"334 853 OFFCURVE",
"301 883 OFFCURVE",
"258 883 CURVE SMOOTH",
"198 883 OFFCURVE",
"173 825 OFFCURVE",
"173 779 CURVE",
"231 779 LINE",
"234 802 OFFCURVE",
"247 810 OFFCURVE",
"265 810 CURVE SMOOTH",
"304 810 OFFCURVE",
"337 779 OFFCURVE",
"380 779 CURVE SMOOTH",
"440 779 OFFCURVE",
"465 837 OFFCURVE",
"465 883 CURVE"
);
}
);
width = 638;
}
);
unicode = 00D5;
},
{
color = (31,255,0,1);
glyphname = OE;
lastChange = "2015-02-05 02:37:04 +0000";
layers = (
{
anchors = (
{
name = top;
position = "{410, 686}";
}
);
background = {
paths = (
{
closed = 1;
nodes = (
"132 698 OFFCURVE",
"49 581 OFFCURVE",
"49 343 CURVE SMOOTH",
"49 105 OFFCURVE",
"132 -12 OFFCURVE",
"273 -12 CURVE SMOOTH",
"337 -12 OFFCURVE",
"388 14 OFFCURVE",
"425 68 CURVE",
"425 0 LINE",
"790 0 LINE",
"776 84 LINE",
"513 84 LINE",
"513 309 LINE",
"743 309 LINE",
"743 393 LINE",
"513 393 LINE",
"513 602 LINE",
"770 602 LINE",
"783 686 LINE",
"425 686 LINE",
"425 618 LINE",
"388 671 OFFCURVE",
"337 698 OFFCURVE",
"273 698 CURVE SMOOTH"
);
},
{
closed = 1;
nodes = (
"371 617 OFFCURVE",
"425 535 OFFCURVE",
"425 368 CURVE SMOOTH",
"425 318 LINE SMOOTH",
"425 151 OFFCURVE",
"371 69 OFFCURVE",
"283 69 CURVE SMOOTH",
"195 69 OFFCURVE",
"141 151 OFFCURVE",
"141 318 CURVE SMOOTH",
"141 368 LINE",
"141 535 OFFCURVE",
"195 617 OFFCURVE",
"283 617 CURVE SMOOTH"
);
}
);
};
layerId = UUID0;
name = Regular;
paths = (
{
closed = 1;
nodes = (
"784 0 LINE",
"784 80 LINE",
"513 80 LINE",
"513 311 LINE",
"733 311 LINE",
"733 391 LINE",
"513 391 LINE",
"513 606 LINE",
"778 606 LINE",
"778 686 LINE",
"425 686 LINE",
"425 618 LINE",
"388 671 OFFCURVE",
"337 698 OFFCURVE",
"273 698 CURVE SMOOTH",
"132 698 OFFCURVE",
"49 581 OFFCURVE",
"49 343 CURVE SMOOTH",
"49 105 OFFCURVE",
"132 -12 OFFCURVE",
"273 -12 CURVE SMOOTH",
"337 -12 OFFCURVE",
"388 14 OFFCURVE",
"425 68 CURVE",
"425 0 LINE"
);
},
{
closed = 1;
nodes = (
"141 368 LINE",
"141 535 OFFCURVE",
"195 617 OFFCURVE",
"283 617 CURVE SMOOTH",
"371 617 OFFCURVE",
"425 535 OFFCURVE",
"425 368 CURVE SMOOTH",
"425 318 LINE SMOOTH",
"425 151 OFFCURVE",
"371 69 OFFCURVE",
"283 69 CURVE SMOOTH",
"195 69 OFFCURVE",
"141 151 OFFCURVE",
"141 318 CURVE SMOOTH"
);
}
);
width = 820;
}
);
unicode = 0152;
},
{
color = (31,255,0,1);
glyphname = P;
lastChange = "2015-02-05 02:37:04 +0000";
layers = (
{
background = {
paths = (
{
closed = 1;
nodes = (
"70 686 LINE",
"70 0 LINE",
"158 0 LINE",
"158 281 LINE",
"315 281 LINE",
"442 281 OFFCURVE",
"520 363 OFFCURVE",
"520 484 CURVE SMOOTH",
"520 603 OFFCURVE",
"450 686 OFFCURVE",
"315 686 CURVE SMOOTH"
);
},
{
closed = 1;
nodes = (
"312 602 LINE",
"387 602 OFFCURVE",
"428 556 OFFCURVE",
"428 484 CURVE SMOOTH",
"428 410 OFFCURVE",
"382 365 OFFCURVE",
"312 365 CURVE SMOOTH",
"158 365 LINE",
"158 602 LINE"
);
}
);
};
layerId = UUID0;
name = Regular;
paths = (
{
closed = 1;
nodes = (
"315 283 LINE",
"442 283 OFFCURVE",
"520 365 OFFCURVE",
"520 486 CURVE SMOOTH",
"520 605 OFFCURVE",
"450 686 OFFCURVE",
"315 686 CURVE SMOOTH",
"70 686 LINE",
"70 0 LINE",
"158 0 LINE",
"158 283 LINE"
);
},
{
closed = 1;
nodes = (
"312 606 LINE",
"387 606 OFFCURVE",
"428 560 OFFCURVE",
"428 486 CURVE SMOOTH",
"428 412 OFFCURVE",
"382 363 OFFCURVE",
"312 363 CURVE SMOOTH",
"158 363 LINE",
"158 606 LINE"
);
}
);
width = 547;
}
);
unicode = 0050;
},
{
color = (31,255,0,1);
glyphname = Thorn;
lastChange = "2015-02-05 02:37:04 +0000";
layers = (
{
background = {
paths = (
{
closed = 1;
nodes = (
"158 686 LINE",
"70 686 LINE",
"70 0 LINE",
"158 0 LINE",
"158 146 LINE",
"315 146 LINE",
"442 146 OFFCURVE",
"520 228 OFFCURVE",
"520 349 CURVE SMOOTH",
"520 468 OFFCURVE",
"450 551 OFFCURVE",
"315 551 CURVE SMOOTH",
"158 551 LINE"
);
},
{
closed = 1;
nodes = (
"312 467 LINE",
"387 467 OFFCURVE",
"428 421 OFFCURVE",
"428 349 CURVE SMOOTH",
"428 275 OFFCURVE",
"382 230 OFFCURVE",
"312 230 CURVE SMOOTH",
"158 230 LINE",
"158 467 LINE"
);
}
);
};
layerId = UUID0;
name = Regular;
paths = (
{
closed = 1;
nodes = (
"158 686 LINE",
"70 686 LINE",
"70 0 LINE",
"158 0 LINE",
"158 147 LINE",
"315 147 LINE SMOOTH",
"442 147 OFFCURVE",
"520 229 OFFCURVE",
"520 350 CURVE SMOOTH",
"520 469 OFFCURVE",
"450 550 OFFCURVE",
"315 550 CURVE SMOOTH",
"158 550 LINE"
);
},
{
closed = 1;
nodes = (
"312 470 LINE",
"387 470 OFFCURVE",
"428 424 OFFCURVE",
"428 350 CURVE SMOOTH",
"428 276 OFFCURVE",
"382 227 OFFCURVE",
"312 227 CURVE SMOOTH",
"158 227 LINE",
"158 470 LINE"
);
}
);
width = 547;
}
);
unicode = 00DE;
},
{
color = (31,255,0,1);
glyphname = Q;
lastChange = "2015-02-05 02:37:04 +0000";
layers = (
{
background = {
paths = (
{
closed = 1;
nodes = (
"151 698 OFFCURVE",
"49 581 OFFCURVE",
"49 343 CURVE SMOOTH",
"49 127 OFFCURVE",
"132 11 OFFCURVE",
"273 -9 CURVE",
"273 -70 OFFCURVE",
"312 -145 OFFCURVE",
"443 -145 CURVE SMOOTH",
"519 -145 OFFCURVE",
"578 -116 OFFCURVE",
"578 -116 CURVE",
"578 -70 LINE",
"452 -70 LINE SMOOTH",
"394 -70 OFFCURVE",
"371 -42 OFFCURVE",
"370 -8 CURVE",
"507 14 OFFCURVE",
"589 130 OFFCURVE",
"589 343 CURVE SMOOTH",
"589 581 OFFCURVE",
"487 698 OFFCURVE",
"319 698 CURVE SMOOTH"
);
},
{
closed = 1;
nodes = (
"429 617 OFFCURVE",
"497 535 OFFCURVE",
"497 368 CURVE SMOOTH",
"497 318 LINE SMOOTH",
"497 151 OFFCURVE",
"429 69 OFFCURVE",
"319 69 CURVE SMOOTH",
"209 69 OFFCURVE",
"141 151 OFFCURVE",
"141 318 CURVE SMOOTH",
"141 368 LINE",
"141 535 OFFCURVE",
"209 617 OFFCURVE",
"319 617 CURVE SMOOTH"
);
}
);
};
layerId = UUID0;
name = Regular;
paths = (
{
closed = 1;
nodes = (
"49 105 OFFCURVE",
"151 -12 OFFCURVE",
"319 -12 CURVE SMOOTH",
"331 -12 LINE",
"450 -124 LINE",
"568 -124 LINE",
"426 7 LINE",
"529 49 OFFCURVE",
"589 161 OFFCURVE",
"589 343 CURVE SMOOTH",
"589 581 OFFCURVE",
"487 698 OFFCURVE",
"319 698 CURVE SMOOTH",
"151 698 OFFCURVE",
"49 581 OFFCURVE",
"49 343 CURVE SMOOTH"
);
},
{
closed = 1;
nodes = (
"141 368 LINE SMOOTH",
"141 535 OFFCURVE",
"209 617 OFFCURVE",
"319 617 CURVE SMOOTH",
"429 617 OFFCURVE",
"497 535 OFFCURVE",
"497 368 CURVE SMOOTH",
"497 318 LINE SMOOTH",
"497 151 OFFCURVE",
"429 69 OFFCURVE",
"319 69 CURVE SMOOTH",
"209 69 OFFCURVE",
"141 151 OFFCURVE",
"141 318 CURVE SMOOTH"
);
}
);
width = 638;
}
);
unicode = 0051;
},
{
color = (31,255,0,1);
glyphname = R;
lastChange = "2015-02-05 02:37:04 +0000";
layers = (
{
anchors = (
{
name = bottom;
position = "{296, 0}";
},
{
name = top;
position = "{296, 686}";
}
);
background = {
paths = (
{
closed = 1;
nodes = (
"65 686 LINE",
"65 0 LINE",
"153 0 LINE",
"153 302 LINE",
"324 302 LINE SMOOTH",
"370 302 OFFCURVE",
"435 264 OFFCURVE",
"435 124 CURVE SMOOTH",
"435 24 OFFCURVE",
"478 -5 OFFCURVE",
"524 -5 CURVE SMOOTH",
"544 -5 OFFCURVE",
"564 -1 OFFCURVE",
"573 3 CURVE",
"573 31 LINE",
"543 43 OFFCURVE",
"525 68 OFFCURVE",
"525 164 CURVE SMOOTH",
"525 296 OFFCURVE",
"448 338 OFFCURVE",
"424 348 CURVE",
"424 352 LINE",
"484 373 OFFCURVE",
"531 430 OFFCURVE",
"531 514 CURVE SMOOTH",
"531 615 OFFCURVE",
"456 686 OFFCURVE",
"354 686 CURVE SMOOTH"
);
},
{
closed = 1;
nodes = (
"334 602 LINE",
"397 602 OFFCURVE",
"439 564 OFFCURVE",
"439 495 CURVE SMOOTH",
"439 433 OFFCURVE",
"395 386 OFFCURVE",
"328 386 CURVE SMOOTH",
"153 386 LINE",
"153 602 LINE"
);
}
);
};
layerId = UUID0;
name = Regular;
paths = (
{
closed = 1;
nodes = (
"551 609 OFFCURVE",
"481 686 OFFCURVE",
"346 686 CURVE SMOOTH",
"70 686 LINE",
"70 0 LINE",
"158 0 LINE",
"158 303 LINE",
"342 303 LINE",
"469 0 LINE",
"567 0 LINE",
"429 319 LINE",
"506 345 OFFCURVE",
"551 411 OFFCURVE",
"551 496 CURVE SMOOTH"
);
},
{
closed = 1;
nodes = (
"343 606 LINE SMOOTH",
"418 606 OFFCURVE",
"459 564 OFFCURVE",
"459 496 CURVE SMOOTH",
"459 428 OFFCURVE",
"413 383 OFFCURVE",
"343 383 CURVE SMOOTH",
"158 383 LINE",
"158 606 LINE"
);
}
);
width = 592;
}
);
unicode = 0052;
},
{
color = (31,255,0,1);
glyphname = Racute;
lastChange = "2015-02-05 02:37:04 +0000";
layers = (
{
background = {
paths = (
{
closed = 1;
nodes = (
"65 686 LINE",
"65 0 LINE",
"153 0 LINE",
"153 302 LINE",
"324 302 LINE SMOOTH",
"370 302 OFFCURVE",
"435 264 OFFCURVE",
"435 124 CURVE SMOOTH",
"435 24 OFFCURVE",
"478 -5 OFFCURVE",
"524 -5 CURVE SMOOTH",
"544 -5 OFFCURVE",
"564 -1 OFFCURVE",
"573 3 CURVE",
"573 31 LINE",
"543 43 OFFCURVE",
"525 68 OFFCURVE",
"525 164 CURVE SMOOTH",
"525 296 OFFCURVE",
"448 338 OFFCURVE",
"424 348 CURVE",
"424 352 LINE",
"484 373 OFFCURVE",
"531 430 OFFCURVE",
"531 514 CURVE SMOOTH",
"531 615 OFFCURVE",
"456 686 OFFCURVE",
"354 686 CURVE SMOOTH"
);
},
{
closed = 1;
nodes = (
"153 602 LINE",
"334 602 LINE SMOOTH",
"397 602 OFFCURVE",
"439 564 OFFCURVE",
"439 495 CURVE SMOOTH",
"439 433 OFFCURVE",
"395 386 OFFCURVE",
"328 386 CURVE SMOOTH",
"153 386 LINE"
);
}
);
};
layerId = UUID0;
name = Regular;
paths = (
{
closed = 1;
nodes = (
"391 880 LINE",
"390 883 LINE",
"300 883 LINE",
"214 751 LINE",
"284 751 LINE"
);
},
{
closed = 1;
nodes = (
"551 609 OFFCURVE",
"481 686 OFFCURVE",
"346 686 CURVE SMOOTH",
"70 686 LINE",
"70 0 LINE",
"158 0 LINE",
"158 303 LINE",
"342 303 LINE",
"469 0 LINE",
"567 0 LINE",
"429 319 LINE",
"506 345 OFFCURVE",
"551 411 OFFCURVE",
"551 496 CURVE SMOOTH"
);
},
{
closed = 1;
nodes = (
"343 606 LINE SMOOTH",
"418 606 OFFCURVE",
"459 564 OFFCURVE",
"459 496 CURVE SMOOTH",
"459 428 OFFCURVE",
"413 383 OFFCURVE",
"343 383 CURVE SMOOTH",
"158 383 LINE",
"158 606 LINE"
);
}
);
width = 592;
}
);
unicode = 0154;
},
{
color = (31,255,0,1);
glyphname = Rcaron;
lastChange = "2015-02-05 02:37:04 +0000";
layers = (
{
background = {
paths = (
{
closed = 1;
nodes = (
"65 686 LINE",
"65 0 LINE",
"153 0 LINE",
"153 302 LINE",
"324 302 LINE SMOOTH",
"370 302 OFFCURVE",
"435 264 OFFCURVE",
"435 124 CURVE SMOOTH",
"435 24 OFFCURVE",
"478 -5 OFFCURVE",
"524 -5 CURVE SMOOTH",
"544 -5 OFFCURVE",
"564 -1 OFFCURVE",
"573 3 CURVE",
"573 31 LINE",
"543 43 OFFCURVE",
"525 68 OFFCURVE",
"525 164 CURVE SMOOTH",
"525 296 OFFCURVE",
"448 338 OFFCURVE",
"424 348 CURVE",
"424 352 LINE",
"484 373 OFFCURVE",
"531 430 OFFCURVE",
"531 514 CURVE SMOOTH",
"531 615 OFFCURVE",
"456 686 OFFCURVE",
"354 686 CURVE SMOOTH"
);
},
{
closed = 1;
nodes = (
"334 602 LINE SMOOTH",
"397 602 OFFCURVE",
"439 564 OFFCURVE",
"439 495 CURVE SMOOTH",
"439 433 OFFCURVE",
"395 386 OFFCURVE",
"328 386 CURVE SMOOTH",
"153 386 LINE",
"153 602 LINE"
);
}
);
};
layerId = UUID0;
name = Regular;
paths = (
{
closed = 1;
nodes = (
"421 883 LINE",
"341 883 LINE",
"296 804 LINE",
"251 883 LINE",
"171 883 LINE",
"256 748 LINE",
"334 748 LINE"
);
},
{
closed = 1;
nodes = (
"551 609 OFFCURVE",
"481 686 OFFCURVE",
"346 686 CURVE SMOOTH",
"70 686 LINE",
"70 0 LINE",
"158 0 LINE",
"158 303 LINE",
"342 303 LINE",
"469 0 LINE",
"567 0 LINE",
"429 319 LINE",
"506 345 OFFCURVE",
"551 411 OFFCURVE",
"551 496 CURVE SMOOTH"
);
},
{
closed = 1;
nodes = (
"343 606 LINE SMOOTH",
"418 606 OFFCURVE",
"459 564 OFFCURVE",
"459 496 CURVE SMOOTH",
"459 428 OFFCURVE",
"413 383 OFFCURVE",
"343 383 CURVE SMOOTH",
"158 383 LINE",
"158 606 LINE"
);
}
);
width = 592;
}
);
unicode = 0158;
},
{
color = (31,255,0,1);
glyphname = Rcommaaccent;
lastChange = "2015-02-05 02:37:04 +0000";
layers = (
{
background = {
paths = (
{
closed = 1;
nodes = (
"65 686 LINE",
"65 0 LINE",
"153 0 LINE",
"153 302 LINE",
"324 302 LINE SMOOTH",
"370 302 OFFCURVE",
"435 264 OFFCURVE",
"435 124 CURVE SMOOTH",
"435 24 OFFCURVE",
"478 -5 OFFCURVE",
"524 -5 CURVE SMOOTH",
"544 -5 OFFCURVE",
"564 -1 OFFCURVE",
"573 3 CURVE",
"573 31 LINE",
"543 43 OFFCURVE",
"525 68 OFFCURVE",
"525 164 CURVE SMOOTH",
"525 296 OFFCURVE",
"448 338 OFFCURVE",
"424 348 CURVE",
"424 352 LINE",
"484 373 OFFCURVE",
"531 430 OFFCURVE",
"531 514 CURVE SMOOTH",
"531 615 OFFCURVE",
"456 686 OFFCURVE",
"354 686 CURVE SMOOTH"
);
},
{
closed = 1;
nodes = (
"334 602 LINE SMOOTH",
"397 602 OFFCURVE",
"439 564 OFFCURVE",
"439 495 CURVE SMOOTH",
"439 433 OFFCURVE",
"395 386 OFFCURVE",
"328 386 CURVE SMOOTH",
"153 386 LINE",
"153 602 LINE"
);
}
);
};
layerId = UUID0;
name = Regular;
paths = (
{
closed = 1;
nodes = (
"339 -60 LINE",
"253 -60 LINE",
"253 -151 LINE",
"288 -151 LINE",
"265 -222 LINE",
"310 -222 LINE",
"339 -144 LINE"
);
},
{
closed = 1;
nodes = (
"551 609 OFFCURVE",
"481 686 OFFCURVE",
"346 686 CURVE SMOOTH",
"70 686 LINE",
"70 0 LINE",
"158 0 LINE",
"158 303 LINE",
"342 303 LINE",
"469 0 LINE",
"567 0 LINE",
"429 319 LINE",
"506 345 OFFCURVE",
"551 411 OFFCURVE",
"551 496 CURVE SMOOTH"
);
},
{
closed = 1;
nodes = (
"343 606 LINE SMOOTH",
"418 606 OFFCURVE",
"459 564 OFFCURVE",
"459 496 CURVE SMOOTH",
"459 428 OFFCURVE",
"413 383 OFFCURVE",
"343 383 CURVE SMOOTH",
"158 383 LINE",
"158 606 LINE"
);
}
);
width = 592;
}
);
unicode = 0156;
},
{
glyphname = S;
lastChange = "2015-02-05 02:37:04 +0000";
layers = (
{
anchors = (
{
name = bottom;
position = "{273, 0}";
},
{
name = top;
position = "{273, 686}";
}
);
layerId = UUID0;
name = Regular;
paths = (
{
closed = 1;
nodes = (
"153 698 OFFCURVE",
"55 640 OFFCURVE",
"55 514 CURVE SMOOTH",
"55 266 OFFCURVE",
"412 356 OFFCURVE",
"412 183 CURVE SMOOTH",
"412 109 OFFCURVE",
"360 69 OFFCURVE",
"268 69 CURVE SMOOTH",
"190 69 OFFCURVE",
"132 109 OFFCURVE",
"132 193 CURVE SMOOTH",
"132 199 OFFCURVE",
"133 213 OFFCURVE",
"133 214 CURVE",
"42 214 LINE",
"42 211 OFFCURVE",
"41 201 OFFCURVE",
"41 194 CURVE SMOOTH",
"41 43 OFFCURVE",
"147 -12 OFFCURVE",
"272 -12 CURVE SMOOTH",
"405 -12 OFFCURVE",
"504 44 OFFCURVE",
"504 198 CURVE SMOOTH",
"504 439 OFFCURVE",
"148 357 OFFCURVE",
"148 521 CURVE SMOOTH",
"148 587 OFFCURVE",
"203 617 OFFCURVE",
"275 617 CURVE SMOOTH",
"344 617 OFFCURVE",
"397 578 OFFCURVE",
"397 508 CURVE SMOOTH",
"397 493 LINE",
"488 493 LINE",
"488 505 LINE SMOOTH",
"488 642 OFFCURVE",
"392 698 OFFCURVE",
"273 698 CURVE SMOOTH"
);
}
);
width = 547;
}
);
unicode = 0053;
},
{
glyphname = Sacute;
lastChange = "2015-02-05 02:37:04 +0000";
layers = (
{
layerId = UUID0;
name = Regular;
paths = (
{
closed = 1;
nodes = (
"153 698 OFFCURVE",
"55 640 OFFCURVE",
"55 514 CURVE SMOOTH",
"55 266 OFFCURVE",
"412 356 OFFCURVE",
"412 183 CURVE SMOOTH",
"412 109 OFFCURVE",
"360 69 OFFCURVE",
"268 69 CURVE SMOOTH",
"190 69 OFFCURVE",
"132 109 OFFCURVE",
"132 193 CURVE SMOOTH",
"132 199 OFFCURVE",
"133 213 OFFCURVE",
"133 214 CURVE",
"42 214 LINE",
"42 211 OFFCURVE",
"41 201 OFFCURVE",
"41 194 CURVE SMOOTH",
"41 43 OFFCURVE",
"147 -12 OFFCURVE",
"272 -12 CURVE SMOOTH",
"405 -12 OFFCURVE",
"504 44 OFFCURVE",
"504 198 CURVE SMOOTH",
"504 439 OFFCURVE",
"148 357 OFFCURVE",
"148 521 CURVE SMOOTH",
"148 587 OFFCURVE",
"203 617 OFFCURVE",
"275 617 CURVE SMOOTH",
"344 617 OFFCURVE",
"397 578 OFFCURVE",
"397 508 CURVE SMOOTH",
"397 493 LINE",
"488 493 LINE",
"488 505 LINE SMOOTH",
"488 642 OFFCURVE",
"392 698 OFFCURVE",
"273 698 CURVE SMOOTH"
);
},
{
closed = 1;
nodes = (
"391 880 LINE",
"390 883 LINE",
"300 883 LINE",
"214 751 LINE",
"283 751 LINE"
);
}
);
width = 547;
}
);
unicode = 015A;
},
{
glyphname = Scaron;
lastChange = "2015-02-05 02:37:04 +0000";
layers = (
{
layerId = UUID0;
name = Regular;
paths = (
{
closed = 1;
nodes = (
"153 698 OFFCURVE",
"55 640 OFFCURVE",
"55 514 CURVE SMOOTH",
"55 266 OFFCURVE",
"412 356 OFFCURVE",
"412 183 CURVE SMOOTH",
"412 109 OFFCURVE",
"360 69 OFFCURVE",
"268 69 CURVE SMOOTH",
"190 69 OFFCURVE",
"132 109 OFFCURVE",
"132 193 CURVE SMOOTH",
"132 199 OFFCURVE",
"133 213 OFFCURVE",
"133 214 CURVE",
"42 214 LINE",
"42 211 OFFCURVE",
"41 201 OFFCURVE",
"41 194 CURVE SMOOTH",
"41 43 OFFCURVE",
"147 -12 OFFCURVE",
"272 -12 CURVE SMOOTH",
"405 -12 OFFCURVE",
"504 44 OFFCURVE",
"504 198 CURVE SMOOTH",
"504 439 OFFCURVE",
"148 357 OFFCURVE",
"148 521 CURVE SMOOTH",
"148 587 OFFCURVE",
"203 617 OFFCURVE",
"275 617 CURVE SMOOTH",
"344 617 OFFCURVE",
"397 578 OFFCURVE",
"397 508 CURVE SMOOTH",
"397 493 LINE",
"488 493 LINE",
"488 505 LINE SMOOTH",
"488 642 OFFCURVE",
"392 698 OFFCURVE",
"273 698 CURVE SMOOTH"
);
},
{
closed = 1;
nodes = (
"398 883 LINE",
"318 883 LINE",
"273 804 LINE",
"229 883 LINE",
"149 883 LINE",
"234 748 LINE",
"312 748 LINE"
);
}
);
width = 547;
}
);
unicode = 0160;
},
{
glyphname = Scedilla;
lastChange = "2015-02-05 02:37:04 +0000";
layers = (
{
layerId = UUID0;
name = Regular;
paths = (
{
closed = 1;
nodes = (
"153 698 OFFCURVE",
"55 640 OFFCURVE",
"55 514 CURVE SMOOTH",
"55 266 OFFCURVE",
"412 356 OFFCURVE",
"412 183 CURVE SMOOTH",
"412 109 OFFCURVE",
"360 69 OFFCURVE",
"268 69 CURVE SMOOTH",
"190 69 OFFCURVE",
"132 109 OFFCURVE",
"132 193 CURVE SMOOTH",
"132 199 OFFCURVE",
"133 213 OFFCURVE",
"133 214 CURVE",
"42 214 LINE",
"42 211 OFFCURVE",
"41 201 OFFCURVE",
"41 194 CURVE SMOOTH",
"41 58 OFFCURVE",
"126 0 OFFCURVE",
"235 -10 CURVE",
"225 -77 LINE",
"258 -77 LINE SMOOTH",
"284 -77 OFFCURVE",
"292 -85 OFFCURVE",
"292 -101 CURVE SMOOTH",
"292 -120 OFFCURVE",
"278 -125 OFFCURVE",
"256 -125 CURVE SMOOTH",
"180 -125 LINE",
"180 -174 LINE",
"204 -179 OFFCURVE",
"235 -182 OFFCURVE",
"264 -182 CURVE SMOOTH",
"304 -182 OFFCURVE",
"368 -168 OFFCURVE",
"368 -101 CURVE SMOOTH",
"368 -55 OFFCURVE",
"330 -39 OFFCURVE",
"287 -36 CURVE",
"290 -11 LINE",
"414 -6 OFFCURVE",
"504 51 OFFCURVE",
"504 198 CURVE SMOOTH",
"504 439 OFFCURVE",
"148 357 OFFCURVE",
"148 521 CURVE SMOOTH",
"148 587 OFFCURVE",
"203 617 OFFCURVE",
"275 617 CURVE SMOOTH",
"344 617 OFFCURVE",
"397 578 OFFCURVE",
"397 508 CURVE SMOOTH",
"397 493 LINE",
"488 493 LINE",
"488 505 LINE SMOOTH",
"488 642 OFFCURVE",
"392 698 OFFCURVE",
"273 698 CURVE SMOOTH"
);
}
);
width = 547;
}
);
unicode = 015E;
},
{
glyphname = Scircumflex;
lastChange = "2015-02-05 02:37:04 +0000";
layers = (
{
layerId = UUID0;
name = Regular;
paths = (
{
closed = 1;
nodes = (
"153 698 OFFCURVE",
"55 640 OFFCURVE",
"55 514 CURVE SMOOTH",
"55 266 OFFCURVE",
"412 356 OFFCURVE",
"412 183 CURVE SMOOTH",
"412 109 OFFCURVE",
"360 69 OFFCURVE",
"268 69 CURVE SMOOTH",
"190 69 OFFCURVE",
"132 109 OFFCURVE",
"132 193 CURVE SMOOTH",
"132 199 OFFCURVE",
"133 213 OFFCURVE",
"133 214 CURVE",
"42 214 LINE",
"42 211 OFFCURVE",
"41 201 OFFCURVE",
"41 194 CURVE SMOOTH",
"41 43 OFFCURVE",
"147 -12 OFFCURVE",
"272 -12 CURVE SMOOTH",
"405 -12 OFFCURVE",
"504 44 OFFCURVE",
"504 198 CURVE SMOOTH",
"504 439 OFFCURVE",
"148 357 OFFCURVE",
"148 521 CURVE SMOOTH",
"148 587 OFFCURVE",
"203 617 OFFCURVE",
"275 617 CURVE SMOOTH",
"344 617 OFFCURVE",
"397 578 OFFCURVE",
"397 508 CURVE SMOOTH",
"397 493 LINE",
"488 493 LINE",
"488 505 LINE SMOOTH",
"488 642 OFFCURVE",
"392 698 OFFCURVE",
"273 698 CURVE SMOOTH"
);
},
{
closed = 1;
nodes = (
"313 882 LINE",
"235 882 LINE",
"149 747 LINE",
"229 747 LINE",
"274 826 LINE",
"318 747 LINE",
"398 747 LINE"
);
}
);
width = 547;
}
);
unicode = 015C;
},
{
color = (31,255,0,1);
glyphname = T;
lastChange = "2015-02-05 02:37:04 +0000";
layers = (
{
anchors = (
{
name = bottom;
position = "{250, 0}";
},
{
name = center;
position = "{250, 343}";
},
{
name = top;
position = "{250, 686}";
}
);
background = {
paths = (
{
closed = 1;
nodes = (
"481 686 LINE",
"19 686 LINE",
"19 602 LINE",
"206 602 LINE",
"206 0 LINE",
"294 0 LINE",
"294 602 LINE",
"481 602 LINE"
);
}
);
};
layerId = UUID0;
name = Regular;
paths = (
{
closed = 1;
nodes = (
"19 606 LINE",
"206 606 LINE",
"206 0 LINE",
"294 0 LINE",
"294 606 LINE",
"481 606 LINE",
"481 686 LINE",
"19 686 LINE"
);
}
);
width = 501;
}
);
unicode = 0054;
},
{
color = (31,255,0,1);
glyphname = Tbar;
lastChange = "2015-02-05 02:37:04 +0000";
layers = (
{
background = {
paths = (
{
closed = 1;
nodes = (
"19 606 LINE",
"206 606 LINE",
"206 0 LINE",
"294 0 LINE",
"294 606 LINE",
"481 606 LINE",
"481 686 LINE",
"19 686 LINE"
);
}
);
};
layerId = UUID0;
name = Regular;
paths = (
{
closed = 1;
nodes = (
"481 686 LINE",
"19 686 LINE",
"19 606 LINE",
"206 606 LINE",
"206 393 LINE",
"77 393 LINE",
"77 320 LINE",
"206 320 LINE",
"206 0 LINE",
"294 0 LINE",
"294 320 LINE",
"425 320 LINE",
"425 393 LINE",
"294 393 LINE",
"294 606 LINE",
"481 606 LINE"
);
}
);
width = 501;
}
);
unicode = 0166;
},
{
color = (31,255,0,1);
glyphname = Tcaron;
lastChange = "2015-02-05 02:37:04 +0000";
layers = (
{
background = {
paths = (
{
closed = 1;
nodes = (
"481 686 LINE",
"19 686 LINE",
"19 602 LINE",
"206 602 LINE",
"206 0 LINE",
"294 0 LINE",
"294 602 LINE",
"481 602 LINE"
);
}
);
};
layerId = UUID0;
name = Regular;
paths = (
{
closed = 1;
nodes = (
"375 883 LINE",
"295 883 LINE",
"250 804 LINE",
"206 883 LINE",
"126 883 LINE",
"211 748 LINE",
"289 748 LINE"
);
},
{
closed = 1;
nodes = (
"19 606 LINE",
"206 606 LINE",
"206 0 LINE",
"294 0 LINE",
"294 606 LINE",
"481 606 LINE",
"481 686 LINE",
"19 686 LINE"
);
}
);
width = 501;
}
);
unicode = 0164;
},
{
color = (31,255,0,1);
glyphname = Tcommaaccent;
lastChange = "2015-02-05 02:37:04 +0000";
layers = (
{
background = {
paths = (
{
closed = 1;
nodes = (
"481 686 LINE",
"19 686 LINE",
"19 602 LINE",
"206 602 LINE",
"206 0 LINE",
"294 0 LINE",
"294 602 LINE",
"481 602 LINE"
);
}
);
};
layerId = UUID0;
name = Regular;
paths = (
{
closed = 1;
nodes = (
"293 -60 LINE",
"208 -60 LINE",
"208 -151 LINE",
"242 -151 LINE",
"220 -222 LINE",
"264 -222 LINE",
"293 -144 LINE"
);
},
{
closed = 1;
nodes = (
"19 606 LINE",
"206 606 LINE",
"206 0 LINE",
"294 0 LINE",
"294 606 LINE",
"481 606 LINE",
"481 686 LINE",
"19 686 LINE"
);
}
);
width = 501;
}
);
unicode = 0162;
},
{
glyphname = U;
lastChange = "2015-02-05 02:37:04 +0000";
layers = (
{
anchors = (
{
name = ogonek;
position = "{398, 5}";
},
{
name = top;
position = "{296, 686}";
}
);
layerId = UUID0;
name = Regular;
paths = (
{
closed = 1;
nodes = (
"522 686 LINE",
"434 686 LINE",
"434 218 LINE SMOOTH",
"434 121 OFFCURVE",
"382 69 OFFCURVE",
"296 69 CURVE SMOOTH",
"210 69 OFFCURVE",
"158 121 OFFCURVE",
"158 218 CURVE SMOOTH",
"158 686 LINE",
"70 686 LINE",
"70 223 LINE",
"70 69 OFFCURVE",
"155 -12 OFFCURVE",
"296 -12 CURVE SMOOTH",
"437 -12 OFFCURVE",
"522 69 OFFCURVE",
"522 223 CURVE SMOOTH"
);
}
);
width = 592;
}
);
unicode = 0055;
},
{
glyphname = Uacute;
lastChange = "2015-02-05 02:37:04 +0000";
layers = (
{
layerId = UUID0;
name = Regular;
paths = (
{
closed = 1;
nodes = (
"522 686 LINE",
"434 686 LINE",
"434 218 LINE SMOOTH",
"434 121 OFFCURVE",
"382 69 OFFCURVE",
"296 69 CURVE SMOOTH",
"210 69 OFFCURVE",
"158 121 OFFCURVE",
"158 218 CURVE SMOOTH",
"158 686 LINE",
"70 686 LINE",
"70 223 LINE",
"70 69 OFFCURVE",
"155 -12 OFFCURVE",
"296 -12 CURVE SMOOTH",
"437 -12 OFFCURVE",
"522 69 OFFCURVE",
"522 223 CURVE SMOOTH"
);
},
{
closed = 1;
nodes = (
"413 880 LINE",
"412 883 LINE",
"322 883 LINE",
"236 751 LINE",
"306 751 LINE"
);
}
);
width = 592;
}
);
unicode = 00DA;
},
{
glyphname = Ubreve;
lastChange = "2015-02-05 02:37:04 +0000";
layers = (
{
layerId = UUID0;
name = Regular;
paths = (
{
closed = 1;
nodes = (
"522 686 LINE",
"434 686 LINE",
"434 218 LINE SMOOTH",
"434 121 OFFCURVE",
"382 69 OFFCURVE",
"296 69 CURVE SMOOTH",
"210 69 OFFCURVE",
"158 121 OFFCURVE",
"158 218 CURVE SMOOTH",
"158 686 LINE",
"70 686 LINE",
"70 223 LINE",
"70 69 OFFCURVE",
"155 -12 OFFCURVE",
"296 -12 CURVE SMOOTH",
"437 -12 OFFCURVE",
"522 69 OFFCURVE",
"522 223 CURVE SMOOTH"
);
},
{
closed = 1;
nodes = (
"356 883 LINE",
"354 869 OFFCURVE",
"330 850 OFFCURVE",
"296 850 CURVE SMOOTH",
"262 850 OFFCURVE",
"240 869 OFFCURVE",
"237 883 CURVE",
"172 883 LINE",
"172 838 OFFCURVE",
"220 786 OFFCURVE",
"296 786 CURVE SMOOTH",
"373 786 OFFCURVE",
"420 838 OFFCURVE",
"420 883 CURVE"
);
}
);
width = 592;
}
);
unicode = 016C;
},
{
glyphname = Ucircumflex;
lastChange = "2015-02-05 02:37:04 +0000";
layers = (
{
layerId = UUID0;
name = Regular;
paths = (
{
closed = 1;
nodes = (
"522 686 LINE",
"434 686 LINE",
"434 218 LINE SMOOTH",
"434 121 OFFCURVE",
"382 69 OFFCURVE",
"296 69 CURVE SMOOTH",
"210 69 OFFCURVE",
"158 121 OFFCURVE",
"158 218 CURVE SMOOTH",
"158 686 LINE",
"70 686 LINE",
"70 223 LINE",
"70 69 OFFCURVE",
"155 -12 OFFCURVE",
"296 -12 CURVE SMOOTH",
"437 -12 OFFCURVE",
"522 69 OFFCURVE",
"522 223 CURVE SMOOTH"
);
},
{
closed = 1;
nodes = (
"335 882 LINE",
"257 882 LINE",
"171 747 LINE",
"251 747 LINE",
"297 826 LINE",
"341 747 LINE",
"421 747 LINE"
);
}
);
width = 592;
}
);
unicode = 00DB;
},
{
glyphname = Udieresis;
lastChange = "2015-02-05 02:37:04 +0000";
layers = (
{
layerId = UUID0;
name = Regular;
paths = (
{
closed = 1;
nodes = (
"522 686 LINE",
"434 686 LINE",
"434 218 LINE SMOOTH",
"434 121 OFFCURVE",
"382 69 OFFCURVE",
"296 69 CURVE SMOOTH",
"210 69 OFFCURVE",
"158 121 OFFCURVE",
"158 218 CURVE SMOOTH",
"158 686 LINE",
"70 686 LINE",
"70 223 LINE",
"70 69 OFFCURVE",
"155 -12 OFFCURVE",
"296 -12 CURVE SMOOTH",
"437 -12 OFFCURVE",
"522 69 OFFCURVE",
"522 223 CURVE SMOOTH"
);
},
{
closed = 1;
nodes = (
"415 883 LINE",
"327 883 LINE",
"327 788 LINE",
"415 788 LINE"
);
},
{
closed = 1;
nodes = (
"264 883 LINE",
"177 883 LINE",
"177 788 LINE",
"264 788 LINE"
);
}
);
width = 592;
}
);
unicode = 00DC;
},
{
glyphname = Ugrave;
lastChange = "2015-02-05 02:37:04 +0000";
layers = (
{
layerId = UUID0;
name = Regular;
paths = (
{
closed = 1;
nodes = (
"522 686 LINE",
"434 686 LINE",
"434 218 LINE SMOOTH",
"434 121 OFFCURVE",
"382 69 OFFCURVE",
"296 69 CURVE SMOOTH",
"210 69 OFFCURVE",
"158 121 OFFCURVE",
"158 218 CURVE SMOOTH",
"158 686 LINE",
"70 686 LINE",
"70 223 LINE",
"70 69 OFFCURVE",
"155 -12 OFFCURVE",
"296 -12 CURVE SMOOTH",
"437 -12 OFFCURVE",
"522 69 OFFCURVE",
"522 223 CURVE SMOOTH"
);
},
{
closed = 1;
nodes = (
"355 751 LINE",
"270 883 LINE",
"179 883 LINE",
"178 880 LINE",
"287 751 LINE"
);
}
);
width = 592;
}
);
unicode = 00D9;
},
{
glyphname = Uhungarumlaut;
lastChange = "2015-02-05 02:37:04 +0000";
layers = (
{
layerId = UUID0;
name = Regular;
paths = (
{
closed = 1;
nodes = (
"522 686 LINE",
"434 686 LINE",
"434 218 LINE SMOOTH",
"434 121 OFFCURVE",
"382 69 OFFCURVE",
"296 69 CURVE SMOOTH",
"210 69 OFFCURVE",
"158 121 OFFCURVE",
"158 218 CURVE SMOOTH",
"158 686 LINE",
"70 686 LINE",
"70 223 LINE",
"70 69 OFFCURVE",
"155 -12 OFFCURVE",
"296 -12 CURVE SMOOTH",
"437 -12 OFFCURVE",
"522 69 OFFCURVE",
"522 223 CURVE SMOOTH"
);
},
{
closed = 1;
nodes = (
"482 883 LINE",
"393 883 LINE",
"331 751 LINE",
"399 751 LINE",
"483 880 LINE"
);
},
{
closed = 1;
nodes = (
"352 883 LINE",
"262 883 LINE",
"200 751 LINE",
"269 751 LINE",
"353 880 LINE"
);
}
);
width = 592;
}
);
unicode = 0170;
},
{
glyphname = Umacron;
lastChange = "2015-02-05 02:37:04 +0000";
layers = (
{
layerId = UUID0;
name = Regular;
paths = (
{
closed = 1;
nodes = (
"522 686 LINE",
"434 686 LINE",
"434 218 LINE SMOOTH",
"434 121 OFFCURVE",
"382 69 OFFCURVE",
"296 69 CURVE SMOOTH",
"210 69 OFFCURVE",
"158 121 OFFCURVE",
"158 218 CURVE SMOOTH",
"158 686 LINE",
"70 686 LINE",
"70 223 LINE",
"70 69 OFFCURVE",
"155 -12 OFFCURVE",
"296 -12 CURVE SMOOTH",
"437 -12 OFFCURVE",
"522 69 OFFCURVE",
"522 223 CURVE SMOOTH"
);
},
{
closed = 1;
nodes = (
"421 831 LINE",
"171 831 LINE",
"171 759 LINE",
"421 759 LINE"
);
}
);
width = 592;
}
);
unicode = 016A;
},
{
glyphname = Uogonek;
lastChange = "2015-02-05 02:37:04 +0000";
layers = (
{
layerId = UUID0;
name = Regular;
paths = (
{
closed = 1;
nodes = (
"522 686 LINE",
"434 686 LINE",
"434 218 LINE SMOOTH",
"434 121 OFFCURVE",
"382 69 OFFCURVE",
"296 69 CURVE SMOOTH",
"210 69 OFFCURVE",
"158 121 OFFCURVE",
"158 218 CURVE SMOOTH",
"158 686 LINE",
"70 686 LINE",
"70 223 LINE SMOOTH",
"70 69 OFFCURVE",
"155 -12 OFFCURVE",
"296 -12 CURVE SMOOTH",
"304 -12 OFFCURVE",
"312 -11 OFFCURVE",
"319 -11 CURVE",
"303 -32 OFFCURVE",
"292 -57 OFFCURVE",
"292 -92 CURVE SMOOTH",
"292 -161 OFFCURVE",
"343 -182 OFFCURVE",
"386 -182 CURVE SMOOTH",
"406 -182 OFFCURVE",
"426 -177 OFFCURVE",
"447 -168 CURVE",
"447 -117 LINE",
"416 -117 LINE SMOOTH",
"382 -117 OFFCURVE",
"370 -90 OFFCURVE",
"370 -62 CURVE SMOOTH",
"370 -35 OFFCURVE",
"385 -9 OFFCURVE",
"397 5 CURVE",
"476 37 OFFCURVE",
"522 110 OFFCURVE",
"522 223 CURVE SMOOTH"
);
}
);
width = 592;
}
);
unicode = 0172;
},
{
glyphname = Uring;
lastChange = "2015-02-05 02:37:04 +0000";
layers = (
{
layerId = UUID0;
name = Regular;
paths = (
{
closed = 1;
nodes = (
"522 686 LINE",
"434 686 LINE",
"434 218 LINE SMOOTH",
"434 121 OFFCURVE",
"382 69 OFFCURVE",
"296 69 CURVE SMOOTH",
"210 69 OFFCURVE",
"158 121 OFFCURVE",
"158 218 CURVE SMOOTH",
"158 686 LINE",
"70 686 LINE",
"70 223 LINE",
"70 69 OFFCURVE",
"155 -12 OFFCURVE",
"296 -12 CURVE SMOOTH",
"437 -12 OFFCURVE",
"522 69 OFFCURVE",
"522 223 CURVE SMOOTH"
);
},
{
closed = 1;
nodes = (
"243 915 OFFCURVE",
"200 872 OFFCURVE",
"200 819 CURVE SMOOTH",
"200 765 OFFCURVE",
"244 723 OFFCURVE",
"296 723 CURVE SMOOTH",
"349 723 OFFCURVE",
"392 766 OFFCURVE",
"392 819 CURVE SMOOTH",
"392 871 OFFCURVE",
"350 915 OFFCURVE",
"296 915 CURVE SMOOTH"
);
},
{
closed = 1;
nodes = (
"323 870 OFFCURVE",
"347 847 OFFCURVE",
"347 819 CURVE SMOOTH",
"347 791 OFFCURVE",
"323 768 OFFCURVE",
"296 768 CURVE SMOOTH",
"268 768 OFFCURVE",
"245 791 OFFCURVE",
"245 819 CURVE SMOOTH",
"245 847 OFFCURVE",
"268 870 OFFCURVE",
"296 870 CURVE SMOOTH"
);
}
);
width = 592;
}
);
unicode = 016E;
},
{
glyphname = Utilde;
lastChange = "2015-02-05 02:37:04 +0000";
layers = (
{
layerId = UUID0;
name = Regular;
paths = (
{
closed = 1;
nodes = (
"522 686 LINE",
"434 686 LINE",
"434 218 LINE SMOOTH",
"434 121 OFFCURVE",
"382 69 OFFCURVE",
"296 69 CURVE SMOOTH",
"210 69 OFFCURVE",
"158 121 OFFCURVE",
"158 218 CURVE SMOOTH",
"158 686 LINE",
"70 686 LINE",
"70 223 LINE",
"70 69 OFFCURVE",
"155 -12 OFFCURVE",
"296 -12 CURVE SMOOTH",
"437 -12 OFFCURVE",
"522 69 OFFCURVE",
"522 223 CURVE SMOOTH"
);
},
{
closed = 1;
nodes = (
"384 883 LINE",
"381 860 OFFCURVE",
"368 853 OFFCURVE",
"350 853 CURVE SMOOTH",
"311 853 OFFCURVE",
"278 883 OFFCURVE",
"235 883 CURVE SMOOTH",
"175 883 OFFCURVE",
"150 825 OFFCURVE",
"150 779 CURVE",
"208 779 LINE",
"211 802 OFFCURVE",
"224 810 OFFCURVE",
"242 810 CURVE SMOOTH",
"281 810 OFFCURVE",
"313 779 OFFCURVE",
"357 779 CURVE SMOOTH",
"417 779 OFFCURVE",
"442 837 OFFCURVE",
"442 883 CURVE"
);
}
);
width = 592;
}
);
unicode = 0168;
},
{
glyphname = V;
lastChange = "2015-02-05 02:37:04 +0000";
layers = (
{
layerId = UUID0;
name = Regular;
paths = (
{
closed = 1;
nodes = (
"539 686 LINE",
"454 686 LINE",
"279 97 LINE",
"275 97 LINE",
"105 686 LINE",
"8 686 LINE",
"217 0 LINE",
"330 0 LINE"
);
}
);
width = 547;
}
);
unicode = 0056;
},
{
glyphname = W;
lastChange = "2015-02-05 02:37:04 +0000";
layers = (
{
anchors = (
{
name = top;
position = "{387, 686}";
}
);
layerId = UUID0;
name = Regular;
paths = (
{
closed = 1;
nodes = (
"764 686 LINE",
"684 686 LINE",
"579 212 LINE SMOOTH",
"569 167 OFFCURVE",
"558 90 OFFCURVE",
"558 90 CURVE",
"554 90 LINE",
"554 90 OFFCURVE",
"545 162 OFFCURVE",
"536 212 CURVE SMOOTH",
"451 686 LINE",
"329 686 LINE",
"250 212 LINE SMOOTH",
"240 152 OFFCURVE",
"233 90 OFFCURVE",
"233 90 CURVE",
"229 90 LINE",
"229 90 OFFCURVE",
"217 172 OFFCURVE",
"208 212 CURVE SMOOTH",
"103 686 LINE",
"10 686 LINE",
"169 0 LINE",
"283 0 LINE",
"365 465 LINE SMOOTH",
"373 511 OFFCURVE",
"384 603 OFFCURVE",
"384 603 CURVE",
"388 603 LINE",
"388 603 OFFCURVE",
"399 511 OFFCURVE",
"407 465 CURVE SMOOTH",
"491 0 LINE",
"605 0 LINE"
);
}
);
width = 774;
}
);
unicode = 0057;
},
{
glyphname = Wacute;
lastChange = "2015-02-05 02:37:04 +0000";
layers = (
{
layerId = UUID0;
name = Regular;
paths = (
{
closed = 1;
nodes = (
"605 0 LINE",
"764 686 LINE",
"684 686 LINE",
"579 212 LINE SMOOTH",
"569 167 OFFCURVE",
"558 90 OFFCURVE",
"558 90 CURVE",
"554 90 LINE",
"554 90 OFFCURVE",
"545 162 OFFCURVE",
"536 212 CURVE SMOOTH",
"451 686 LINE",
"329 686 LINE",
"250 212 LINE SMOOTH",
"240 152 OFFCURVE",
"233 90 OFFCURVE",
"233 90 CURVE",
"229 90 LINE",
"229 90 OFFCURVE",
"217 172 OFFCURVE",
"208 212 CURVE SMOOTH",
"103 686 LINE",
"10 686 LINE",
"169 0 LINE",
"283 0 LINE",
"365 465 LINE SMOOTH",
"373 511 OFFCURVE",
"384 603 OFFCURVE",
"384 603 CURVE",
"388 603 LINE",
"388 603 OFFCURVE",
"399 511 OFFCURVE",
"407 465 CURVE SMOOTH",
"491 0 LINE"
);
},
{
closed = 1;
nodes = (
"504 880 LINE",
"503 883 LINE",
"414 883 LINE",
"328 751 LINE",
"397 751 LINE"
);
}
);
width = 774;
}
);
unicode = 1E82;
},
{
glyphname = Wcircumflex;
lastChange = "2015-02-05 02:37:04 +0000";
layers = (
{
layerId = UUID0;
name = Regular;
paths = (
{
closed = 1;
nodes = (
"764 686 LINE",
"684 686 LINE",
"579 212 LINE SMOOTH",
"569 167 OFFCURVE",
"558 90 OFFCURVE",
"558 90 CURVE",
"554 90 LINE",
"554 90 OFFCURVE",
"545 162 OFFCURVE",
"536 212 CURVE SMOOTH",
"451 686 LINE",
"329 686 LINE",
"250 212 LINE SMOOTH",
"240 152 OFFCURVE",
"233 90 OFFCURVE",
"233 90 CURVE",
"229 90 LINE",
"229 90 OFFCURVE",
"217 172 OFFCURVE",
"208 212 CURVE SMOOTH",
"103 686 LINE",
"10 686 LINE",
"169 0 LINE",
"283 0 LINE",
"365 465 LINE SMOOTH",
"373 511 OFFCURVE",
"384 603 OFFCURVE",
"384 603 CURVE",
"388 603 LINE",
"388 603 OFFCURVE",
"399 511 OFFCURVE",
"407 465 CURVE SMOOTH",
"491 0 LINE",
"605 0 LINE"
);
},
{
closed = 1;
nodes = (
"427 882 LINE",
"349 882 LINE",
"263 747 LINE",
"343 747 LINE",
"388 826 LINE",
"432 747 LINE",
"512 747 LINE"
);
}
);
width = 774;
}
);
unicode = 0174;
},
{
glyphname = Wdieresis;
lastChange = "2015-02-05 02:37:04 +0000";
layers = (
{
layerId = UUID0;
name = Regular;
paths = (
{
closed = 1;
nodes = (
"764 686 LINE",
"684 686 LINE",
"579 212 LINE SMOOTH",
"569 167 OFFCURVE",
"558 90 OFFCURVE",
"558 90 CURVE",
"554 90 LINE",
"554 90 OFFCURVE",
"545 162 OFFCURVE",
"536 212 CURVE SMOOTH",
"451 686 LINE",
"329 686 LINE",
"250 212 LINE SMOOTH",
"240 152 OFFCURVE",
"233 90 OFFCURVE",
"233 90 CURVE",
"229 90 LINE",
"229 90 OFFCURVE",
"217 172 OFFCURVE",
"208 212 CURVE SMOOTH",
"103 686 LINE",
"10 686 LINE",
"169 0 LINE",
"283 0 LINE",
"365 465 LINE SMOOTH",
"373 511 OFFCURVE",
"384 603 OFFCURVE",
"384 603 CURVE",
"388 603 LINE",
"388 603 OFFCURVE",
"399 511 OFFCURVE",
"407 465 CURVE SMOOTH",
"491 0 LINE",
"605 0 LINE"
);
},
{
closed = 1;
nodes = (
"506 883 LINE",
"418 883 LINE",
"418 788 LINE",
"506 788 LINE"
);
},
{
closed = 1;
nodes = (
"355 883 LINE",
"269 883 LINE",
"269 788 LINE",
"355 788 LINE"
);
}
);
width = 774;
}
);
unicode = 1E84;
},
{
glyphname = Wgrave;
lastChange = "2015-02-05 02:37:04 +0000";
layers = (
{
layerId = UUID0;
name = Regular;
paths = (
{
closed = 1;
nodes = (
"605 0 LINE",
"764 686 LINE",
"684 686 LINE",
"579 212 LINE SMOOTH",
"569 167 OFFCURVE",
"558 90 OFFCURVE",
"558 90 CURVE",
"554 90 LINE",
"554 90 OFFCURVE",
"545 162 OFFCURVE",
"536 212 CURVE SMOOTH",
"451 686 LINE",
"329 686 LINE",
"250 212 LINE SMOOTH",
"240 152 OFFCURVE",
"233 90 OFFCURVE",
"233 90 CURVE",
"229 90 LINE",
"229 90 OFFCURVE",
"217 172 OFFCURVE",
"208 212 CURVE SMOOTH",
"103 686 LINE",
"10 686 LINE",
"169 0 LINE",
"283 0 LINE",
"365 465 LINE SMOOTH",
"373 511 OFFCURVE",
"384 603 OFFCURVE",
"384 603 CURVE",
"388 603 LINE",
"388 603 OFFCURVE",
"399 511 OFFCURVE",
"407 465 CURVE SMOOTH",
"491 0 LINE"
);
},
{
closed = 1;
nodes = (
"447 751 LINE",
"361 883 LINE",
"271 883 LINE",
"270 880 LINE",
"378 751 LINE"
);
}
);
width = 774;
}
);
unicode = 1E80;
},
{
glyphname = X;
lastChange = "2015-02-05 02:37:04 +0000";
layers = (
{
layerId = UUID0;
name = Regular;
paths = (
{
closed = 1;
nodes = (
"427 686 LINE",
"427 685 OFFCURVE",
"276 441 OFFCURVE",
"276 441 CURVE",
"128 686 LINE",
"24 686 LINE",
"223 356 LINE",
"4 0 LINE",
"98 0 LINE",
"270 280 LINE",
"439 0 LINE",
"543 0 LINE",
"322 364 LINE",
"322 364 OFFCURVE",
"521 685 OFFCURVE",
"521 686 CURVE"
);
}
);
width = 547;
}
);
unicode = 0058;
},
{
glyphname = Y;
lastChange = "2015-02-05 02:37:04 +0000";
layers = (
{
anchors = (
{
name = top;
position = "{273, 686}";
}
);
layerId = UUID0;
name = Regular;
paths = (
{
closed = 1;
nodes = (
"539 686 LINE",
"454 686 LINE",
"283 368 LINE",
"279 368 LINE",
"105 686 LINE",
"8 686 LINE",
"230 284 LINE",
"230 0 LINE",
"318 0 LINE",
"318 284 LINE"
);
}
);
width = 547;
}
);
unicode = 0059;
},
{
glyphname = Yacute;
lastChange = "2015-02-05 02:37:04 +0000";
layers = (
{
layerId = UUID0;
name = Regular;
paths = (
{
closed = 1;
nodes = (
"318 284 LINE",
"539 686 LINE",
"454 686 LINE",
"283 368 LINE",
"279 368 LINE",
"105 686 LINE",
"8 686 LINE",
"230 284 LINE",
"230 0 LINE",
"318 0 LINE"
);
},
{
closed = 1;
nodes = (
"391 880 LINE",
"390 883 LINE",
"300 883 LINE",
"214 751 LINE",
"283 751 LINE"
);
}
);
width = 547;
}
);
unicode = 00DD;
},
{
glyphname = Ycircumflex;
lastChange = "2015-02-05 02:37:04 +0000";
layers = (
{
layerId = UUID0;
name = Regular;
paths = (
{
closed = 1;
nodes = (
"539 686 LINE",
"454 686 LINE",
"283 368 LINE",
"279 368 LINE",
"105 686 LINE",
"8 686 LINE",
"230 284 LINE",
"230 0 LINE",
"318 0 LINE",
"318 284 LINE"
);
},
{
closed = 1;
nodes = (
"313 882 LINE",
"235 882 LINE",
"149 747 LINE",
"229 747 LINE",
"274 826 LINE",
"318 747 LINE",
"398 747 LINE"
);
}
);
width = 547;
}
);
unicode = 0176;
},
{
glyphname = Ydieresis;
lastChange = "2015-02-05 02:37:04 +0000";
layers = (
{
layerId = UUID0;
name = Regular;
paths = (
{
closed = 1;
nodes = (
"539 686 LINE",
"454 686 LINE",
"283 368 LINE",
"279 368 LINE",
"105 686 LINE",
"8 686 LINE",
"230 284 LINE",
"230 0 LINE",
"318 0 LINE",
"318 284 LINE"
);
},
{
closed = 1;
nodes = (
"392 883 LINE",
"305 883 LINE",
"305 788 LINE",
"392 788 LINE"
);
},
{
closed = 1;
nodes = (
"242 883 LINE",
"155 883 LINE",
"155 788 LINE",
"242 788 LINE"
);
}
);
width = 547;
}
);
unicode = 0178;
},
{
glyphname = Ygrave;
lastChange = "2015-02-05 02:37:04 +0000";
layers = (
{
layerId = UUID0;
name = Regular;
paths = (
{
closed = 1;
nodes = (
"318 284 LINE",
"539 686 LINE",
"454 686 LINE",
"283 368 LINE",
"279 368 LINE",
"105 686 LINE",
"8 686 LINE",
"230 284 LINE",
"230 0 LINE",
"318 0 LINE"
);
},
{
closed = 1;
nodes = (
"333 751 LINE",
"247 883 LINE",
"157 883 LINE",
"156 880 LINE",
"264 751 LINE"
);
}
);
width = 547;
}
);
unicode = 1EF2;
},
{
color = (31,255,0,1);
glyphname = Z;
lastChange = "2015-02-05 02:37:04 +0000";
layers = (
{
anchors = (
{
name = top;
position = "{250, 686}";
}
);
background = {
paths = (
{
closed = 1;
nodes = (
"472 686 LINE",
"41 686 LINE",
"41 602 LINE",
"344 602 LINE",
"20 38 LINE",
"20 0 LINE",
"479 0 LINE",
"479 84 LINE",
"147 84 LINE",
"472 648 LINE"
);
}
);
};
layerId = UUID0;
name = Regular;
paths = (
{
closed = 1;
nodes = (
"479 0 LINE",
"479 80 LINE",
"145 80 LINE",
"472 648 LINE",
"472 686 LINE",
"41 686 LINE",
"41 606 LINE",
"346 606 LINE",
"20 38 LINE",
"20 0 LINE"
);
}
);
width = 501;
}
);
unicode = 005A;
},
{
color = (31,255,0,1);
glyphname = Zacute;
lastChange = "2015-02-05 02:37:04 +0000";
layers = (
{
background = {
paths = (
{
closed = 1;
nodes = (
"472 648 LINE",
"472 686 LINE",
"41 686 LINE",
"41 602 LINE",
"344 602 LINE",
"20 38 LINE",
"20 0 LINE",
"479 0 LINE",
"479 84 LINE",
"147 84 LINE"
);
}
);
};
layerId = UUID0;
name = Regular;
paths = (
{
closed = 1;
nodes = (
"368 880 LINE",
"367 883 LINE",
"277 883 LINE",
"191 751 LINE",
"260 751 LINE"
);
},
{
closed = 1;
nodes = (
"479 0 LINE",
"479 80 LINE",
"145 80 LINE",
"472 648 LINE",
"472 686 LINE",
"41 686 LINE",
"41 606 LINE",
"346 606 LINE",
"20 38 LINE",
"20 0 LINE"
);
}
);
width = 501;
}
);
unicode = 0179;
},
{
color = (31,255,0,1);
glyphname = Zcaron;
lastChange = "2015-02-05 02:37:04 +0000";
layers = (
{
background = {
paths = (
{
closed = 1;
nodes = (
"472 686 LINE",
"41 686 LINE",
"41 602 LINE",
"344 602 LINE",
"20 38 LINE",
"20 0 LINE",
"479 0 LINE",
"479 84 LINE",
"147 84 LINE",
"472 648 LINE"
);
}
);
};
layerId = UUID0;
name = Regular;
paths = (
{
closed = 1;
nodes = (
"375 883 LINE",
"295 883 LINE",
"250 804 LINE",
"206 883 LINE",
"126 883 LINE",
"211 748 LINE",
"289 748 LINE"
);
},
{
closed = 1;
nodes = (
"479 0 LINE",
"479 80 LINE",
"145 80 LINE",
"472 648 LINE",
"472 686 LINE",
"41 686 LINE",
"41 606 LINE",
"346 606 LINE",
"20 38 LINE",
"20 0 LINE"
);
}
);
width = 501;
}
);
unicode = 017D;
},
{
color = (31,255,0,1);
glyphname = Zdotaccent;
lastChange = "2015-02-05 02:37:04 +0000";
layers = (
{
background = {
paths = (
{
closed = 1;
nodes = (
"472 686 LINE",
"41 686 LINE",
"41 602 LINE",
"344 602 LINE",
"20 38 LINE",
"20 0 LINE",
"479 0 LINE",
"479 84 LINE",
"147 84 LINE",
"472 648 LINE"
);
}
);
};
layerId = UUID0;
name = Regular;
paths = (
{
closed = 1;
nodes = (
"294 883 LINE",
"207 883 LINE",
"207 788 LINE",
"294 788 LINE"
);
},
{
closed = 1;
nodes = (
"479 0 LINE",
"479 80 LINE",
"145 80 LINE",
"472 648 LINE",
"472 686 LINE",
"41 686 LINE",
"41 606 LINE",
"346 606 LINE",
"20 38 LINE",
"20 0 LINE"
);
}
);
width = 501;
}
);
unicode = 017B;
},
{
glyphname = a;
lastChange = "2015-02-05 02:37:04 +0000";
layers = (
{
anchors = (
{
name = ogonek;
position = "{438, 5}";
},
{
name = top;
position = "{228, 526}";
}
);
layerId = UUID0;
name = Regular;
paths = (
{
closed = 1;
nodes = (
"124 538 OFFCURVE",
"54 488 OFFCURVE",
"54 392 CURVE SMOOTH",
"54 383 OFFCURVE",
"54 376 OFFCURVE",
"55 370 CURVE",
"136 370 LINE",
"136 382 LINE SMOOTH",
"136 422 OFFCURVE",
"155 465 OFFCURVE",
"217 465 CURVE SMOOTH",
"284 465 OFFCURVE",
"300 430 OFFCURVE",
"300 380 CURVE SMOOTH",
"300 312 LINE",
"147 312 OFFCURVE",
"34 281 OFFCURVE",
"34 136 CURVE SMOOTH",
"34 9 OFFCURVE",
"120 -12 OFFCURVE",
"172 -12 CURVE SMOOTH",
"227 -12 OFFCURVE",
"273 14 OFFCURVE",
"300 57 CURVE",
"305 57 LINE",
"315 18 OFFCURVE",
"345 -8 OFFCURVE",
"388 -8 CURVE SMOOTH",
"414 -8 OFFCURVE",
"433 -1 OFFCURVE",
"442 4 CURVE",
"442 61 LINE",
"410 61 LINE SMOOTH",
"396 61 OFFCURVE",
"382 71 OFFCURVE",
"382 96 CURVE SMOOTH",
"382 391 LINE SMOOTH",
"382 484 OFFCURVE",
"329 538 OFFCURVE",
"223 538 CURVE SMOOTH"
);
},
{
closed = 1;
nodes = (
"300 191 LINE",
"300 104 OFFCURVE",
"243 61 OFFCURVE",
"191 61 CURVE SMOOTH",
"145 61 OFFCURVE",
"120 81 OFFCURVE",
"120 141 CURVE SMOOTH",
"120 223 OFFCURVE",
"193 239 OFFCURVE",
"300 239 CURVE"
);
}
);
width = 456;
}
);
unicode = 0061;
},
{
glyphname = aacute;
lastChange = "2015-02-05 02:37:04 +0000";
layers = (
{
layerId = UUID0;
name = Regular;
paths = (
{
closed = 1;
nodes = (
"124 538 OFFCURVE",
"54 488 OFFCURVE",
"54 392 CURVE SMOOTH",
"54 383 OFFCURVE",
"54 376 OFFCURVE",
"55 370 CURVE",
"136 370 LINE",
"136 382 LINE SMOOTH",
"136 422 OFFCURVE",
"155 465 OFFCURVE",
"217 465 CURVE SMOOTH",
"284 465 OFFCURVE",
"300 430 OFFCURVE",
"300 380 CURVE SMOOTH",
"300 312 LINE",
"147 312 OFFCURVE",
"34 281 OFFCURVE",
"34 136 CURVE SMOOTH",
"34 9 OFFCURVE",
"120 -12 OFFCURVE",
"172 -12 CURVE SMOOTH",
"227 -12 OFFCURVE",
"273 14 OFFCURVE",
"300 57 CURVE",
"305 57 LINE",
"315 18 OFFCURVE",
"345 -8 OFFCURVE",
"388 -8 CURVE SMOOTH",
"414 -8 OFFCURVE",
"433 -1 OFFCURVE",
"442 4 CURVE",
"442 61 LINE",
"410 61 LINE SMOOTH",
"396 61 OFFCURVE",
"382 71 OFFCURVE",
"382 96 CURVE SMOOTH",
"382 391 LINE SMOOTH",
"382 484 OFFCURVE",
"329 538 OFFCURVE",
"223 538 CURVE SMOOTH"
);
},
{
closed = 1;
nodes = (
"300 191 LINE",
"300 104 OFFCURVE",
"243 61 OFFCURVE",
"191 61 CURVE SMOOTH",
"145 61 OFFCURVE",
"120 81 OFFCURVE",
"120 141 CURVE SMOOTH",
"120 223 OFFCURVE",
"193 239 OFFCURVE",
"300 239 CURVE"
);
},
{
closed = 1;
nodes = (
"341 720 LINE",
"340 723 LINE",
"250 723 LINE",
"164 591 LINE",
"233 591 LINE"
);
}
);
width = 456;
}
);
unicode = 00E1;
},
{
glyphname = abreve;
lastChange = "2015-02-05 02:37:04 +0000";
layers = (
{
layerId = UUID0;
name = Regular;
paths = (
{
closed = 1;
nodes = (
"124 538 OFFCURVE",
"54 488 OFFCURVE",
"54 392 CURVE SMOOTH",
"54 383 OFFCURVE",
"54 376 OFFCURVE",
"55 370 CURVE",
"136 370 LINE",
"136 382 LINE SMOOTH",
"136 422 OFFCURVE",
"155 465 OFFCURVE",
"217 465 CURVE SMOOTH",
"284 465 OFFCURVE",
"300 430 OFFCURVE",
"300 380 CURVE SMOOTH",
"300 312 LINE",
"147 312 OFFCURVE",
"34 281 OFFCURVE",
"34 136 CURVE SMOOTH",
"34 9 OFFCURVE",
"120 -12 OFFCURVE",
"172 -12 CURVE SMOOTH",
"227 -12 OFFCURVE",
"273 14 OFFCURVE",
"300 57 CURVE",
"305 57 LINE",
"315 18 OFFCURVE",
"345 -8 OFFCURVE",
"388 -8 CURVE SMOOTH",
"414 -8 OFFCURVE",
"433 -1 OFFCURVE",
"442 4 CURVE",
"442 61 LINE",
"410 61 LINE SMOOTH",
"396 61 OFFCURVE",
"382 71 OFFCURVE",
"382 96 CURVE SMOOTH",
"382 391 LINE SMOOTH",
"382 484 OFFCURVE",
"329 538 OFFCURVE",
"223 538 CURVE SMOOTH"
);
},
{
closed = 1;
nodes = (
"300 191 LINE",
"300 104 OFFCURVE",
"243 61 OFFCURVE",
"191 61 CURVE SMOOTH",
"145 61 OFFCURVE",
"120 81 OFFCURVE",
"120 141 CURVE SMOOTH",
"120 223 OFFCURVE",
"193 239 OFFCURVE",
"300 239 CURVE"
);
},
{
closed = 1;
nodes = (
"288 723 LINE",
"286 709 OFFCURVE",
"262 690 OFFCURVE",
"228 690 CURVE SMOOTH",
"194 690 OFFCURVE",
"172 709 OFFCURVE",
"169 723 CURVE",
"104 723 LINE",
"104 678 OFFCURVE",
"152 626 OFFCURVE",
"228 626 CURVE SMOOTH",
"305 626 OFFCURVE",
"352 678 OFFCURVE",
"352 723 CURVE"
);
}
);
width = 456;
}
);
unicode = 0103;
},
{
glyphname = acircumflex;
lastChange = "2015-02-05 02:37:04 +0000";
layers = (
{
layerId = UUID0;
name = Regular;
paths = (
{
closed = 1;
nodes = (
"124 538 OFFCURVE",
"54 488 OFFCURVE",
"54 392 CURVE SMOOTH",
"54 383 OFFCURVE",
"54 376 OFFCURVE",
"55 370 CURVE",
"136 370 LINE",
"136 382 LINE SMOOTH",
"136 422 OFFCURVE",
"155 465 OFFCURVE",
"217 465 CURVE SMOOTH",
"284 465 OFFCURVE",
"300 430 OFFCURVE",
"300 380 CURVE SMOOTH",
"300 312 LINE",
"147 312 OFFCURVE",
"34 281 OFFCURVE",
"34 136 CURVE SMOOTH",
"34 9 OFFCURVE",
"120 -12 OFFCURVE",
"172 -12 CURVE SMOOTH",
"227 -12 OFFCURVE",
"273 14 OFFCURVE",
"300 57 CURVE",
"305 57 LINE",
"315 18 OFFCURVE",
"345 -8 OFFCURVE",
"388 -8 CURVE SMOOTH",
"414 -8 OFFCURVE",
"433 -1 OFFCURVE",
"442 4 CURVE",
"442 61 LINE",
"410 61 LINE SMOOTH",
"396 61 OFFCURVE",
"382 71 OFFCURVE",
"382 96 CURVE SMOOTH",
"382 391 LINE SMOOTH",
"382 484 OFFCURVE",
"329 538 OFFCURVE",
"223 538 CURVE SMOOTH"
);
},
{
closed = 1;
nodes = (
"300 191 LINE",
"300 104 OFFCURVE",
"243 61 OFFCURVE",
"191 61 CURVE SMOOTH",
"145 61 OFFCURVE",
"120 81 OFFCURVE",
"120 141 CURVE SMOOTH",
"120 223 OFFCURVE",
"193 239 OFFCURVE",
"300 239 CURVE"
);
},
{
closed = 1;
nodes = (
"268 722 LINE",
"189 722 LINE",
"104 587 LINE",
"184 587 LINE",
"229 666 LINE",
"273 587 LINE",
"353 587 LINE"
);
}
);
width = 456;
}
);
unicode = 00E2;
},
{
glyphname = adieresis;
lastChange = "2015-02-05 02:37:04 +0000";
layers = (
{
layerId = UUID0;
name = Regular;
paths = (
{
closed = 1;
nodes = (
"124 538 OFFCURVE",
"54 488 OFFCURVE",
"54 392 CURVE SMOOTH",
"54 383 OFFCURVE",
"54 376 OFFCURVE",
"55 370 CURVE",
"136 370 LINE",
"136 382 LINE SMOOTH",
"136 422 OFFCURVE",
"155 465 OFFCURVE",
"217 465 CURVE SMOOTH",
"284 465 OFFCURVE",
"300 430 OFFCURVE",
"300 380 CURVE SMOOTH",
"300 312 LINE",
"147 312 OFFCURVE",
"34 281 OFFCURVE",
"34 136 CURVE SMOOTH",
"34 9 OFFCURVE",
"120 -12 OFFCURVE",
"172 -12 CURVE SMOOTH",
"227 -12 OFFCURVE",
"273 14 OFFCURVE",
"300 57 CURVE",
"305 57 LINE",
"315 18 OFFCURVE",
"345 -8 OFFCURVE",
"388 -8 CURVE SMOOTH",
"414 -8 OFFCURVE",
"433 -1 OFFCURVE",
"442 4 CURVE",
"442 61 LINE",
"410 61 LINE SMOOTH",
"396 61 OFFCURVE",
"382 71 OFFCURVE",
"382 96 CURVE SMOOTH",
"382 391 LINE SMOOTH",
"382 484 OFFCURVE",
"329 538 OFFCURVE",
"223 538 CURVE SMOOTH"
);
},
{
closed = 1;
nodes = (
"300 191 LINE",
"300 104 OFFCURVE",
"243 61 OFFCURVE",
"191 61 CURVE SMOOTH",
"145 61 OFFCURVE",
"120 81 OFFCURVE",
"120 141 CURVE SMOOTH",
"120 223 OFFCURVE",
"193 239 OFFCURVE",
"300 239 CURVE"
);
},
{
closed = 1;
nodes = (
"347 723 LINE",
"259 723 LINE",
"259 628 LINE",
"347 628 LINE"
);
},
{
closed = 1;
nodes = (
"196 723 LINE",
"109 723 LINE",
"109 628 LINE",
"196 628 LINE"
);
}
);
width = 456;
}
);
unicode = 00E4;
},
{
glyphname = agrave;
lastChange = "2015-02-05 02:37:04 +0000";
layers = (
{
layerId = UUID0;
name = Regular;
paths = (
{
closed = 1;
nodes = (
"124 538 OFFCURVE",
"54 488 OFFCURVE",
"54 392 CURVE SMOOTH",
"54 383 OFFCURVE",
"54 376 OFFCURVE",
"55 370 CURVE",
"136 370 LINE",
"136 382 LINE SMOOTH",
"136 422 OFFCURVE",
"155 465 OFFCURVE",
"217 465 CURVE SMOOTH",
"284 465 OFFCURVE",
"300 430 OFFCURVE",
"300 380 CURVE SMOOTH",
"300 312 LINE",
"147 312 OFFCURVE",
"34 281 OFFCURVE",
"34 136 CURVE SMOOTH",
"34 9 OFFCURVE",
"120 -12 OFFCURVE",
"172 -12 CURVE SMOOTH",
"227 -12 OFFCURVE",
"273 14 OFFCURVE",
"300 57 CURVE",
"305 57 LINE",
"315 18 OFFCURVE",
"345 -8 OFFCURVE",
"388 -8 CURVE SMOOTH",
"414 -8 OFFCURVE",
"433 -1 OFFCURVE",
"442 4 CURVE",
"442 61 LINE",
"410 61 LINE SMOOTH",
"396 61 OFFCURVE",
"382 71 OFFCURVE",
"382 96 CURVE SMOOTH",
"382 391 LINE SMOOTH",
"382 484 OFFCURVE",
"329 538 OFFCURVE",
"223 538 CURVE SMOOTH"
);
},
{
closed = 1;
nodes = (
"300 191 LINE",
"300 104 OFFCURVE",
"243 61 OFFCURVE",
"191 61 CURVE SMOOTH",
"145 61 OFFCURVE",
"120 81 OFFCURVE",
"120 141 CURVE SMOOTH",
"120 223 OFFCURVE",
"193 239 OFFCURVE",
"300 239 CURVE"
);
},
{
closed = 1;
nodes = (
"283 591 LINE",
"197 723 LINE",
"107 723 LINE",
"106 720 LINE",
"214 591 LINE"
);
}
);
width = 456;
}
);
unicode = 00E0;
},
{
glyphname = amacron;
lastChange = "2015-02-05 02:37:04 +0000";
layers = (
{
layerId = UUID0;
name = Regular;
paths = (
{
closed = 1;
nodes = (
"124 538 OFFCURVE",
"54 488 OFFCURVE",
"54 392 CURVE SMOOTH",
"54 383 OFFCURVE",
"54 376 OFFCURVE",
"55 370 CURVE",
"136 370 LINE",
"136 382 LINE SMOOTH",
"136 422 OFFCURVE",
"155 465 OFFCURVE",
"217 465 CURVE SMOOTH",
"284 465 OFFCURVE",
"300 430 OFFCURVE",
"300 380 CURVE SMOOTH",
"300 312 LINE",
"147 312 OFFCURVE",
"34 281 OFFCURVE",
"34 136 CURVE SMOOTH",
"34 9 OFFCURVE",
"120 -12 OFFCURVE",
"172 -12 CURVE SMOOTH",
"227 -12 OFFCURVE",
"273 14 OFFCURVE",
"300 57 CURVE",
"305 57 LINE",
"315 18 OFFCURVE",
"345 -8 OFFCURVE",
"388 -8 CURVE SMOOTH",
"414 -8 OFFCURVE",
"433 -1 OFFCURVE",
"442 4 CURVE",
"442 61 LINE",
"410 61 LINE SMOOTH",
"396 61 OFFCURVE",
"382 71 OFFCURVE",
"382 96 CURVE SMOOTH",
"382 391 LINE SMOOTH",
"382 484 OFFCURVE",
"329 538 OFFCURVE",
"223 538 CURVE SMOOTH"
);
},
{
closed = 1;
nodes = (
"300 191 LINE",
"300 104 OFFCURVE",
"243 61 OFFCURVE",
"191 61 CURVE SMOOTH",
"145 61 OFFCURVE",
"120 81 OFFCURVE",
"120 141 CURVE SMOOTH",
"120 223 OFFCURVE",
"193 239 OFFCURVE",
"300 239 CURVE"
);
},
{
closed = 1;
nodes = (
"354 671 LINE",
"103 671 LINE",
"103 599 LINE",
"354 599 LINE"
);
}
);
width = 456;
}
);
unicode = 0101;
},
{
glyphname = aogonek;
lastChange = "2015-02-05 02:37:04 +0000";
layers = (
{
layerId = UUID0;
name = Regular;
paths = (
{
closed = 1;
nodes = (
"124 538 OFFCURVE",
"54 488 OFFCURVE",
"54 392 CURVE SMOOTH",
"54 383 OFFCURVE",
"54 376 OFFCURVE",
"55 370 CURVE",
"136 370 LINE",
"136 382 LINE SMOOTH",
"136 422 OFFCURVE",
"155 465 OFFCURVE",
"217 465 CURVE SMOOTH",
"284 465 OFFCURVE",
"300 430 OFFCURVE",
"300 380 CURVE SMOOTH",
"300 312 LINE",
"147 312 OFFCURVE",
"34 281 OFFCURVE",
"34 136 CURVE SMOOTH",
"34 9 OFFCURVE",
"120 -12 OFFCURVE",
"172 -12 CURVE SMOOTH",
"227 -12 OFFCURVE",
"273 14 OFFCURVE",
"300 57 CURVE",
"305 57 LINE",
"313 25 OFFCURVE",
"334 3 OFFCURVE",
"364 -5 CURVE",
"346 -27 OFFCURVE",
"332 -53 OFFCURVE",
"332 -92 CURVE SMOOTH",
"332 -161 OFFCURVE",
"383 -182 OFFCURVE",
"426 -182 CURVE SMOOTH",
"446 -182 OFFCURVE",
"466 -177 OFFCURVE",
"487 -168 CURVE",
"487 -117 LINE",
"456 -117 LINE SMOOTH",
"422 -117 OFFCURVE",
"410 -90 OFFCURVE",
"410 -62 CURVE SMOOTH",
"410 -38 OFFCURVE",
"422 -15 OFFCURVE",
"433 0 CURVE",
"437 1 OFFCURVE",
"440 3 OFFCURVE",
"442 4 CURVE",
"442 61 LINE",
"410 61 LINE SMOOTH",
"396 61 OFFCURVE",
"382 71 OFFCURVE",
"382 96 CURVE SMOOTH",
"382 391 LINE SMOOTH",
"382 484 OFFCURVE",
"329 538 OFFCURVE",
"223 538 CURVE SMOOTH"
);
},
{
closed = 1;
nodes = (
"300 191 LINE SMOOTH",
"300 104 OFFCURVE",
"243 61 OFFCURVE",
"191 61 CURVE SMOOTH",
"145 61 OFFCURVE",
"120 81 OFFCURVE",
"120 141 CURVE SMOOTH",
"120 223 OFFCURVE",
"193 239 OFFCURVE",
"300 239 CURVE"
);
}
);
width = 456;
}
);
unicode = 0105;
},
{
glyphname = aring;
lastChange = "2015-02-05 02:37:04 +0000";
layers = (
{
layerId = UUID0;
name = Regular;
paths = (
{
closed = 1;
nodes = (
"124 538 OFFCURVE",
"54 488 OFFCURVE",
"54 392 CURVE SMOOTH",
"54 383 OFFCURVE",
"54 376 OFFCURVE",
"55 370 CURVE",
"136 370 LINE",
"136 382 LINE SMOOTH",
"136 422 OFFCURVE",
"155 465 OFFCURVE",
"217 465 CURVE SMOOTH",
"284 465 OFFCURVE",
"300 430 OFFCURVE",
"300 380 CURVE SMOOTH",
"300 312 LINE",
"147 312 OFFCURVE",
"34 281 OFFCURVE",
"34 136 CURVE SMOOTH",
"34 9 OFFCURVE",
"120 -12 OFFCURVE",
"172 -12 CURVE SMOOTH",
"227 -12 OFFCURVE",
"273 14 OFFCURVE",
"300 57 CURVE",
"305 57 LINE",
"315 18 OFFCURVE",
"345 -8 OFFCURVE",
"388 -8 CURVE SMOOTH",
"414 -8 OFFCURVE",
"433 -1 OFFCURVE",
"442 4 CURVE",
"442 61 LINE",
"410 61 LINE SMOOTH",
"396 61 OFFCURVE",
"382 71 OFFCURVE",
"382 96 CURVE SMOOTH",
"382 391 LINE SMOOTH",
"382 484 OFFCURVE",
"329 538 OFFCURVE",
"223 538 CURVE SMOOTH"
);
},
{
closed = 1;
nodes = (
"300 191 LINE",
"300 104 OFFCURVE",
"243 61 OFFCURVE",
"191 61 CURVE SMOOTH",
"145 61 OFFCURVE",
"120 81 OFFCURVE",
"120 141 CURVE SMOOTH",
"120 223 OFFCURVE",
"193 239 OFFCURVE",
"300 239 CURVE"
);
},
{
closed = 1;
nodes = (
"175 754 OFFCURVE",
"132 712 OFFCURVE",
"132 659 CURVE SMOOTH",
"132 604 OFFCURVE",
"176 562 OFFCURVE",
"228 562 CURVE SMOOTH",
"281 562 OFFCURVE",
"324 605 OFFCURVE",
"324 659 CURVE SMOOTH",
"324 710 OFFCURVE",
"282 754 OFFCURVE",
"228 754 CURVE SMOOTH"
);
},
{
closed = 1;
nodes = (
"255 709 OFFCURVE",
"279 687 OFFCURVE",
"279 659 CURVE SMOOTH",
"279 631 OFFCURVE",
"255 607 OFFCURVE",
"228 607 CURVE SMOOTH",
"200 607 OFFCURVE",
"177 631 OFFCURVE",
"177 659 CURVE SMOOTH",
"177 687 OFFCURVE",
"200 709 OFFCURVE",
"228 709 CURVE SMOOTH"
);
}
);
width = 456;
}
);
unicode = 00E5;
},
{
glyphname = aringacute;
lastChange = "2015-02-05 02:37:04 +0000";
layers = (
{
layerId = UUID0;
name = Regular;
paths = (
{
closed = 1;
nodes = (
"175 745 OFFCURVE",
"132 706 OFFCURVE",
"132 655 CURVE SMOOTH",
"132 603 OFFCURVE",
"176 565 OFFCURVE",
"229 565 CURVE SMOOTH",
"282 565 OFFCURVE",
"324 604 OFFCURVE",
"324 655 CURVE SMOOTH",
"324 705 OFFCURVE",
"283 745 OFFCURVE",
"229 745 CURVE SMOOTH"
);
},
{
closed = 1;
nodes = (
"255 701 OFFCURVE",
"279 682 OFFCURVE",
"279 655 CURVE SMOOTH",
"279 628 OFFCURVE",
"255 608 OFFCURVE",
"229 608 CURVE SMOOTH",
"201 608 OFFCURVE",
"177 628 OFFCURVE",
"177 655 CURVE SMOOTH",
"177 682 OFFCURVE",
"201 701 OFFCURVE",
"229 701 CURVE SMOOTH"
);
},
{
closed = 1;
nodes = (
"361 883 LINE",
"271 883 LINE",
"196 768 LINE",
"265 768 LINE",
"362 880 LINE"
);
},
{
closed = 1;
nodes = (
"124 538 OFFCURVE",
"54 488 OFFCURVE",
"54 392 CURVE SMOOTH",
"54 383 OFFCURVE",
"54 376 OFFCURVE",
"55 370 CURVE",
"136 370 LINE",
"136 382 LINE SMOOTH",
"136 422 OFFCURVE",
"155 465 OFFCURVE",
"217 465 CURVE SMOOTH",
"284 465 OFFCURVE",
"300 430 OFFCURVE",
"300 380 CURVE SMOOTH",
"300 312 LINE",
"147 312 OFFCURVE",
"34 281 OFFCURVE",
"34 136 CURVE SMOOTH",
"34 9 OFFCURVE",
"120 -12 OFFCURVE",
"172 -12 CURVE SMOOTH",
"227 -12 OFFCURVE",
"273 14 OFFCURVE",
"300 57 CURVE",
"305 57 LINE",
"315 18 OFFCURVE",
"345 -8 OFFCURVE",
"388 -8 CURVE SMOOTH",
"414 -8 OFFCURVE",
"433 -1 OFFCURVE",
"442 4 CURVE",
"442 61 LINE",
"410 61 LINE SMOOTH",
"396 61 OFFCURVE",
"382 71 OFFCURVE",
"382 96 CURVE SMOOTH",
"382 391 LINE SMOOTH",
"382 484 OFFCURVE",
"329 538 OFFCURVE",
"223 538 CURVE SMOOTH"
);
},
{
closed = 1;
nodes = (
"300 191 LINE",
"300 104 OFFCURVE",
"243 61 OFFCURVE",
"191 61 CURVE SMOOTH",
"145 61 OFFCURVE",
"120 81 OFFCURVE",
"120 141 CURVE SMOOTH",
"120 223 OFFCURVE",
"193 239 OFFCURVE",
"300 239 CURVE"
);
}
);
width = 456;
}
);
unicode = 01FB;
},
{
glyphname = atilde;
lastChange = "2015-02-05 02:37:04 +0000";
layers = (
{
layerId = UUID0;
name = Regular;
paths = (
{
closed = 1;
nodes = (
"124 538 OFFCURVE",
"54 488 OFFCURVE",
"54 392 CURVE SMOOTH",
"54 383 OFFCURVE",
"54 376 OFFCURVE",
"55 370 CURVE",
"136 370 LINE",
"136 382 LINE SMOOTH",
"136 422 OFFCURVE",
"155 465 OFFCURVE",
"217 465 CURVE SMOOTH",
"284 465 OFFCURVE",
"300 430 OFFCURVE",
"300 380 CURVE SMOOTH",
"300 312 LINE",
"147 312 OFFCURVE",
"34 281 OFFCURVE",
"34 136 CURVE SMOOTH",
"34 9 OFFCURVE",
"120 -12 OFFCURVE",
"172 -12 CURVE SMOOTH",
"227 -12 OFFCURVE",
"273 14 OFFCURVE",
"300 57 CURVE",
"305 57 LINE",
"315 18 OFFCURVE",
"345 -8 OFFCURVE",
"388 -8 CURVE SMOOTH",
"414 -8 OFFCURVE",
"433 -1 OFFCURVE",
"442 4 CURVE",
"442 61 LINE",
"410 61 LINE SMOOTH",
"396 61 OFFCURVE",
"382 71 OFFCURVE",
"382 96 CURVE SMOOTH",
"382 391 LINE SMOOTH",
"382 484 OFFCURVE",
"329 538 OFFCURVE",
"223 538 CURVE SMOOTH"
);
},
{
closed = 1;
nodes = (
"300 191 LINE",
"300 104 OFFCURVE",
"243 61 OFFCURVE",
"191 61 CURVE SMOOTH",
"145 61 OFFCURVE",
"120 81 OFFCURVE",
"120 141 CURVE SMOOTH",
"120 223 OFFCURVE",
"193 239 OFFCURVE",
"300 239 CURVE"
);
},
{
closed = 1;
nodes = (
"316 723 LINE",
"313 700 OFFCURVE",
"300 692 OFFCURVE",
"282 692 CURVE SMOOTH",
"243 692 OFFCURVE",
"210 723 OFFCURVE",
"167 723 CURVE SMOOTH",
"107 723 OFFCURVE",
"82 665 OFFCURVE",
"82 619 CURVE",
"140 619 LINE",
"143 642 OFFCURVE",
"156 650 OFFCURVE",
"174 650 CURVE SMOOTH",
"213 650 OFFCURVE",
"246 619 OFFCURVE",
"289 619 CURVE SMOOTH",
"349 619 OFFCURVE",
"374 677 OFFCURVE",
"374 723 CURVE"
);
}
);
width = 456;
}
);
unicode = 00E3;
},
{
glyphname = ae;
lastChange = "2015-02-05 02:37:04 +0000";
layers = (
{
anchors = (
{
name = top;
position = "{365, 526}";
}
);
layerId = UUID0;
name = Regular;
paths = (
{
closed = 1;
nodes = (
"443 538 OFFCURVE",
"397 519 OFFCURVE",
"364 478 CURVE",
"339 517 OFFCURVE",
"293 538 OFFCURVE",
"229 538 CURVE SMOOTH",
"130 538 OFFCURVE",
"60 488 OFFCURVE",
"60 392 CURVE SMOOTH",
"60 383 OFFCURVE",
"60 376 OFFCURVE",
"61 370 CURVE",
"142 370 LINE",
"142 382 LINE SMOOTH",
"142 422 OFFCURVE",
"161 465 OFFCURVE",
"223 465 CURVE SMOOTH",
"290 465 OFFCURVE",
"306 430 OFFCURVE",
"306 380 CURVE SMOOTH",
"306 312 LINE",
"153 312 OFFCURVE",
"40 281 OFFCURVE",
"40 136 CURVE SMOOTH",
"40 9 OFFCURVE",
"128 -12 OFFCURVE",
"193 -12 CURVE SMOOTH",
"254 -12 OFFCURVE",
"308 19 OFFCURVE",
"345 68 CURVE",
"378 12 OFFCURVE",
"432 -12 OFFCURVE",
"505 -12 CURVE SMOOTH",
"607 -12 OFFCURVE",
"677 61 OFFCURVE",
"677 179 CURVE",
"596 179 LINE",
"596 106 OFFCURVE",
"559 61 OFFCURVE",
"507 61 CURVE SMOOTH",
"429 61 OFFCURVE",
"393 116 OFFCURVE",
"392 239 CURVE",
"677 239 LINE",
"677 291 LINE SMOOTH",
"677 467 OFFCURVE",
"619 538 OFFCURVE",
"504 538 CURVE SMOOTH"
);
},
{
closed = 1;
nodes = (
"306 183 LINE",
"306 101 OFFCURVE",
"249 61 OFFCURVE",
"197 61 CURVE SMOOTH",
"151 61 OFFCURVE",
"126 81 OFFCURVE",
"126 141 CURVE SMOOTH",
"126 223 OFFCURVE",
"199 239 OFFCURVE",
"306 239 CURVE"
);
},
{
closed = 1;
nodes = (
"561 465 OFFCURVE",
"591 412 OFFCURVE",
"591 312 CURVE",
"393 312 LINE",
"400 413 OFFCURVE",
"431 465 OFFCURVE",
"504 465 CURVE SMOOTH"
);
}
);
width = 729;
}
);
unicode = 00E6;
},
{
glyphname = aeacute;
lastChange = "2015-02-05 02:37:04 +0000";
layers = (
{
layerId = UUID0;
name = Regular;
paths = (
{
closed = 1;
nodes = (
"443 538 OFFCURVE",
"397 519 OFFCURVE",
"364 478 CURVE",
"339 517 OFFCURVE",
"293 538 OFFCURVE",
"229 538 CURVE SMOOTH",
"130 538 OFFCURVE",
"60 488 OFFCURVE",
"60 392 CURVE SMOOTH",
"60 383 OFFCURVE",
"60 376 OFFCURVE",
"61 370 CURVE",
"142 370 LINE",
"142 382 LINE SMOOTH",
"142 422 OFFCURVE",
"161 465 OFFCURVE",
"223 465 CURVE SMOOTH",
"290 465 OFFCURVE",
"306 430 OFFCURVE",
"306 380 CURVE SMOOTH",
"306 312 LINE",
"153 312 OFFCURVE",
"40 281 OFFCURVE",
"40 136 CURVE SMOOTH",
"40 9 OFFCURVE",
"128 -12 OFFCURVE",
"193 -12 CURVE SMOOTH",
"254 -12 OFFCURVE",
"308 19 OFFCURVE",
"345 68 CURVE",
"378 12 OFFCURVE",
"432 -12 OFFCURVE",
"505 -12 CURVE SMOOTH",
"607 -12 OFFCURVE",
"677 61 OFFCURVE",
"677 179 CURVE",
"596 179 LINE",
"596 106 OFFCURVE",
"559 61 OFFCURVE",
"507 61 CURVE SMOOTH",
"429 61 OFFCURVE",
"393 116 OFFCURVE",
"392 239 CURVE",
"677 239 LINE",
"677 291 LINE SMOOTH",
"677 467 OFFCURVE",
"619 538 OFFCURVE",
"504 538 CURVE SMOOTH"
);
},
{
closed = 1;
nodes = (
"306 183 LINE",
"306 101 OFFCURVE",
"249 61 OFFCURVE",
"197 61 CURVE SMOOTH",
"151 61 OFFCURVE",
"126 81 OFFCURVE",
"126 141 CURVE SMOOTH",
"126 223 OFFCURVE",
"199 239 OFFCURVE",
"306 239 CURVE"
);
},
{
closed = 1;
nodes = (
"561 465 OFFCURVE",
"591 412 OFFCURVE",
"591 312 CURVE",
"393 312 LINE",
"400 413 OFFCURVE",
"431 465 OFFCURVE",
"504 465 CURVE SMOOTH"
);
},
{
closed = 1;
nodes = (
"482 720 LINE",
"481 723 LINE",
"391 723 LINE",
"305 591 LINE",
"375 591 LINE"
);
}
);
width = 729;
}
);
unicode = 01FD;
},
{
color = (31,255,0,1);
glyphname = b;
lastChange = "2015-02-05 02:37:04 +0000";
layers = (
{
background = {
paths = (
{
closed = 1;
nodes = (
"142 723 LINE",
"60 723 LINE",
"60 0 LINE",
"102 0 LINE",
"129 61 LINE",
"134 61 LINE",
"160 13 OFFCURVE",
"203 -12 OFFCURVE",
"253 -12 CURVE SMOOTH",
"348 -12 OFFCURVE",
"416 71 OFFCURVE",
"416 264 CURVE SMOOTH",
"416 455 OFFCURVE",
"346 538 OFFCURVE",
"259 538 CURVE SMOOTH",
"208 538 OFFCURVE",
"168 514 OFFCURVE",
"147 476 CURVE",
"142 476 LINE"
);
},
{
closed = 1;
nodes = (
"299 465 OFFCURVE",
"330 413 OFFCURVE",
"330 282 CURVE SMOOTH",
"330 244 LINE",
"330 113 OFFCURVE",
"299 61 OFFCURVE",
"236 61 CURVE SMOOTH",
"173 61 OFFCURVE",
"142 123 OFFCURVE",
"142 244 CURVE SMOOTH",
"142 278 LINE SMOOTH",
"142 402 OFFCURVE",
"173 465 OFFCURVE",
"236 465 CURVE SMOOTH"
);
}
);
};
layerId = UUID0;
name = Regular;
paths = (
{
closed = 1;
nodes = (
"138 61 LINE",
"163 13 OFFCURVE",
"205 -12 OFFCURVE",
"253 -12 CURVE SMOOTH",
"353 -12 OFFCURVE",
"416 71 OFFCURVE",
"416 264 CURVE SMOOTH",
"416 455 OFFCURVE",
"346 538 OFFCURVE",
"259 538 CURVE SMOOTH",
"208 538 OFFCURVE",
"165 515 OFFCURVE",
"147 476 CURVE",
"142 476 LINE",
"142 723 LINE",
"60 723 LINE",
"60 0 LINE",
"122 0 LINE",
"133 61 LINE"
);
},
{
closed = 1;
nodes = (
"330 244 LINE",
"330 113 OFFCURVE",
"299 61 OFFCURVE",
"236 61 CURVE SMOOTH",
"173 61 OFFCURVE",
"142 123 OFFCURVE",
"142 244 CURVE SMOOTH",
"142 278 LINE SMOOTH",
"142 402 OFFCURVE",
"173 465 OFFCURVE",
"236 465 CURVE SMOOTH",
"299 465 OFFCURVE",
"330 413 OFFCURVE",
"330 282 CURVE SMOOTH"
);
}
);
width = 456;
}
);
unicode = 0062;
},
{
glyphname = c;
lastChange = "2015-02-05 02:37:04 +0000";
layers = (
{
anchors = (
{
name = bottom;
position = "{205, 0}";
},
{
name = top;
position = "{205, 526}";
}
);
layerId = UUID0;
name = Regular;
paths = (
{
closed = 1;
nodes = (
"93 538 OFFCURVE",
"36 452 OFFCURVE",
"36 263 CURVE SMOOTH",
"36 74 OFFCURVE",
"92 -12 OFFCURVE",
"216 -12 CURVE SMOOTH",
"332 -12 OFFCURVE",
"377 85 OFFCURVE",
"377 195 CURVE",
"296 195 LINE",
"296 108 OFFCURVE",
"275 61 OFFCURVE",
"216 61 CURVE SMOOTH",
"150 61 OFFCURVE",
"122 123 OFFCURVE",
"122 244 CURVE SMOOTH",
"122 282 LINE SMOOTH",
"122 403 OFFCURVE",
"151 465 OFFCURVE",
"216 465 CURVE SMOOTH",
"275 465 OFFCURVE",
"292 422 OFFCURVE",
"292 331 CURVE",
"377 331 LINE",
"377 465 OFFCURVE",
"330 538 OFFCURVE",
"216 538 CURVE SMOOTH"
);
}
);
width = 410;
}
);
unicode = 0063;
},
{
glyphname = cacute;
lastChange = "2015-02-05 02:37:04 +0000";
layers = (
{
layerId = UUID0;
name = Regular;
paths = (
{
closed = 1;
nodes = (
"93 538 OFFCURVE",
"36 452 OFFCURVE",
"36 263 CURVE SMOOTH",
"36 74 OFFCURVE",
"92 -12 OFFCURVE",
"216 -12 CURVE SMOOTH",
"332 -12 OFFCURVE",
"377 85 OFFCURVE",
"377 195 CURVE",
"296 195 LINE",
"296 108 OFFCURVE",
"275 61 OFFCURVE",
"216 61 CURVE SMOOTH",
"150 61 OFFCURVE",
"122 123 OFFCURVE",
"122 244 CURVE SMOOTH",
"122 282 LINE SMOOTH",
"122 403 OFFCURVE",
"151 465 OFFCURVE",
"216 465 CURVE SMOOTH",
"275 465 OFFCURVE",
"292 422 OFFCURVE",
"292 331 CURVE",
"377 331 LINE",
"377 465 OFFCURVE",
"330 538 OFFCURVE",
"216 538 CURVE SMOOTH"
);
},
{
closed = 1;
nodes = (
"332 720 LINE",
"331 723 LINE",
"241 723 LINE",
"155 591 LINE",
"225 591 LINE"
);
}
);
width = 410;
}
);
unicode = 0107;
},
{
glyphname = ccaron;
lastChange = "2015-02-05 02:37:04 +0000";
layers = (
{
layerId = UUID0;
name = Regular;
paths = (
{
closed = 1;
nodes = (
"93 538 OFFCURVE",
"36 452 OFFCURVE",
"36 263 CURVE SMOOTH",
"36 74 OFFCURVE",
"92 -12 OFFCURVE",
"216 -12 CURVE SMOOTH",
"332 -12 OFFCURVE",
"377 85 OFFCURVE",
"377 195 CURVE",
"296 195 LINE",
"296 108 OFFCURVE",
"275 61 OFFCURVE",
"216 61 CURVE SMOOTH",
"150 61 OFFCURVE",
"122 123 OFFCURVE",
"122 244 CURVE SMOOTH",
"122 282 LINE SMOOTH",
"122 403 OFFCURVE",
"151 465 OFFCURVE",
"216 465 CURVE SMOOTH",
"275 465 OFFCURVE",
"292 422 OFFCURVE",
"292 331 CURVE",
"377 331 LINE",
"377 465 OFFCURVE",
"330 538 OFFCURVE",
"216 538 CURVE SMOOTH"
);
},
{
closed = 1;
nodes = (
"330 723 LINE",
"250 723 LINE",
"205 644 LINE",
"161 723 LINE",
"81 723 LINE",
"166 588 LINE",
"244 588 LINE"
);
}
);
width = 410;
}
);
unicode = 010D;
},
{
glyphname = ccedilla;
lastChange = "2015-02-05 02:37:04 +0000";
layers = (
{
layerId = UUID0;
name = Regular;
paths = (
{
closed = 1;
nodes = (
"93 538 OFFCURVE",
"36 452 OFFCURVE",
"36 263 CURVE SMOOTH",
"36 101 OFFCURVE",
"77 15 OFFCURVE",
"167 -6 CURVE",
"156 -77 LINE",
"189 -77 LINE SMOOTH",
"215 -77 OFFCURVE",
"223 -85 OFFCURVE",
"223 -101 CURVE SMOOTH",
"223 -120 OFFCURVE",
"209 -125 OFFCURVE",
"187 -125 CURVE SMOOTH",
"111 -125 LINE",
"111 -174 LINE",
"135 -179 OFFCURVE",
"167 -182 OFFCURVE",
"195 -182 CURVE SMOOTH",
"236 -182 OFFCURVE",
"299 -168 OFFCURVE",
"299 -101 CURVE SMOOTH",
"299 -55 OFFCURVE",
"261 -39 OFFCURVE",
"218 -36 CURVE",
"221 -12 LINE",
"333 -9 OFFCURVE",
"377 87 OFFCURVE",
"377 195 CURVE",
"296 195 LINE",
"296 108 OFFCURVE",
"275 61 OFFCURVE",
"216 61 CURVE SMOOTH",
"150 61 OFFCURVE",
"122 123 OFFCURVE",
"122 244 CURVE SMOOTH",
"122 282 LINE SMOOTH",
"122 403 OFFCURVE",
"151 465 OFFCURVE",
"216 465 CURVE SMOOTH",
"275 465 OFFCURVE",
"292 422 OFFCURVE",
"292 331 CURVE",
"377 331 LINE",
"377 465 OFFCURVE",
"330 538 OFFCURVE",
"216 538 CURVE SMOOTH"
);
}
);
width = 410;
}
);
unicode = 00E7;
},
{
glyphname = ccircumflex;
lastChange = "2015-02-05 02:37:04 +0000";
layers = (
{
layerId = UUID0;
name = Regular;
paths = (
{
closed = 1;
nodes = (
"93 538 OFFCURVE",
"36 452 OFFCURVE",
"36 263 CURVE SMOOTH",
"36 74 OFFCURVE",
"92 -12 OFFCURVE",
"216 -12 CURVE SMOOTH",
"332 -12 OFFCURVE",
"377 85 OFFCURVE",
"377 195 CURVE",
"296 195 LINE",
"296 108 OFFCURVE",
"275 61 OFFCURVE",
"216 61 CURVE SMOOTH",
"150 61 OFFCURVE",
"122 123 OFFCURVE",
"122 244 CURVE SMOOTH",
"122 282 LINE SMOOTH",
"122 403 OFFCURVE",
"151 465 OFFCURVE",
"216 465 CURVE SMOOTH",
"275 465 OFFCURVE",
"292 422 OFFCURVE",
"292 331 CURVE",
"377 331 LINE",
"377 465 OFFCURVE",
"330 538 OFFCURVE",
"216 538 CURVE SMOOTH"
);
},
{
closed = 1;
nodes = (
"245 722 LINE",
"167 722 LINE",
"81 587 LINE",
"161 587 LINE",
"206 666 LINE",
"250 587 LINE",
"330 587 LINE"
);
}
);
width = 410;
}
);
unicode = 0109;
},
{
glyphname = cdotaccent;
lastChange = "2015-02-05 02:37:04 +0000";
layers = (
{
layerId = UUID0;
name = Regular;
paths = (
{
closed = 1;
nodes = (
"93 538 OFFCURVE",
"36 452 OFFCURVE",
"36 263 CURVE SMOOTH",
"36 74 OFFCURVE",
"92 -12 OFFCURVE",
"216 -12 CURVE SMOOTH",
"332 -12 OFFCURVE",
"377 85 OFFCURVE",
"377 195 CURVE",
"296 195 LINE",
"296 108 OFFCURVE",
"275 61 OFFCURVE",
"216 61 CURVE SMOOTH",
"150 61 OFFCURVE",
"122 123 OFFCURVE",
"122 244 CURVE SMOOTH",
"122 282 LINE SMOOTH",
"122 403 OFFCURVE",
"151 465 OFFCURVE",
"216 465 CURVE SMOOTH",
"275 465 OFFCURVE",
"292 422 OFFCURVE",
"292 331 CURVE",
"377 331 LINE",
"377 465 OFFCURVE",
"330 538 OFFCURVE",
"216 538 CURVE SMOOTH"
);
},
{
closed = 1;
nodes = (
"249 723 LINE",
"162 723 LINE",
"162 628 LINE",
"249 628 LINE"
);
}
);
width = 410;
}
);
unicode = 010B;
},
{
glyphname = d;
lastChange = "2015-02-05 02:37:04 +0000";
layers = (
{
anchors = (
{
name = center;
position = "{228, 263}";
}
);
layerId = UUID0;
name = Regular;
paths = (
{
closed = 1;
nodes = (
"396 723 LINE",
"314 723 LINE",
"314 476 LINE",
"309 476 LINE",
"291 515 OFFCURVE",
"248 538 OFFCURVE",
"197 538 CURVE SMOOTH",
"110 538 OFFCURVE",
"40 455 OFFCURVE",
"40 264 CURVE SMOOTH",
"40 71 OFFCURVE",
"103 -12 OFFCURVE",
"203 -12 CURVE SMOOTH",
"251 -12 OFFCURVE",
"293 13 OFFCURVE",
"318 61 CURVE",
"323 61 LINE",
"334 0 LINE",
"396 0 LINE"
);
},
{
closed = 1;
nodes = (
"283 465 OFFCURVE",
"314 402 OFFCURVE",
"314 278 CURVE SMOOTH",
"314 244 LINE SMOOTH",
"314 123 OFFCURVE",
"283 61 OFFCURVE",
"220 61 CURVE SMOOTH",
"157 61 OFFCURVE",
"126 113 OFFCURVE",
"126 244 CURVE",
"126 282 LINE SMOOTH",
"126 413 OFFCURVE",
"157 465 OFFCURVE",
"220 465 CURVE SMOOTH"
);
}
);
width = 456;
}
);
unicode = 0064;
},
{
glyphname = eth;
lastChange = "2015-02-05 02:37:04 +0000";
layers = (
{
layerId = UUID0;
name = Regular;
paths = (
{
closed = 1;
nodes = (
"119 723 LINE",
"117 719 LINE",
"134 701 OFFCURVE",
"149 683 OFFCURVE",
"164 666 CURVE",
"93 660 LINE",
"93 600 LINE",
"211 610 LINE",
"232 582 OFFCURVE",
"251 555 OFFCURVE",
"267 526 CURVE",
"252 533 OFFCURVE",
"235 538 OFFCURVE",
"217 538 CURVE SMOOTH",
"114 538 OFFCURVE",
"40 457 OFFCURVE",
"40 263 CURVE SMOOTH",
"40 74 OFFCURVE",
"105 -12 OFFCURVE",
"228 -12 CURVE SMOOTH",
"351 -12 OFFCURVE",
"416 74 OFFCURVE",
"416 263 CURVE SMOOTH",
"416 408 OFFCURVE",
"369 521 OFFCURVE",
"298 618 CURVE",
"369 625 LINE",
"369 685 LINE",
"252 674 LINE",
"238 691 OFFCURVE",
"222 707 OFFCURVE",
"207 723 CURVE"
);
},
{
closed = 1;
nodes = (
"295 465 OFFCURVE",
"330 403 OFFCURVE",
"330 282 CURVE SMOOTH",
"330 244 LINE SMOOTH",
"330 123 OFFCURVE",
"296 61 OFFCURVE",
"228 61 CURVE SMOOTH",
"160 61 OFFCURVE",
"126 123 OFFCURVE",
"126 244 CURVE SMOOTH",
"126 282 LINE SMOOTH",
"126 403 OFFCURVE",
"160 465 OFFCURVE",
"228 465 CURVE SMOOTH"
);
}
);
width = 456;
}
);
unicode = 00F0;
},
{
glyphname = dcaron;
lastChange = "2015-02-05 02:37:04 +0000";
layers = (
{
layerId = UUID0;
name = Regular;
paths = (
{
closed = 1;
nodes = (
"396 723 LINE",
"314 723 LINE",
"314 476 LINE",
"309 476 LINE",
"291 515 OFFCURVE",
"248 538 OFFCURVE",
"197 538 CURVE SMOOTH",
"110 538 OFFCURVE",
"40 455 OFFCURVE",
"40 264 CURVE SMOOTH",
"40 71 OFFCURVE",
"103 -12 OFFCURVE",
"203 -12 CURVE SMOOTH",
"251 -12 OFFCURVE",
"293 13 OFFCURVE",
"318 61 CURVE",
"323 61 LINE",
"334 0 LINE",
"396 0 LINE"
);
},
{
closed = 1;
nodes = (
"283 465 OFFCURVE",
"314 402 OFFCURVE",
"314 278 CURVE SMOOTH",
"314 244 LINE SMOOTH",
"314 123 OFFCURVE",
"283 61 OFFCURVE",
"220 61 CURVE SMOOTH",
"157 61 OFFCURVE",
"126 113 OFFCURVE",
"126 244 CURVE",
"126 282 LINE SMOOTH",
"126 413 OFFCURVE",
"157 465 OFFCURVE",
"220 465 CURVE SMOOTH"
);
},
{
closed = 1;
nodes = (
"536 686 LINE",
"436 686 LINE",
"436 578 LINE",
"476 578 LINE",
"436 454 LINE",
"487 454 LINE",
"536 587 LINE"
);
}
);
width = 504;
}
);
unicode = 010F;
},
{
glyphname = dcroat;
lastChange = "2015-02-05 02:37:04 +0000";
layers = (
{
layerId = UUID0;
name = Regular;
paths = (
{
closed = 1;
nodes = (
"396 723 LINE",
"314 723 LINE",
"314 651 LINE",
"203 651 LINE",
"203 583 LINE",
"314 583 LINE",
"314 476 LINE",
"309 476 LINE",
"291 515 OFFCURVE",
"248 538 OFFCURVE",
"197 538 CURVE SMOOTH",
"110 538 OFFCURVE",
"40 455 OFFCURVE",
"40 264 CURVE SMOOTH",
"40 71 OFFCURVE",
"103 -12 OFFCURVE",
"203 -12 CURVE SMOOTH",
"251 -12 OFFCURVE",
"293 13 OFFCURVE",
"318 61 CURVE",
"323 61 LINE",
"334 0 LINE",
"396 0 LINE",
"396 583 LINE",
"454 583 LINE",
"454 651 LINE",
"396 651 LINE"
);
},
{
closed = 1;
nodes = (
"283 465 OFFCURVE",
"314 402 OFFCURVE",
"314 278 CURVE SMOOTH",
"314 244 LINE SMOOTH",
"314 123 OFFCURVE",
"283 61 OFFCURVE",
"220 61 CURVE SMOOTH",
"157 61 OFFCURVE",
"126 113 OFFCURVE",
"126 244 CURVE SMOOTH",
"126 282 LINE SMOOTH",
"126 413 OFFCURVE",
"157 465 OFFCURVE",
"220 465 CURVE SMOOTH"
);
}
);
width = 453;
}
);
unicode = 0111;
},
{
glyphname = e;
lastChange = "2015-02-05 02:37:04 +0000";
layers = (
{
anchors = (
{
name = bottom;
position = "{228, 0}";
},
{
name = ogonek;
position = "{322, 5}";
},
{
name = top;
position = "{228, 526}";
}
);
layerId = UUID0;
name = Regular;
paths = (
{
closed = 1;
nodes = (
"108 538 OFFCURVE",
"42 452 OFFCURVE",
"42 263 CURVE SMOOTH",
"42 68 OFFCURVE",
"110 -12 OFFCURVE",
"241 -12 CURVE SMOOTH",
"343 -12 OFFCURVE",
"413 61 OFFCURVE",
"413 179 CURVE",
"332 179 LINE",
"332 106 OFFCURVE",
"295 61 OFFCURVE",
"243 61 CURVE SMOOTH",
"165 61 OFFCURVE",
"129 116 OFFCURVE",
"128 239 CURVE",
"413 239 LINE",
"413 291 LINE SMOOTH",
"413 467 OFFCURVE",
"355 538 OFFCURVE",
"240 538 CURVE SMOOTH"
);
},
{
closed = 1;
nodes = (
"297 465 OFFCURVE",
"327 412 OFFCURVE",
"327 312 CURVE",
"129 312 LINE",
"136 413 OFFCURVE",
"167 465 OFFCURVE",
"240 465 CURVE SMOOTH"
);
}
);
width = 456;
}
);
unicode = 0065;
},
{
glyphname = eacute;
lastChange = "2015-02-05 02:37:04 +0000";
layers = (
{
layerId = UUID0;
name = Regular;
paths = (
{
closed = 1;
nodes = (
"108 538 OFFCURVE",
"42 452 OFFCURVE",
"42 263 CURVE SMOOTH",
"42 68 OFFCURVE",
"110 -12 OFFCURVE",
"241 -12 CURVE SMOOTH",
"343 -12 OFFCURVE",
"413 61 OFFCURVE",
"413 179 CURVE",
"332 179 LINE",
"332 106 OFFCURVE",
"295 61 OFFCURVE",
"243 61 CURVE SMOOTH",
"165 61 OFFCURVE",
"129 116 OFFCURVE",
"128 239 CURVE",
"413 239 LINE",
"413 291 LINE SMOOTH",
"413 467 OFFCURVE",
"355 538 OFFCURVE",
"240 538 CURVE SMOOTH"
);
},
{
closed = 1;
nodes = (
"297 465 OFFCURVE",
"327 412 OFFCURVE",
"327 312 CURVE",
"129 312 LINE",
"136 413 OFFCURVE",
"167 465 OFFCURVE",
"240 465 CURVE SMOOTH"
);
},
{
closed = 1;
nodes = (
"357 720 LINE",
"356 723 LINE",
"266 723 LINE",
"180 591 LINE",
"250 591 LINE"
);
}
);
width = 456;
}
);
unicode = 00E9;
},
{
glyphname = ebreve;
lastChange = "2015-02-05 02:37:04 +0000";
layers = (
{
layerId = UUID0;
name = Regular;
paths = (
{
closed = 1;
nodes = (
"108 538 OFFCURVE",
"42 452 OFFCURVE",
"42 263 CURVE SMOOTH",
"42 68 OFFCURVE",
"110 -12 OFFCURVE",
"241 -12 CURVE SMOOTH",
"343 -12 OFFCURVE",
"413 61 OFFCURVE",
"413 179 CURVE",
"332 179 LINE",
"332 106 OFFCURVE",
"295 61 OFFCURVE",
"243 61 CURVE SMOOTH",
"165 61 OFFCURVE",
"129 116 OFFCURVE",
"128 239 CURVE",
"413 239 LINE",
"413 291 LINE SMOOTH",
"413 467 OFFCURVE",
"355 538 OFFCURVE",
"240 538 CURVE SMOOTH"
);
},
{
closed = 1;
nodes = (
"297 465 OFFCURVE",
"327 412 OFFCURVE",
"327 312 CURVE",
"129 312 LINE",
"136 413 OFFCURVE",
"167 465 OFFCURVE",
"240 465 CURVE SMOOTH"
);
},
{
closed = 1;
nodes = (
"288 723 LINE",
"286 709 OFFCURVE",
"262 690 OFFCURVE",
"228 690 CURVE SMOOTH",
"194 690 OFFCURVE",
"172 709 OFFCURVE",
"169 723 CURVE",
"104 723 LINE",
"104 678 OFFCURVE",
"152 626 OFFCURVE",
"228 626 CURVE SMOOTH",
"305 626 OFFCURVE",
"352 678 OFFCURVE",
"352 723 CURVE"
);
}
);
width = 456;
}
);
unicode = 0115;
},
{
glyphname = ecaron;
lastChange = "2015-02-05 02:37:04 +0000";
layers = (
{
layerId = UUID0;
name = Regular;
paths = (
{
closed = 1;
nodes = (
"108 538 OFFCURVE",
"42 452 OFFCURVE",
"42 263 CURVE SMOOTH",
"42 68 OFFCURVE",
"110 -12 OFFCURVE",
"241 -12 CURVE SMOOTH",
"343 -12 OFFCURVE",
"413 61 OFFCURVE",
"413 179 CURVE",
"332 179 LINE",
"332 106 OFFCURVE",
"295 61 OFFCURVE",
"243 61 CURVE SMOOTH",
"165 61 OFFCURVE",
"129 116 OFFCURVE",
"128 239 CURVE",
"413 239 LINE",
"413 291 LINE SMOOTH",
"413 467 OFFCURVE",
"355 538 OFFCURVE",
"240 538 CURVE SMOOTH"
);
},
{
closed = 1;
nodes = (
"297 465 OFFCURVE",
"327 412 OFFCURVE",
"327 312 CURVE",
"129 312 LINE",
"136 413 OFFCURVE",
"167 465 OFFCURVE",
"240 465 CURVE SMOOTH"
);
},
{
closed = 1;
nodes = (
"353 723 LINE",
"273 723 LINE",
"228 644 LINE",
"184 723 LINE",
"104 723 LINE",
"188 588 LINE",
"267 588 LINE"
);
}
);
width = 456;
}
);
unicode = 011B;
},
{
glyphname = ecircumflex;
lastChange = "2015-02-05 02:37:04 +0000";
layers = (
{
layerId = UUID0;
name = Regular;
paths = (
{
closed = 1;
nodes = (
"108 538 OFFCURVE",
"42 452 OFFCURVE",
"42 263 CURVE SMOOTH",
"42 68 OFFCURVE",
"110 -12 OFFCURVE",
"241 -12 CURVE SMOOTH",
"343 -12 OFFCURVE",
"413 61 OFFCURVE",
"413 179 CURVE",
"332 179 LINE",
"332 106 OFFCURVE",
"295 61 OFFCURVE",
"243 61 CURVE SMOOTH",
"165 61 OFFCURVE",
"129 116 OFFCURVE",
"128 239 CURVE",
"413 239 LINE",
"413 291 LINE SMOOTH",
"413 467 OFFCURVE",
"355 538 OFFCURVE",
"240 538 CURVE SMOOTH"
);
},
{
closed = 1;
nodes = (
"297 465 OFFCURVE",
"327 412 OFFCURVE",
"327 312 CURVE",
"129 312 LINE",
"136 413 OFFCURVE",
"167 465 OFFCURVE",
"240 465 CURVE SMOOTH"
);
},
{
closed = 1;
nodes = (
"268 722 LINE",
"189 722 LINE",
"104 587 LINE",
"184 587 LINE",
"229 666 LINE",
"273 587 LINE",
"353 587 LINE"
);
}
);
width = 456;
}
);
unicode = 00EA;
},
{
glyphname = edieresis;
lastChange = "2015-02-05 02:37:04 +0000";
layers = (
{
layerId = UUID0;
name = Regular;
paths = (
{
closed = 1;
nodes = (
"108 538 OFFCURVE",
"42 452 OFFCURVE",
"42 263 CURVE SMOOTH",
"42 68 OFFCURVE",
"110 -12 OFFCURVE",
"241 -12 CURVE SMOOTH",
"343 -12 OFFCURVE",
"413 61 OFFCURVE",
"413 179 CURVE",
"332 179 LINE",
"332 106 OFFCURVE",
"295 61 OFFCURVE",
"243 61 CURVE SMOOTH",
"165 61 OFFCURVE",
"129 116 OFFCURVE",
"128 239 CURVE",
"413 239 LINE",
"413 291 LINE SMOOTH",
"413 467 OFFCURVE",
"355 538 OFFCURVE",
"240 538 CURVE SMOOTH"
);
},
{
closed = 1;
nodes = (
"297 465 OFFCURVE",
"327 412 OFFCURVE",
"327 312 CURVE",
"129 312 LINE",
"136 413 OFFCURVE",
"167 465 OFFCURVE",
"240 465 CURVE SMOOTH"
);
},
{
closed = 1;
nodes = (
"347 723 LINE",
"259 723 LINE",
"259 628 LINE",
"347 628 LINE"
);
},
{
closed = 1;
nodes = (
"196 723 LINE",
"109 723 LINE",
"109 628 LINE",
"196 628 LINE"
);
}
);
width = 456;
}
);
unicode = 00EB;
},
{
glyphname = edotaccent;
lastChange = "2015-02-05 02:37:04 +0000";
layers = (
{
layerId = UUID0;
name = Regular;
paths = (
{
closed = 1;
nodes = (
"108 538 OFFCURVE",
"42 452 OFFCURVE",
"42 263 CURVE SMOOTH",
"42 68 OFFCURVE",
"110 -12 OFFCURVE",
"241 -12 CURVE SMOOTH",
"343 -12 OFFCURVE",
"413 61 OFFCURVE",
"413 179 CURVE",
"332 179 LINE",
"332 106 OFFCURVE",
"295 61 OFFCURVE",
"243 61 CURVE SMOOTH",
"165 61 OFFCURVE",
"129 116 OFFCURVE",
"128 239 CURVE",
"413 239 LINE",
"413 291 LINE SMOOTH",
"413 467 OFFCURVE",
"355 538 OFFCURVE",
"240 538 CURVE SMOOTH"
);
},
{
closed = 1;
nodes = (
"297 465 OFFCURVE",
"327 412 OFFCURVE",
"327 312 CURVE",
"129 312 LINE",
"136 413 OFFCURVE",
"167 465 OFFCURVE",
"240 465 CURVE SMOOTH"
);
},
{
closed = 1;
nodes = (
"272 723 LINE",
"185 723 LINE",
"185 628 LINE",
"272 628 LINE"
);
}
);
width = 456;
}
);
unicode = 0117;
},
{
glyphname = egrave;
lastChange = "2015-02-05 02:37:04 +0000";
layers = (
{
layerId = UUID0;
name = Regular;
paths = (
{
closed = 1;
nodes = (
"108 538 OFFCURVE",
"42 452 OFFCURVE",
"42 263 CURVE SMOOTH",
"42 68 OFFCURVE",
"110 -12 OFFCURVE",
"241 -12 CURVE SMOOTH",
"343 -12 OFFCURVE",
"413 61 OFFCURVE",
"413 179 CURVE",
"332 179 LINE",
"332 106 OFFCURVE",
"295 61 OFFCURVE",
"243 61 CURVE SMOOTH",
"165 61 OFFCURVE",
"129 116 OFFCURVE",
"128 239 CURVE",
"413 239 LINE",
"413 291 LINE SMOOTH",
"413 467 OFFCURVE",
"355 538 OFFCURVE",
"240 538 CURVE SMOOTH"
);
},
{
closed = 1;
nodes = (
"297 465 OFFCURVE",
"327 412 OFFCURVE",
"327 312 CURVE",
"129 312 LINE",
"136 413 OFFCURVE",
"167 465 OFFCURVE",
"240 465 CURVE SMOOTH"
);
},
{
closed = 1;
nodes = (
"299 591 LINE",
"213 723 LINE",
"123 723 LINE",
"122 720 LINE",
"230 591 LINE"
);
}
);
width = 456;
}
);
unicode = 00E8;
},
{
glyphname = emacron;
lastChange = "2015-02-05 02:37:04 +0000";
layers = (
{
layerId = UUID0;
name = Regular;
paths = (
{
closed = 1;
nodes = (
"108 538 OFFCURVE",
"42 452 OFFCURVE",
"42 263 CURVE SMOOTH",
"42 68 OFFCURVE",
"110 -12 OFFCURVE",
"241 -12 CURVE SMOOTH",
"343 -12 OFFCURVE",
"413 61 OFFCURVE",
"413 179 CURVE",
"332 179 LINE",
"332 106 OFFCURVE",
"295 61 OFFCURVE",
"243 61 CURVE SMOOTH",
"165 61 OFFCURVE",
"129 116 OFFCURVE",
"128 239 CURVE",
"413 239 LINE",
"413 291 LINE SMOOTH",
"413 467 OFFCURVE",
"355 538 OFFCURVE",
"240 538 CURVE SMOOTH"
);
},
{
closed = 1;
nodes = (
"297 465 OFFCURVE",
"327 412 OFFCURVE",
"327 312 CURVE",
"129 312 LINE",
"136 413 OFFCURVE",
"167 465 OFFCURVE",
"240 465 CURVE SMOOTH"
);
},
{
closed = 1;
nodes = (
"354 671 LINE",
"103 671 LINE",
"103 599 LINE",
"354 599 LINE"
);
}
);
width = 456;
}
);
unicode = 0113;
},
{
glyphname = eogonek;
lastChange = "2015-02-05 02:37:04 +0000";
layers = (
{
layerId = UUID0;
name = Regular;
paths = (
{
closed = 1;
nodes = (
"108 538 OFFCURVE",
"42 452 OFFCURVE",
"42 263 CURVE SMOOTH",
"42 68 OFFCURVE",
"110 -12 OFFCURVE",
"241 -12 CURVE SMOOTH",
"243 -12 LINE",
"227 -32 OFFCURVE",
"216 -57 OFFCURVE",
"216 -92 CURVE SMOOTH",
"216 -161 OFFCURVE",
"267 -182 OFFCURVE",
"310 -182 CURVE SMOOTH",
"330 -182 OFFCURVE",
"350 -177 OFFCURVE",
"371 -168 CURVE",
"371 -117 LINE",
"339 -117 LINE SMOOTH",
"306 -117 OFFCURVE",
"294 -90 OFFCURVE",
"294 -62 CURVE SMOOTH",
"294 -34 OFFCURVE",
"311 -7 OFFCURVE",
"323 7 CURVE",
"378 36 OFFCURVE",
"413 96 OFFCURVE",
"413 179 CURVE",
"332 179 LINE",
"332 106 OFFCURVE",
"295 61 OFFCURVE",
"243 61 CURVE SMOOTH",
"165 61 OFFCURVE",
"129 116 OFFCURVE",
"128 239 CURVE",
"413 239 LINE",
"413 291 LINE SMOOTH",
"413 467 OFFCURVE",
"355 538 OFFCURVE",
"240 538 CURVE SMOOTH"
);
},
{
closed = 1;
nodes = (
"297 465 OFFCURVE",
"327 412 OFFCURVE",
"327 312 CURVE",
"129 312 LINE",
"136 413 OFFCURVE",
"167 465 OFFCURVE",
"240 465 CURVE SMOOTH"
);
}
);
width = 456;
}
);
unicode = 0119;
},
{
glyphname = f;
lastChange = "2015-02-05 02:37:04 +0000";
layers = (
{
layerId = UUID0;
name = Regular;
paths = (
{
closed = 1;
nodes = (
"79 731 OFFCURVE",
"55 670 OFFCURVE",
"55 610 CURVE SMOOTH",
"55 526 LINE",
"9 526 LINE",
"9 453 LINE",
"55 453 LINE",
"55 0 LINE",
"137 0 LINE",
"137 453 LINE",
"228 453 LINE",
"228 526 LINE",
"137 526 LINE",
"137 614 LINE",
"137 645 OFFCURVE",
"153 662 OFFCURVE",
"184 662 CURVE SMOOTH",
"228 662 LINE",
"228 719 LINE",
"211 725 OFFCURVE",
"183 731 OFFCURVE",
"159 731 CURVE SMOOTH"
);
}
);
width = 228;
}
);
unicode = 0066;
},
{
glyphname = g;
lastChange = "2015-02-05 02:37:04 +0000";
layers = (
{
anchors = (
{
name = top;
position = "{228, 526}";
}
);
layerId = UUID0;
name = Regular;
paths = (
{
closed = 1;
nodes = (
"364 611 LINE",
"359 578 OFFCURVE",
"346 544 OFFCURVE",
"299 519 CURVE",
"277 531 OFFCURVE",
"250 538 OFFCURVE",
"223 538 CURVE SMOOTH",
"116 538 OFFCURVE",
"51 471 OFFCURVE",
"51 361 CURVE SMOOTH",
"51 302 OFFCURVE",
"74 256 OFFCURVE",
"112 225 CURVE",
"68 209 OFFCURVE",
"38 177 OFFCURVE",
"38 134 CURVE SMOOTH",
"38 103 OFFCURVE",
"54 72 OFFCURVE",
"81 55 CURVE",
"39 39 OFFCURVE",
"13 -6 OFFCURVE",
"13 -57 CURVE SMOOTH",
"13 -126 OFFCURVE",
"57 -182 OFFCURVE",
"143 -182 CURVE SMOOTH",
"292 -182 LINE SMOOTH",
"392 -182 OFFCURVE",
"446 -116 OFFCURVE",
"446 -33 CURVE SMOOTH",
"446 34 OFFCURVE",
"398 90 OFFCURVE",
"322 90 CURVE SMOOTH",
"172 90 LINE SMOOTH",
"146 90 OFFCURVE",
"124 111 OFFCURVE",
"124 137 CURVE SMOOTH",
"124 163 OFFCURVE",
"145 184 OFFCURVE",
"172 184 CURVE SMOOTH",
"227 184 LINE SMOOTH",
"329 185 OFFCURVE",
"395 252 OFFCURVE",
"395 361 CURVE SMOOTH",
"395 413 OFFCURVE",
"377 455 OFFCURVE",
"348 485 CURVE",
"403 499 OFFCURVE",
"436 548 OFFCURVE",
"436 611 CURVE"
);
},
{
closed = 1;
nodes = (
"301 12 LINE",
"343 12 OFFCURVE",
"363 -15 OFFCURVE",
"363 -49 CURVE SMOOTH",
"363 -83 OFFCURVE",
"336 -111 OFFCURVE",
"301 -111 CURVE SMOOTH",
"156 -111 LINE",
"115 -111 OFFCURVE",
"95 -83 OFFCURVE",
"95 -49 CURVE SMOOTH",
"95 -15 OFFCURVE",
"114 12 OFFCURVE",
"156 12 CURVE SMOOTH"
);
},
{
closed = 1;
nodes = (
"280 470 OFFCURVE",
"312 431 OFFCURVE",
"312 361 CURVE SMOOTH",
"312 294 OFFCURVE",
"280 252 OFFCURVE",
"222 252 CURVE SMOOTH",
"164 252 OFFCURVE",
"133 291 OFFCURVE",
"133 361 CURVE SMOOTH",
"133 428 OFFCURVE",
"164 470 OFFCURVE",
"222 470 CURVE SMOOTH"
);
}
);
width = 456;
}
);
unicode = 0067;
},
{
glyphname = gbreve;
lastChange = "2015-02-05 02:37:04 +0000";
layers = (
{
layerId = UUID0;
name = Regular;
paths = (
{
closed = 1;
nodes = (
"364 611 LINE",
"359 578 OFFCURVE",
"346 544 OFFCURVE",
"299 519 CURVE",
"277 531 OFFCURVE",
"250 538 OFFCURVE",
"223 538 CURVE SMOOTH",
"116 538 OFFCURVE",
"51 471 OFFCURVE",
"51 361 CURVE SMOOTH",
"51 302 OFFCURVE",
"74 256 OFFCURVE",
"112 225 CURVE",
"68 209 OFFCURVE",
"38 177 OFFCURVE",
"38 134 CURVE SMOOTH",
"38 103 OFFCURVE",
"54 72 OFFCURVE",
"81 55 CURVE",
"39 39 OFFCURVE",
"13 -6 OFFCURVE",
"13 -57 CURVE SMOOTH",
"13 -126 OFFCURVE",
"57 -182 OFFCURVE",
"143 -182 CURVE SMOOTH",
"292 -182 LINE SMOOTH",
"392 -182 OFFCURVE",
"446 -116 OFFCURVE",
"446 -33 CURVE SMOOTH",
"446 34 OFFCURVE",
"398 90 OFFCURVE",
"322 90 CURVE SMOOTH",
"172 90 LINE SMOOTH",
"146 90 OFFCURVE",
"124 111 OFFCURVE",
"124 137 CURVE SMOOTH",
"124 163 OFFCURVE",
"145 184 OFFCURVE",
"172 184 CURVE SMOOTH",
"227 184 LINE SMOOTH",
"329 185 OFFCURVE",
"395 252 OFFCURVE",
"395 361 CURVE SMOOTH",
"395 413 OFFCURVE",
"377 455 OFFCURVE",
"348 485 CURVE",
"403 499 OFFCURVE",
"436 548 OFFCURVE",
"436 611 CURVE"
);
},
{
closed = 1;
nodes = (
"301 12 LINE",
"343 12 OFFCURVE",
"363 -15 OFFCURVE",
"363 -49 CURVE SMOOTH",
"363 -83 OFFCURVE",
"336 -111 OFFCURVE",
"301 -111 CURVE SMOOTH",
"156 -111 LINE",
"115 -111 OFFCURVE",
"95 -83 OFFCURVE",
"95 -49 CURVE SMOOTH",
"95 -15 OFFCURVE",
"114 12 OFFCURVE",
"156 12 CURVE SMOOTH"
);
},
{
closed = 1;
nodes = (
"280 470 OFFCURVE",
"312 431 OFFCURVE",
"312 361 CURVE SMOOTH",
"312 294 OFFCURVE",
"280 252 OFFCURVE",
"222 252 CURVE SMOOTH",
"164 252 OFFCURVE",
"133 291 OFFCURVE",
"133 361 CURVE SMOOTH",
"133 428 OFFCURVE",
"164 470 OFFCURVE",
"222 470 CURVE SMOOTH"
);
},
{
closed = 1;
nodes = (
"288 723 LINE",
"286 709 OFFCURVE",
"262 690 OFFCURVE",
"228 690 CURVE SMOOTH",
"194 690 OFFCURVE",
"172 709 OFFCURVE",
"169 723 CURVE",
"104 723 LINE",
"104 678 OFFCURVE",
"152 626 OFFCURVE",
"228 626 CURVE SMOOTH",
"305 626 OFFCURVE",
"352 678 OFFCURVE",
"352 723 CURVE"
);
}
);
width = 456;
}
);
unicode = 011F;
},
{
glyphname = gcircumflex;
lastChange = "2015-02-05 02:37:04 +0000";
layers = (
{
layerId = UUID0;
name = Regular;
paths = (
{
closed = 1;
nodes = (
"369 611 LINE",
"367 563 OFFCURVE",
"350 544 OFFCURVE",
"299 519 CURVE",
"277 531 OFFCURVE",
"250 538 OFFCURVE",
"223 538 CURVE SMOOTH",
"116 538 OFFCURVE",
"51 471 OFFCURVE",
"51 361 CURVE SMOOTH",
"51 302 OFFCURVE",
"74 256 OFFCURVE",
"112 225 CURVE",
"68 209 OFFCURVE",
"38 177 OFFCURVE",
"38 134 CURVE SMOOTH",
"38 103 OFFCURVE",
"54 72 OFFCURVE",
"81 55 CURVE",
"39 39 OFFCURVE",
"13 -6 OFFCURVE",
"13 -57 CURVE SMOOTH",
"13 -126 OFFCURVE",
"57 -182 OFFCURVE",
"143 -182 CURVE SMOOTH",
"292 -182 LINE SMOOTH",
"392 -182 OFFCURVE",
"446 -116 OFFCURVE",
"446 -33 CURVE SMOOTH",
"446 34 OFFCURVE",
"398 90 OFFCURVE",
"322 90 CURVE SMOOTH",
"172 90 LINE SMOOTH",
"146 90 OFFCURVE",
"124 111 OFFCURVE",
"124 137 CURVE SMOOTH",
"124 163 OFFCURVE",
"145 184 OFFCURVE",
"172 184 CURVE SMOOTH",
"227 184 LINE SMOOTH",
"329 185 OFFCURVE",
"395 252 OFFCURVE",
"395 361 CURVE SMOOTH",
"395 413 OFFCURVE",
"377 455 OFFCURVE",
"348 485 CURVE",
"403 499 OFFCURVE",
"436 548 OFFCURVE",
"436 611 CURVE"
);
},
{
closed = 1;
nodes = (
"301 12 LINE",
"343 12 OFFCURVE",
"363 -15 OFFCURVE",
"363 -49 CURVE SMOOTH",
"363 -83 OFFCURVE",
"336 -111 OFFCURVE",
"301 -111 CURVE SMOOTH",
"156 -111 LINE",
"115 -111 OFFCURVE",
"95 -83 OFFCURVE",
"95 -49 CURVE SMOOTH",
"95 -15 OFFCURVE",
"114 12 OFFCURVE",
"156 12 CURVE SMOOTH"
);
},
{
closed = 1;
nodes = (
"280 470 OFFCURVE",
"312 431 OFFCURVE",
"312 361 CURVE SMOOTH",
"312 294 OFFCURVE",
"280 252 OFFCURVE",
"222 252 CURVE SMOOTH",
"164 252 OFFCURVE",
"133 291 OFFCURVE",
"133 361 CURVE SMOOTH",
"133 428 OFFCURVE",
"164 470 OFFCURVE",
"222 470 CURVE SMOOTH"
);
},
{
closed = 1;
nodes = (
"268 722 LINE",
"189 722 LINE",
"104 587 LINE",
"184 587 LINE",
"229 666 LINE",
"273 587 LINE",
"353 587 LINE"
);
}
);
width = 456;
}
);
unicode = 011D;
},
{
glyphname = gcommaaccent;
lastChange = "2015-02-05 02:37:04 +0000";
layers = (
{
layerId = UUID0;
name = Regular;
paths = (
{
closed = 1;
nodes = (
"364 611 LINE",
"359 578 OFFCURVE",
"346 544 OFFCURVE",
"299 519 CURVE",
"277 531 OFFCURVE",
"250 538 OFFCURVE",
"223 538 CURVE SMOOTH",
"116 538 OFFCURVE",
"51 471 OFFCURVE",
"51 361 CURVE SMOOTH",
"51 302 OFFCURVE",
"74 256 OFFCURVE",
"112 225 CURVE",
"68 209 OFFCURVE",
"38 177 OFFCURVE",
"38 134 CURVE SMOOTH",
"38 103 OFFCURVE",
"54 72 OFFCURVE",
"81 55 CURVE",
"39 39 OFFCURVE",
"13 -6 OFFCURVE",
"13 -57 CURVE SMOOTH",
"13 -126 OFFCURVE",
"57 -182 OFFCURVE",
"143 -182 CURVE SMOOTH",
"292 -182 LINE SMOOTH",
"392 -182 OFFCURVE",
"446 -116 OFFCURVE",
"446 -33 CURVE SMOOTH",
"446 34 OFFCURVE",
"398 90 OFFCURVE",
"322 90 CURVE SMOOTH",
"172 90 LINE SMOOTH",
"146 90 OFFCURVE",
"124 111 OFFCURVE",
"124 137 CURVE SMOOTH",
"124 163 OFFCURVE",
"145 184 OFFCURVE",
"172 184 CURVE SMOOTH",
"227 184 LINE SMOOTH",
"329 185 OFFCURVE",
"395 252 OFFCURVE",
"395 361 CURVE SMOOTH",
"395 413 OFFCURVE",
"377 455 OFFCURVE",
"348 485 CURVE",
"403 499 OFFCURVE",
"436 548 OFFCURVE",
"436 611 CURVE"
);
},
{
closed = 1;
nodes = (
"301 12 LINE",
"343 12 OFFCURVE",
"363 -15 OFFCURVE",
"363 -49 CURVE SMOOTH",
"363 -83 OFFCURVE",
"336 -111 OFFCURVE",
"301 -111 CURVE SMOOTH",
"156 -111 LINE",
"115 -111 OFFCURVE",
"95 -83 OFFCURVE",
"95 -49 CURVE SMOOTH",
"95 -15 OFFCURVE",
"114 12 OFFCURVE",
"156 12 CURVE SMOOTH"
);
},
{
closed = 1;
nodes = (
"280 470 OFFCURVE",
"312 431 OFFCURVE",
"312 361 CURVE SMOOTH",
"312 294 OFFCURVE",
"280 252 OFFCURVE",
"222 252 CURVE SMOOTH",
"164 252 OFFCURVE",
"133 291 OFFCURVE",
"133 361 CURVE SMOOTH",
"133 428 OFFCURVE",
"164 470 OFFCURVE",
"222 470 CURVE SMOOTH"
);
},
{
closed = 1;
nodes = (
"170 595 LINE",
"256 595 LINE",
"256 686 LINE",
"222 686 LINE",
"244 757 LINE",
"200 757 LINE",
"170 679 LINE"
);
}
);
width = 456;
}
);
unicode = 0123;
},
{
glyphname = gdotaccent;
lastChange = "2015-02-05 02:37:04 +0000";
layers = (
{
layerId = UUID0;
name = Regular;
paths = (
{
closed = 1;
nodes = (
"364 611 LINE",
"359 578 OFFCURVE",
"346 544 OFFCURVE",
"299 519 CURVE",
"277 531 OFFCURVE",
"250 538 OFFCURVE",
"223 538 CURVE SMOOTH",
"116 538 OFFCURVE",
"51 471 OFFCURVE",
"51 361 CURVE SMOOTH",
"51 302 OFFCURVE",
"74 256 OFFCURVE",
"112 225 CURVE",
"68 209 OFFCURVE",
"38 177 OFFCURVE",
"38 134 CURVE SMOOTH",
"38 103 OFFCURVE",
"54 72 OFFCURVE",
"81 55 CURVE",
"39 39 OFFCURVE",
"13 -6 OFFCURVE",
"13 -57 CURVE SMOOTH",
"13 -126 OFFCURVE",
"57 -182 OFFCURVE",
"143 -182 CURVE SMOOTH",
"292 -182 LINE SMOOTH",
"392 -182 OFFCURVE",
"446 -116 OFFCURVE",
"446 -33 CURVE SMOOTH",
"446 34 OFFCURVE",
"398 90 OFFCURVE",
"322 90 CURVE SMOOTH",
"172 90 LINE SMOOTH",
"146 90 OFFCURVE",
"124 111 OFFCURVE",
"124 137 CURVE SMOOTH",
"124 163 OFFCURVE",
"145 184 OFFCURVE",
"172 184 CURVE SMOOTH",
"227 184 LINE SMOOTH",
"329 185 OFFCURVE",
"395 252 OFFCURVE",
"395 361 CURVE SMOOTH",
"395 413 OFFCURVE",
"377 455 OFFCURVE",
"348 485 CURVE",
"403 499 OFFCURVE",
"436 548 OFFCURVE",
"436 611 CURVE"
);
},
{
closed = 1;
nodes = (
"301 12 LINE",
"343 12 OFFCURVE",
"363 -15 OFFCURVE",
"363 -49 CURVE SMOOTH",
"363 -83 OFFCURVE",
"336 -111 OFFCURVE",
"301 -111 CURVE SMOOTH",
"156 -111 LINE",
"115 -111 OFFCURVE",
"95 -83 OFFCURVE",
"95 -49 CURVE SMOOTH",
"95 -15 OFFCURVE",
"114 12 OFFCURVE",
"156 12 CURVE SMOOTH"
);
},
{
closed = 1;
nodes = (
"280 470 OFFCURVE",
"312 431 OFFCURVE",
"312 361 CURVE SMOOTH",
"312 294 OFFCURVE",
"280 252 OFFCURVE",
"222 252 CURVE SMOOTH",
"164 252 OFFCURVE",
"133 291 OFFCURVE",
"133 361 CURVE SMOOTH",
"133 428 OFFCURVE",
"164 470 OFFCURVE",
"222 470 CURVE SMOOTH"
);
},
{
closed = 1;
nodes = (
"272 723 LINE",
"185 723 LINE",
"185 628 LINE",
"272 628 LINE"
);
}
);
width = 456;
}
);
unicode = 0121;
},
{
glyphname = h;
lastChange = "2015-02-05 02:37:04 +0000";
layers = (
{
anchors = (
{
name = center;
position = "{228, 263}";
},
{
name = top;
position = "{103, 686}";
}
);
layerId = UUID0;
name = Regular;
paths = (
{
closed = 1;
nodes = (
"142 723 LINE",
"60 723 LINE",
"60 0 LINE",
"142 0 LINE",
"142 321 LINE SMOOTH",
"142 412 OFFCURVE",
"188 465 OFFCURVE",
"240 465 CURVE SMOOTH",
"284 465 OFFCURVE",
"314 446 OFFCURVE",
"314 373 CURVE SMOOTH",
"314 0 LINE",
"396 0 LINE",
"396 379 LINE SMOOTH",
"396 496 OFFCURVE",
"345 538 OFFCURVE",
"266 538 CURVE SMOOTH",
"214 538 OFFCURVE",
"175 518 OFFCURVE",
"148 471 CURVE",
"142 471 LINE"
);
}
);
width = 456;
}
);
unicode = 0068;
},
{
glyphname = hbar;
lastChange = "2015-02-05 02:37:04 +0000";
layers = (
{
layerId = UUID0;
name = Regular;
paths = (
{
closed = 1;
nodes = (
"142 723 LINE",
"60 723 LINE",
"60 651 LINE",
"0 651 LINE",
"0 583 LINE",
"60 583 LINE",
"60 0 LINE",
"142 0 LINE",
"142 321 LINE SMOOTH",
"142 412 OFFCURVE",
"188 465 OFFCURVE",
"240 465 CURVE SMOOTH",
"284 465 OFFCURVE",
"314 446 OFFCURVE",
"314 373 CURVE SMOOTH",
"314 0 LINE",
"396 0 LINE",
"396 379 LINE SMOOTH",
"396 496 OFFCURVE",
"345 538 OFFCURVE",
"266 538 CURVE SMOOTH",
"214 538 OFFCURVE",
"175 518 OFFCURVE",
"148 471 CURVE",
"142 471 LINE",
"142 583 LINE",
"250 583 LINE",
"250 651 LINE",
"142 651 LINE"
);
}
);
width = 456;
}
);
unicode = 0127;
},
{
glyphname = hcircumflex;
lastChange = "2015-02-05 02:37:04 +0000";
layers = (
{
layerId = UUID0;
name = Regular;
paths = (
{
closed = 1;
nodes = (
"142 723 LINE",
"60 723 LINE",
"60 0 LINE",
"142 0 LINE",
"142 321 LINE SMOOTH",
"142 412 OFFCURVE",
"188 465 OFFCURVE",
"240 465 CURVE SMOOTH",
"284 465 OFFCURVE",
"314 446 OFFCURVE",
"314 373 CURVE SMOOTH",
"314 0 LINE",
"396 0 LINE",
"396 379 LINE SMOOTH",
"396 496 OFFCURVE",
"345 538 OFFCURVE",
"266 538 CURVE SMOOTH",
"214 538 OFFCURVE",
"175 518 OFFCURVE",
"148 471 CURVE",
"142 471 LINE"
);
},
{
closed = 1;
nodes = (
"143 882 LINE",
"64 882 LINE",
"-22 747 LINE",
"59 747 LINE",
"104 826 LINE",
"148 747 LINE",
"228 747 LINE"
);
}
);
width = 456;
}
);
unicode = 0125;
},
{
glyphname = i;
lastChange = "2015-02-05 02:37:04 +0000";
layers = (
{
layerId = UUID0;
name = Regular;
paths = (
{
closed = 1;
nodes = (
"132 526 LINE",
"50 526 LINE",
"50 0 LINE",
"132 0 LINE"
);
},
{
closed = 1;
nodes = (
"132 723 LINE",
"50 723 LINE",
"50 625 LINE",
"132 625 LINE"
);
}
);
width = 182;
}
);
unicode = 0069;
},
{
glyphname = dotlessi;
lastChange = "2015-02-05 02:37:04 +0000";
layers = (
{
anchors = (
{
name = ogonek;
position = "{153, 5}";
},
{
name = top;
position = "{114, 526}";
}
);
layerId = UUID0;
name = Regular;
paths = (
{
closed = 1;
nodes = (
"155 526 LINE",
"73 526 LINE",
"73 0 LINE",
"155 0 LINE"
);
}
);
width = 228;
}
);
unicode = 0131;
},
{
glyphname = iacute;
lastChange = "2015-02-05 02:37:04 +0000";
layers = (
{
layerId = UUID0;
name = Regular;
paths = (
{
closed = 1;
nodes = (
"155 0 LINE",
"155 526 LINE",
"73 526 LINE",
"73 0 LINE"
);
},
{
closed = 1;
nodes = (
"231 720 LINE",
"230 723 LINE",
"141 723 LINE",
"55 591 LINE",
"124 591 LINE"
);
}
);
width = 228;
}
);
unicode = 00ED;
},
{
glyphname = ibreve;
lastChange = "2015-02-05 02:37:04 +0000";
layers = (
{
layerId = UUID0;
name = Regular;
paths = (
{
closed = 1;
nodes = (
"155 526 LINE",
"73 526 LINE",
"73 0 LINE",
"155 0 LINE"
);
},
{
closed = 1;
nodes = (
"174 723 LINE",
"172 709 OFFCURVE",
"148 690 OFFCURVE",
"114 690 CURVE SMOOTH",
"81 690 OFFCURVE",
"58 709 OFFCURVE",
"55 723 CURVE",
"-10 723 LINE",
"-10 678 OFFCURVE",
"38 626 OFFCURVE",
"114 626 CURVE SMOOTH",
"191 626 OFFCURVE",
"238 678 OFFCURVE",
"238 723 CURVE"
);
}
);
width = 228;
}
);
unicode = 012D;
},
{
glyphname = icircumflex;
lastChange = "2015-02-05 02:37:04 +0000";
layers = (
{
layerId = UUID0;
name = Regular;
paths = (
{
closed = 1;
nodes = (
"155 526 LINE",
"73 526 LINE",
"73 0 LINE",
"155 0 LINE"
);
},
{
closed = 1;
nodes = (
"154 722 LINE",
"76 722 LINE",
"-11 587 LINE",
"70 587 LINE",
"115 666 LINE",
"159 587 LINE",
"239 587 LINE"
);
}
);
width = 228;
}
);
unicode = 00EE;
},
{
glyphname = idieresis;
lastChange = "2015-02-05 02:37:04 +0000";
layers = (
{
layerId = UUID0;
name = Regular;
paths = (
{
closed = 1;
nodes = (
"155 526 LINE",
"73 526 LINE",
"73 0 LINE",
"155 0 LINE"
);
},
{
closed = 1;
nodes = (
"233 723 LINE",
"146 723 LINE",
"146 628 LINE",
"233 628 LINE"
);
},
{
closed = 1;
nodes = (
"83 723 LINE",
"-4 723 LINE",
"-4 628 LINE",
"83 628 LINE"
);
}
);
width = 228;
}
);
unicode = 00EF;
},
{
glyphname = igrave;
lastChange = "2015-02-05 02:37:04 +0000";
layers = (
{
layerId = UUID0;
name = Regular;
paths = (
{
closed = 1;
nodes = (
"155 0 LINE",
"155 526 LINE",
"73 526 LINE",
"73 0 LINE"
);
},
{
closed = 1;
nodes = (
"174 591 LINE",
"88 723 LINE",
"-2 723 LINE",
"-3 720 LINE",
"105 591 LINE"
);
}
);
width = 228;
}
);
unicode = 00EC;
},
{
glyphname = ij;
lastChange = "2015-02-05 02:37:04 +0000";
layers = (
{
layerId = UUID0;
name = Regular;
paths = (
{
closed = 1;
nodes = (
"132 526 LINE",
"50 526 LINE",
"50 0 LINE",
"132 0 LINE"
);
},
{
closed = 1;
nodes = (
"132 723 LINE",
"50 723 LINE",
"50 625 LINE",
"132 625 LINE"
);
},
{
closed = 1;
nodes = (
"314 526 LINE",
"232 526 LINE",
"232 -65 LINE",
"232 -96 OFFCURVE",
"216 -113 OFFCURVE",
"185 -113 CURVE SMOOTH",
"141 -113 LINE",
"141 -170 LINE",
"158 -176 OFFCURVE",
"186 -182 OFFCURVE",
"210 -182 CURVE SMOOTH",
"290 -182 OFFCURVE",
"314 -121 OFFCURVE",
"314 -61 CURVE SMOOTH"
);
},
{
closed = 1;
nodes = (
"314 723 LINE",
"232 723 LINE",
"232 625 LINE",
"314 625 LINE"
);
}
);
width = 364;
}
);
unicode = 0133;
},
{
glyphname = imacron;
lastChange = "2015-02-05 02:37:04 +0000";
layers = (
{
layerId = UUID0;
name = Regular;
paths = (
{
closed = 1;
nodes = (
"155 526 LINE",
"73 526 LINE",
"73 0 LINE",
"155 0 LINE"
);
},
{
closed = 1;
nodes = (
"240 671 LINE",
"-11 671 LINE",
"-11 599 LINE",
"240 599 LINE"
);
}
);
width = 228;
}
);
unicode = 012B;
},
{
glyphname = iogonek;
lastChange = "2015-02-05 02:37:04 +0000";
layers = (
{
layerId = UUID0;
name = Regular;
paths = (
{
closed = 1;
nodes = (
"132 526 LINE",
"50 526 LINE",
"50 0 LINE",
"61 0 LINE",
"40 -23 OFFCURVE",
"24 -50 OFFCURVE",
"24 -92 CURVE SMOOTH",
"24 -161 OFFCURVE",
"75 -182 OFFCURVE",
"118 -182 CURVE SMOOTH",
"138 -182 OFFCURVE",
"158 -177 OFFCURVE",
"179 -168 CURVE",
"179 -117 LINE",
"147 -117 LINE SMOOTH",
"114 -117 OFFCURVE",
"102 -90 OFFCURVE",
"102 -62 CURVE SMOOTH",
"102 -38 OFFCURVE",
"115 -15 OFFCURVE",
"126 0 CURVE",
"132 0 LINE"
);
},
{
closed = 1;
nodes = (
"136 723 LINE",
"48 723 LINE",
"48 628 LINE",
"136 628 LINE"
);
}
);
width = 182;
}
);
unicode = 012F;
},
{
glyphname = itilde;
lastChange = "2015-02-05 02:37:04 +0000";
layers = (
{
layerId = UUID0;
name = Regular;
paths = (
{
closed = 1;
nodes = (
"155 526 LINE",
"73 526 LINE",
"73 0 LINE",
"155 0 LINE"
);
},
{
closed = 1;
nodes = (
"202 723 LINE",
"199 700 OFFCURVE",
"186 692 OFFCURVE",
"168 692 CURVE SMOOTH",
"129 692 OFFCURVE",
"96 723 OFFCURVE",
"53 723 CURVE SMOOTH",
"-7 723 OFFCURVE",
"-32 665 OFFCURVE",
"-32 619 CURVE",
"26 619 LINE",
"29 642 OFFCURVE",
"42 650 OFFCURVE",
"60 650 CURVE SMOOTH",
"99 650 OFFCURVE",
"132 619 OFFCURVE",
"175 619 CURVE SMOOTH",
"235 619 OFFCURVE",
"260 677 OFFCURVE",
"260 723 CURVE"
);
}
);
width = 228;
}
);
unicode = 0129;
},
{
glyphname = j;
lastChange = "2015-02-05 02:37:04 +0000";
layers = (
{
layerId = UUID0;
name = Regular;
paths = (
{
closed = 1;
nodes = (
"132 526 LINE",
"50 526 LINE",
"50 -65 LINE",
"50 -96 OFFCURVE",
"34 -113 OFFCURVE",
"3 -113 CURVE SMOOTH",
"-41 -113 LINE",
"-41 -170 LINE",
"-24 -176 OFFCURVE",
"4 -182 OFFCURVE",
"28 -182 CURVE SMOOTH",
"108 -182 OFFCURVE",
"132 -121 OFFCURVE",
"132 -61 CURVE SMOOTH"
);
},
{
closed = 1;
nodes = (
"132 723 LINE",
"50 723 LINE",
"50 625 LINE",
"132 625 LINE"
);
}
);
width = 182;
}
);
unicode = 006A;
},
{
glyphname = jcircumflex;
lastChange = "2015-02-05 02:37:04 +0000";
layers = (
{
layerId = UUID0;
name = Regular;
paths = (
{
closed = 1;
nodes = (
"132 526 LINE",
"50 526 LINE",
"50 -65 LINE",
"50 -96 OFFCURVE",
"34 -113 OFFCURVE",
"3 -113 CURVE SMOOTH",
"-41 -113 LINE",
"-41 -170 LINE",
"-24 -176 OFFCURVE",
"4 -182 OFFCURVE",
"28 -182 CURVE SMOOTH",
"108 -182 OFFCURVE",
"132 -121 OFFCURVE",
"132 -61 CURVE SMOOTH"
);
},
{
closed = 1;
nodes = (
"130 722 LINE",
"52 722 LINE",
"-34 587 LINE",
"46 587 LINE",
"92 666 LINE",
"136 587 LINE",
"216 587 LINE"
);
}
);
width = 182;
}
);
unicode = 0135;
},
{
glyphname = k;
lastChange = "2015-02-05 02:37:04 +0000";
layers = (
{
anchors = (
{
name = bottom;
position = "{205, 0}";
}
);
layerId = UUID0;
name = Regular;
paths = (
{
closed = 1;
nodes = (
"142 723 LINE",
"60 723 LINE",
"60 0 LINE",
"142 0 LINE",
"142 179 LINE",
"198 240 LINE",
"318 0 LINE",
"411 0 LINE",
"248 310 LINE",
"403 526 LINE",
"312 526 LINE",
"142 282 LINE"
);
}
);
width = 410;
}
);
unicode = 006B;
},
{
glyphname = kcommaaccent;
lastChange = "2015-02-05 02:37:04 +0000";
layers = (
{
layerId = UUID0;
name = Regular;
paths = (
{
closed = 1;
nodes = (
"142 723 LINE",
"60 723 LINE",
"60 0 LINE",
"142 0 LINE",
"142 179 LINE",
"198 240 LINE",
"318 0 LINE",
"411 0 LINE",
"248 310 LINE",
"403 526 LINE",
"312 526 LINE",
"142 282 LINE"
);
},
{
closed = 1;
nodes = (
"248 -60 LINE",
"163 -60 LINE",
"163 -151 LINE",
"197 -151 LINE",
"174 -222 LINE",
"219 -222 LINE",
"248 -144 LINE"
);
}
);
width = 410;
}
);
unicode = 0137;
},
{
glyphname = kgreenlandic;
lastChange = "2015-02-05 02:37:04 +0000";
layers = (
{
layerId = UUID0;
name = Regular;
paths = (
{
closed = 1;
nodes = (
"403 526 LINE",
"312 526 LINE",
"142 282 LINE",
"142 526 LINE",
"60 526 LINE",
"60 0 LINE",
"142 0 LINE",
"142 179 LINE",
"198 240 LINE",
"318 0 LINE",
"411 0 LINE",
"248 310 LINE"
);
}
);
width = 408;
}
);
unicode = 0138;
},
{
glyphname = l;
lastChange = "2015-02-05 02:37:04 +0000";
layers = (
{
anchors = (
{
name = bottom;
position = "{91, 0}";
},
{
name = top;
position = "{91, 686}";
},
{
name = topright;
position = "{172, 526}";
}
);
layerId = UUID0;
name = Regular;
paths = (
{
closed = 1;
nodes = (
"132 723 LINE",
"50 723 LINE",
"50 0 LINE",
"132 0 LINE"
);
}
);
width = 182;
}
);
unicode = 006C;
},
{
glyphname = lacute;
lastChange = "2015-02-05 02:37:04 +0000";
layers = (
{
layerId = UUID0;
name = Regular;
paths = (
{
closed = 1;
nodes = (
"132 0 LINE",
"132 723 LINE",
"50 723 LINE",
"50 0 LINE"
);
},
{
closed = 1;
nodes = (
"208 880 LINE",
"208 883 LINE",
"118 883 LINE",
"32 751 LINE",
"101 751 LINE"
);
}
);
width = 182;
}
);
unicode = 013A;
},
{
glyphname = lcaron;
lastChange = "2015-02-05 02:37:04 +0000";
layers = (
{
layerId = UUID0;
name = Regular;
paths = (
{
closed = 1;
nodes = (
"132 723 LINE",
"50 723 LINE",
"50 0 LINE",
"132 0 LINE"
);
},
{
closed = 1;
nodes = (
"272 686 LINE",
"172 686 LINE",
"172 578 LINE",
"212 578 LINE",
"172 454 LINE",
"224 454 LINE",
"272 587 LINE"
);
}
);
width = 239;
}
);
unicode = 013E;
},
{
glyphname = lcommaaccent;
lastChange = "2015-02-05 02:37:04 +0000";
layers = (
{
layerId = UUID0;
name = Regular;
paths = (
{
closed = 1;
nodes = (
"132 723 LINE",
"50 723 LINE",
"50 0 LINE",
"132 0 LINE"
);
},
{
closed = 1;
nodes = (
"134 -60 LINE",
"49 -60 LINE",
"49 -151 LINE",
"83 -151 LINE",
"61 -222 LINE",
"105 -222 LINE",
"134 -144 LINE"
);
}
);
width = 182;
}
);
unicode = 013C;
},
{
glyphname = ldot;
lastChange = "2015-02-05 02:37:04 +0000";
layers = (
{
layerId = UUID0;
name = Regular;
paths = (
{
closed = 1;
nodes = (
"132 723 LINE",
"50 723 LINE",
"50 0 LINE",
"132 0 LINE"
);
},
{
closed = 1;
nodes = (
"273 399 LINE",
"172 399 LINE",
"172 288 LINE",
"273 288 LINE"
);
}
);
width = 323;
}
);
unicode = 0140;
},
{
glyphname = lslash;
lastChange = "2015-02-05 02:37:04 +0000";
layers = (
{
layerId = UUID0;
name = Regular;
paths = (
{
closed = 1;
nodes = (
"132 723 LINE",
"50 723 LINE",
"50 318 LINE",
"-21 255 LINE",
"-21 184 LINE",
"50 246 LINE",
"50 0 LINE",
"132 0 LINE",
"132 319 LINE",
"219 396 LINE",
"219 468 LINE",
"132 391 LINE"
);
}
);
width = 182;
}
);
unicode = 0142;
},
{
glyphname = m;
lastChange = "2015-02-05 02:37:04 +0000";
layers = (
{
layerId = UUID0;
name = Regular;
paths = (
{
closed = 1;
nodes = (
"449 538 OFFCURVE",
"399 512 OFFCURVE",
"371 462 CURVE",
"352 516 OFFCURVE",
"311 538 OFFCURVE",
"259 538 CURVE SMOOTH",
"209 538 OFFCURVE",
"167 517 OFFCURVE",
"139 465 CURVE",
"133 465 LINE",
"122 526 LINE",
"60 526 LINE",
"60 0 LINE",
"142 0 LINE",
"142 321 LINE SMOOTH",
"142 412 OFFCURVE",
"184 465 OFFCURVE",
"233 465 CURVE SMOOTH",
"272 465 OFFCURVE",
"301 446 OFFCURVE",
"301 373 CURVE SMOOTH",
"301 0 LINE",
"383 0 LINE",
"383 321 LINE",
"383 412 OFFCURVE",
"424 465 OFFCURVE",
"473 465 CURVE SMOOTH",
"512 465 OFFCURVE",
"541 446 OFFCURVE",
"541 373 CURVE SMOOTH",
"541 0 LINE",
"623 0 LINE",
"623 379 LINE SMOOTH",
"623 496 OFFCURVE",
"573 538 OFFCURVE",
"499 538 CURVE SMOOTH"
);
}
);
width = 683;
}
);
unicode = 006D;
},
{
glyphname = n;
lastChange = "2015-02-05 02:37:04 +0000";
layers = (
{
anchors = (
{
name = bottom;
position = "{228, 0}";
},
{
name = top;
position = "{228, 526}";
}
);
layerId = UUID0;
name = Regular;
paths = (
{
closed = 1;
nodes = (
"214 538 OFFCURVE",
"168 517 OFFCURVE",
"139 465 CURVE",
"133 465 LINE",
"122 526 LINE",
"60 526 LINE",
"60 0 LINE",
"142 0 LINE",
"142 321 LINE SMOOTH",
"142 412 OFFCURVE",
"188 465 OFFCURVE",
"240 465 CURVE SMOOTH",
"284 465 OFFCURVE",
"314 446 OFFCURVE",
"314 373 CURVE SMOOTH",
"314 0 LINE",
"396 0 LINE",
"396 379 LINE SMOOTH",
"396 496 OFFCURVE",
"345 538 OFFCURVE",
"266 538 CURVE SMOOTH"
);
}
);
width = 456;
}
);
unicode = 006E;
},
{
glyphname = nacute;
lastChange = "2015-02-05 02:37:04 +0000";
layers = (
{
layerId = UUID0;
name = Regular;
paths = (
{
closed = 1;
nodes = (
"214 538 OFFCURVE",
"168 517 OFFCURVE",
"139 465 CURVE",
"133 465 LINE",
"122 526 LINE",
"60 526 LINE",
"60 0 LINE",
"142 0 LINE",
"142 321 LINE SMOOTH",
"142 412 OFFCURVE",
"188 465 OFFCURVE",
"240 465 CURVE SMOOTH",
"284 465 OFFCURVE",
"314 446 OFFCURVE",
"314 373 CURVE SMOOTH",
"314 0 LINE",
"396 0 LINE",
"396 379 LINE SMOOTH",
"396 496 OFFCURVE",
"345 538 OFFCURVE",
"266 538 CURVE SMOOTH"
);
},
{
closed = 1;
nodes = (
"345 720 LINE",
"344 723 LINE",
"254 723 LINE",
"168 591 LINE",
"238 591 LINE"
);
}
);
width = 456;
}
);
unicode = 0144;
},
{
glyphname = napostrophe;
lastChange = "2015-02-05 02:37:04 +0000";
layers = (
{
layerId = UUID0;
name = Regular;
paths = (
{
closed = 1;
nodes = (
"133 685 LINE",
"47 685 LINE",
"47 594 LINE",
"82 594 LINE",
"59 523 LINE",
"104 523 LINE",
"133 601 LINE"
);
},
{
closed = 1;
nodes = (
"331 538 OFFCURVE",
"285 517 OFFCURVE",
"256 465 CURVE",
"250 465 LINE",
"239 526 LINE",
"177 526 LINE",
"177 0 LINE",
"259 0 LINE",
"259 321 LINE SMOOTH",
"259 412 OFFCURVE",
"305 465 OFFCURVE",
"356 465 CURVE SMOOTH",
"401 465 OFFCURVE",
"431 446 OFFCURVE",
"431 373 CURVE SMOOTH",
"431 0 LINE",
"513 0 LINE",
"513 379 LINE SMOOTH",
"513 496 OFFCURVE",
"462 538 OFFCURVE",
"383 538 CURVE SMOOTH"
);
}
);
width = 573;
}
);
unicode = 0149;
},
{
glyphname = ncaron;
lastChange = "2015-02-05 02:37:04 +0000";
layers = (
{
layerId = UUID0;
name = Regular;
paths = (
{
closed = 1;
nodes = (
"214 538 OFFCURVE",
"168 517 OFFCURVE",
"139 465 CURVE",
"133 465 LINE",
"122 526 LINE",
"60 526 LINE",
"60 0 LINE",
"142 0 LINE",
"142 321 LINE SMOOTH",
"142 412 OFFCURVE",
"188 465 OFFCURVE",
"240 465 CURVE SMOOTH",
"284 465 OFFCURVE",
"314 446 OFFCURVE",
"314 373 CURVE SMOOTH",
"314 0 LINE",
"396 0 LINE",
"396 379 LINE SMOOTH",
"396 496 OFFCURVE",
"345 538 OFFCURVE",
"266 538 CURVE SMOOTH"
);
},
{
closed = 1;
nodes = (
"353 723 LINE",
"273 723 LINE",
"228 644 LINE",
"184 723 LINE",
"104 723 LINE",
"188 588 LINE",
"267 588 LINE"
);
}
);
width = 456;
}
);
unicode = 0148;
},
{
glyphname = ncommaaccent;
lastChange = "2015-02-05 02:37:04 +0000";
layers = (
{
layerId = UUID0;
name = Regular;
paths = (
{
closed = 1;
nodes = (
"214 538 OFFCURVE",
"168 517 OFFCURVE",
"139 465 CURVE",
"133 465 LINE",
"122 526 LINE",
"60 526 LINE",
"60 0 LINE",
"142 0 LINE",
"142 321 LINE SMOOTH",
"142 412 OFFCURVE",
"188 465 OFFCURVE",
"240 465 CURVE SMOOTH",
"284 465 OFFCURVE",
"314 446 OFFCURVE",
"314 373 CURVE SMOOTH",
"314 0 LINE",
"396 0 LINE",
"396 379 LINE SMOOTH",
"396 496 OFFCURVE",
"345 538 OFFCURVE",
"266 538 CURVE SMOOTH"
);
},
{
closed = 1;
nodes = (
"271 -60 LINE",
"186 -60 LINE",
"186 -151 LINE",
"220 -151 LINE",
"197 -222 LINE",
"242 -222 LINE",
"271 -144 LINE"
);
}
);
width = 456;
}
);
unicode = 0146;
},
{
glyphname = eng;
lastChange = "2015-02-05 02:37:04 +0000";
layers = (
{
layerId = UUID0;
name = Regular;
paths = (
{
closed = 1;
nodes = (
"214 538 OFFCURVE",
"168 517 OFFCURVE",
"139 465 CURVE",
"133 465 LINE",
"122 526 LINE",
"60 526 LINE",
"60 0 LINE",
"142 0 LINE",
"142 321 LINE SMOOTH",
"142 412 OFFCURVE",
"188 465 OFFCURVE",
"240 465 CURVE SMOOTH",
"284 465 OFFCURVE",
"314 446 OFFCURVE",
"314 373 CURVE SMOOTH",
"314 -65 LINE",
"314 -96 OFFCURVE",
"298 -113 OFFCURVE",
"267 -113 CURVE SMOOTH",
"223 -113 LINE",
"223 -170 LINE",
"240 -176 OFFCURVE",
"268 -182 OFFCURVE",
"292 -182 CURVE SMOOTH",
"372 -182 OFFCURVE",
"396 -121 OFFCURVE",
"396 -61 CURVE SMOOTH",
"396 379 LINE SMOOTH",
"396 496 OFFCURVE",
"345 538 OFFCURVE",
"266 538 CURVE SMOOTH"
);
}
);
width = 456;
}
);
unicode = 014B;
},
{
glyphname = ntilde;
lastChange = "2015-02-05 02:37:04 +0000";
layers = (
{
layerId = UUID0;
name = Regular;
paths = (
{
closed = 1;
nodes = (
"214 538 OFFCURVE",
"168 517 OFFCURVE",
"139 465 CURVE",
"133 465 LINE",
"122 526 LINE",
"60 526 LINE",
"60 0 LINE",
"142 0 LINE",
"142 321 LINE SMOOTH",
"142 412 OFFCURVE",
"188 465 OFFCURVE",
"240 465 CURVE SMOOTH",
"284 465 OFFCURVE",
"314 446 OFFCURVE",
"314 373 CURVE SMOOTH",
"314 0 LINE",
"396 0 LINE",
"396 379 LINE SMOOTH",
"396 496 OFFCURVE",
"345 538 OFFCURVE",
"266 538 CURVE SMOOTH"
);
},
{
closed = 1;
nodes = (
"316 723 LINE",
"313 700 OFFCURVE",
"300 692 OFFCURVE",
"282 692 CURVE SMOOTH",
"243 692 OFFCURVE",
"210 723 OFFCURVE",
"167 723 CURVE SMOOTH",
"107 723 OFFCURVE",
"82 665 OFFCURVE",
"82 619 CURVE",
"140 619 LINE",
"143 642 OFFCURVE",
"156 650 OFFCURVE",
"174 650 CURVE SMOOTH",
"213 650 OFFCURVE",
"246 619 OFFCURVE",
"289 619 CURVE SMOOTH",
"349 619 OFFCURVE",
"374 677 OFFCURVE",
"374 723 CURVE"
);
}
);
width = 456;
}
);
unicode = 00F1;
},
{
glyphname = o;
lastChange = "2015-02-05 02:37:04 +0000";
layers = (
{
anchors = (
{
name = top;
position = "{228, 526}";
}
);
layerId = UUID0;
name = Regular;
paths = (
{
closed = 1;
nodes = (
"105 538 OFFCURVE",
"40 452 OFFCURVE",
"40 263 CURVE SMOOTH",
"40 74 OFFCURVE",
"105 -12 OFFCURVE",
"228 -12 CURVE SMOOTH",
"351 -12 OFFCURVE",
"416 74 OFFCURVE",
"416 263 CURVE SMOOTH",
"416 452 OFFCURVE",
"351 538 OFFCURVE",
"228 538 CURVE SMOOTH"
);
},
{
closed = 1;
nodes = (
"296 465 OFFCURVE",
"330 403 OFFCURVE",
"330 282 CURVE SMOOTH",
"330 244 LINE",
"330 123 OFFCURVE",
"296 61 OFFCURVE",
"228 61 CURVE SMOOTH",
"160 61 OFFCURVE",
"126 123 OFFCURVE",
"126 244 CURVE SMOOTH",
"126 282 LINE SMOOTH",
"126 403 OFFCURVE",
"160 465 OFFCURVE",
"228 465 CURVE SMOOTH"
);
}
);
width = 456;
}
);
unicode = 006F;
},
{
glyphname = oacute;
lastChange = "2015-02-05 02:37:04 +0000";
layers = (
{
layerId = UUID0;
name = Regular;
paths = (
{
closed = 1;
nodes = (
"105 538 OFFCURVE",
"40 452 OFFCURVE",
"40 263 CURVE SMOOTH",
"40 74 OFFCURVE",
"105 -12 OFFCURVE",
"228 -12 CURVE SMOOTH",
"351 -12 OFFCURVE",
"416 74 OFFCURVE",
"416 263 CURVE SMOOTH",
"416 452 OFFCURVE",
"351 538 OFFCURVE",
"228 538 CURVE SMOOTH"
);
},
{
closed = 1;
nodes = (
"296 465 OFFCURVE",
"330 403 OFFCURVE",
"330 282 CURVE SMOOTH",
"330 244 LINE",
"330 123 OFFCURVE",
"296 61 OFFCURVE",
"228 61 CURVE SMOOTH",
"160 61 OFFCURVE",
"126 123 OFFCURVE",
"126 244 CURVE SMOOTH",
"126 282 LINE SMOOTH",
"126 403 OFFCURVE",
"160 465 OFFCURVE",
"228 465 CURVE SMOOTH"
);
},
{
closed = 1;
nodes = (
"345 720 LINE",
"344 723 LINE",
"254 723 LINE",
"168 591 LINE",
"238 591 LINE"
);
}
);
width = 456;
}
);
unicode = 00F3;
},
{
glyphname = obreve;
lastChange = "2015-02-05 02:37:04 +0000";
layers = (
{
layerId = UUID0;
name = Regular;
paths = (
{
closed = 1;
nodes = (
"105 538 OFFCURVE",
"40 452 OFFCURVE",
"40 263 CURVE SMOOTH",
"40 74 OFFCURVE",
"105 -12 OFFCURVE",
"228 -12 CURVE SMOOTH",
"351 -12 OFFCURVE",
"416 74 OFFCURVE",
"416 263 CURVE SMOOTH",
"416 452 OFFCURVE",
"351 538 OFFCURVE",
"228 538 CURVE SMOOTH"
);
},
{
closed = 1;
nodes = (
"296 465 OFFCURVE",
"330 403 OFFCURVE",
"330 282 CURVE SMOOTH",
"330 244 LINE",
"330 123 OFFCURVE",
"296 61 OFFCURVE",
"228 61 CURVE SMOOTH",
"160 61 OFFCURVE",
"126 123 OFFCURVE",
"126 244 CURVE SMOOTH",
"126 282 LINE SMOOTH",
"126 403 OFFCURVE",
"160 465 OFFCURVE",
"228 465 CURVE SMOOTH"
);
},
{
closed = 1;
nodes = (
"288 723 LINE",
"286 709 OFFCURVE",
"262 690 OFFCURVE",
"228 690 CURVE SMOOTH",
"194 690 OFFCURVE",
"172 709 OFFCURVE",
"169 723 CURVE",
"104 723 LINE",
"104 678 OFFCURVE",
"152 626 OFFCURVE",
"228 626 CURVE SMOOTH",
"305 626 OFFCURVE",
"352 678 OFFCURVE",
"352 723 CURVE"
);
}
);
width = 456;
}
);
unicode = 014F;
},
{
glyphname = ocircumflex;
lastChange = "2015-02-05 02:37:04 +0000";
layers = (
{
layerId = UUID0;
name = Regular;
paths = (
{
closed = 1;
nodes = (
"105 538 OFFCURVE",
"40 452 OFFCURVE",
"40 263 CURVE SMOOTH",
"40 74 OFFCURVE",
"105 -12 OFFCURVE",
"228 -12 CURVE SMOOTH",
"351 -12 OFFCURVE",
"416 74 OFFCURVE",
"416 263 CURVE SMOOTH",
"416 452 OFFCURVE",
"351 538 OFFCURVE",
"228 538 CURVE SMOOTH"
);
},
{
closed = 1;
nodes = (
"296 465 OFFCURVE",
"330 403 OFFCURVE",
"330 282 CURVE SMOOTH",
"330 244 LINE",
"330 123 OFFCURVE",
"296 61 OFFCURVE",
"228 61 CURVE SMOOTH",
"160 61 OFFCURVE",
"126 123 OFFCURVE",
"126 244 CURVE SMOOTH",
"126 282 LINE SMOOTH",
"126 403 OFFCURVE",
"160 465 OFFCURVE",
"228 465 CURVE SMOOTH"
);
},
{
closed = 1;
nodes = (
"268 722 LINE",
"189 722 LINE",
"104 587 LINE",
"184 587 LINE",
"229 666 LINE",
"273 587 LINE",
"353 587 LINE"
);
}
);
width = 456;
}
);
unicode = 00F4;
},
{
glyphname = odieresis;
lastChange = "2015-02-05 02:37:04 +0000";
layers = (
{
layerId = UUID0;
name = Regular;
paths = (
{
closed = 1;
nodes = (
"105 538 OFFCURVE",
"40 452 OFFCURVE",
"40 263 CURVE SMOOTH",
"40 74 OFFCURVE",
"105 -12 OFFCURVE",
"228 -12 CURVE SMOOTH",
"351 -12 OFFCURVE",
"416 74 OFFCURVE",
"416 263 CURVE SMOOTH",
"416 452 OFFCURVE",
"351 538 OFFCURVE",
"228 538 CURVE SMOOTH"
);
},
{
closed = 1;
nodes = (
"296 465 OFFCURVE",
"330 403 OFFCURVE",
"330 282 CURVE SMOOTH",
"330 244 LINE",
"330 123 OFFCURVE",
"296 61 OFFCURVE",
"228 61 CURVE SMOOTH",
"160 61 OFFCURVE",
"126 123 OFFCURVE",
"126 244 CURVE SMOOTH",
"126 282 LINE SMOOTH",
"126 403 OFFCURVE",
"160 465 OFFCURVE",
"228 465 CURVE SMOOTH"
);
},
{
closed = 1;
nodes = (
"347 723 LINE",
"259 723 LINE",
"259 628 LINE",
"347 628 LINE"
);
},
{
closed = 1;
nodes = (
"196 723 LINE",
"109 723 LINE",
"109 628 LINE",
"196 628 LINE"
);
}
);
width = 456;
}
);
unicode = 00F6;
},
{
glyphname = ograve;
lastChange = "2015-02-05 02:37:04 +0000";
layers = (
{
layerId = UUID0;
name = Regular;
paths = (
{
closed = 1;
nodes = (
"105 538 OFFCURVE",
"40 452 OFFCURVE",
"40 263 CURVE SMOOTH",
"40 74 OFFCURVE",
"105 -12 OFFCURVE",
"228 -12 CURVE SMOOTH",
"351 -12 OFFCURVE",
"416 74 OFFCURVE",
"416 263 CURVE SMOOTH",
"416 452 OFFCURVE",
"351 538 OFFCURVE",
"228 538 CURVE SMOOTH"
);
},
{
closed = 1;
nodes = (
"296 465 OFFCURVE",
"330 403 OFFCURVE",
"330 282 CURVE SMOOTH",
"330 244 LINE",
"330 123 OFFCURVE",
"296 61 OFFCURVE",
"228 61 CURVE SMOOTH",
"160 61 OFFCURVE",
"126 123 OFFCURVE",
"126 244 CURVE SMOOTH",
"126 282 LINE SMOOTH",
"126 403 OFFCURVE",
"160 465 OFFCURVE",
"228 465 CURVE SMOOTH"
);
},
{
closed = 1;
nodes = (
"288 591 LINE",
"202 723 LINE",
"111 723 LINE",
"110 720 LINE",
"219 591 LINE"
);
}
);
width = 456;
}
);
unicode = 00F2;
},
{
glyphname = ohungarumlaut;
lastChange = "2015-02-05 02:37:04 +0000";
layers = (
{
layerId = UUID0;
name = Regular;
paths = (
{
closed = 1;
nodes = (
"105 538 OFFCURVE",
"40 452 OFFCURVE",
"40 263 CURVE SMOOTH",
"40 74 OFFCURVE",
"105 -12 OFFCURVE",
"228 -12 CURVE SMOOTH",
"351 -12 OFFCURVE",
"416 74 OFFCURVE",
"416 263 CURVE SMOOTH",
"416 452 OFFCURVE",
"351 538 OFFCURVE",
"228 538 CURVE SMOOTH"
);
},
{
closed = 1;
nodes = (
"296 465 OFFCURVE",
"330 403 OFFCURVE",
"330 282 CURVE SMOOTH",
"330 244 LINE",
"330 123 OFFCURVE",
"296 61 OFFCURVE",
"228 61 CURVE SMOOTH",
"160 61 OFFCURVE",
"126 123 OFFCURVE",
"126 244 CURVE SMOOTH",
"126 282 LINE SMOOTH",
"126 403 OFFCURVE",
"160 465 OFFCURVE",
"228 465 CURVE SMOOTH"
);
},
{
closed = 1;
nodes = (
"415 723 LINE",
"325 723 LINE",
"263 591 LINE",
"332 591 LINE",
"416 720 LINE"
);
},
{
closed = 1;
nodes = (
"284 723 LINE",
"194 723 LINE",
"132 591 LINE",
"201 591 LINE",
"285 720 LINE"
);
}
);
width = 456;
}
);
unicode = 0151;
},
{
glyphname = omacron;
lastChange = "2015-02-05 02:37:04 +0000";
layers = (
{
layerId = UUID0;
name = Regular;
paths = (
{
closed = 1;
nodes = (
"105 538 OFFCURVE",
"40 452 OFFCURVE",
"40 263 CURVE SMOOTH",
"40 74 OFFCURVE",
"105 -12 OFFCURVE",
"228 -12 CURVE SMOOTH",
"351 -12 OFFCURVE",
"416 74 OFFCURVE",
"416 263 CURVE SMOOTH",
"416 452 OFFCURVE",
"351 538 OFFCURVE",
"228 538 CURVE SMOOTH"
);
},
{
closed = 1;
nodes = (
"296 465 OFFCURVE",
"330 403 OFFCURVE",
"330 282 CURVE SMOOTH",
"330 244 LINE",
"330 123 OFFCURVE",
"296 61 OFFCURVE",
"228 61 CURVE SMOOTH",
"160 61 OFFCURVE",
"126 123 OFFCURVE",
"126 244 CURVE SMOOTH",
"126 282 LINE SMOOTH",
"126 403 OFFCURVE",
"160 465 OFFCURVE",
"228 465 CURVE SMOOTH"
);
},
{
closed = 1;
nodes = (
"354 671 LINE",
"103 671 LINE",
"103 599 LINE",
"354 599 LINE"
);
}
);
width = 456;
}
);
unicode = 014D;
},
{
glyphname = oslash;
lastChange = "2015-02-05 02:37:04 +0000";
layers = (
{
anchors = (
{
name = top;
position = "{250, 526}";
}
);
layerId = UUID0;
name = Regular;
paths = (
{
closed = 1;
nodes = (
"438 558 LINE",
"383 558 LINE",
"355 507 LINE",
"327 528 OFFCURVE",
"292 538 OFFCURVE",
"250 538 CURVE SMOOTH",
"127 538 OFFCURVE",
"62 452 OFFCURVE",
"62 263 CURVE SMOOTH",
"62 168 OFFCURVE",
"78 100 OFFCURVE",
"109 55 CURVE",
"62 -32 LINE",
"117 -32 LINE",
"144 19 LINE",
"172 -2 OFFCURVE",
"208 -12 OFFCURVE",
"250 -12 CURVE SMOOTH",
"373 -12 OFFCURVE",
"438 74 OFFCURVE",
"438 263 CURVE SMOOTH",
"438 357 OFFCURVE",
"422 426 OFFCURVE",
"390 471 CURVE"
);
},
{
closed = 1;
nodes = (
"341 380 LINE",
"348 354 OFFCURVE",
"352 321 OFFCURVE",
"352 282 CURVE SMOOTH",
"352 244 LINE",
"352 123 OFFCURVE",
"318 61 OFFCURVE",
"250 61 CURVE SMOOTH",
"222 61 OFFCURVE",
"200 71 OFFCURVE",
"184 91 CURVE"
);
},
{
closed = 1;
nodes = (
"277 465 OFFCURVE",
"299 455 OFFCURVE",
"316 435 CURVE",
"158 145 LINE",
"151 172 OFFCURVE",
"148 205 OFFCURVE",
"148 244 CURVE",
"148 282 LINE SMOOTH",
"148 403 OFFCURVE",
"182 465 OFFCURVE",
"250 465 CURVE SMOOTH"
);
}
);
width = 501;
}
);
unicode = 00F8;
},
{
glyphname = oslashacute;
lastChange = "2015-02-05 02:37:04 +0000";
layers = (
{
layerId = UUID0;
name = Regular;
paths = (
{
closed = 1;
nodes = (
"438 558 LINE",
"383 558 LINE",
"355 507 LINE",
"327 528 OFFCURVE",
"292 538 OFFCURVE",
"250 538 CURVE SMOOTH",
"127 538 OFFCURVE",
"62 452 OFFCURVE",
"62 263 CURVE SMOOTH",
"62 168 OFFCURVE",
"78 100 OFFCURVE",
"109 55 CURVE",
"62 -32 LINE",
"117 -32 LINE",
"144 19 LINE",
"172 -2 OFFCURVE",
"208 -12 OFFCURVE",
"250 -12 CURVE SMOOTH",
"373 -12 OFFCURVE",
"438 74 OFFCURVE",
"438 263 CURVE SMOOTH",
"438 357 OFFCURVE",
"422 426 OFFCURVE",
"390 471 CURVE"
);
},
{
closed = 1;
nodes = (
"341 380 LINE",
"348 354 OFFCURVE",
"352 321 OFFCURVE",
"352 282 CURVE SMOOTH",
"352 244 LINE",
"352 123 OFFCURVE",
"318 61 OFFCURVE",
"250 61 CURVE SMOOTH",
"222 61 OFFCURVE",
"200 71 OFFCURVE",
"184 91 CURVE"
);
},
{
closed = 1;
nodes = (
"277 465 OFFCURVE",
"299 455 OFFCURVE",
"316 435 CURVE",
"158 145 LINE",
"151 172 OFFCURVE",
"148 205 OFFCURVE",
"148 244 CURVE",
"148 282 LINE SMOOTH",
"148 403 OFFCURVE",
"182 465 OFFCURVE",
"250 465 CURVE SMOOTH"
);
},
{
closed = 1;
nodes = (
"368 720 LINE",
"367 723 LINE",
"277 723 LINE",
"191 591 LINE",
"260 591 LINE"
);
}
);
width = 501;
}
);
unicode = 01FF;
},
{
glyphname = otilde;
lastChange = "2015-02-05 02:37:04 +0000";
layers = (
{
layerId = UUID0;
name = Regular;
paths = (
{
closed = 1;
nodes = (
"105 538 OFFCURVE",
"40 452 OFFCURVE",
"40 263 CURVE SMOOTH",
"40 74 OFFCURVE",
"105 -12 OFFCURVE",
"228 -12 CURVE SMOOTH",
"351 -12 OFFCURVE",
"416 74 OFFCURVE",
"416 263 CURVE SMOOTH",
"416 452 OFFCURVE",
"351 538 OFFCURVE",
"228 538 CURVE SMOOTH"
);
},
{
closed = 1;
nodes = (
"296 465 OFFCURVE",
"330 403 OFFCURVE",
"330 282 CURVE SMOOTH",
"330 244 LINE",
"330 123 OFFCURVE",
"296 61 OFFCURVE",
"228 61 CURVE SMOOTH",
"160 61 OFFCURVE",
"126 123 OFFCURVE",
"126 244 CURVE SMOOTH",
"126 282 LINE SMOOTH",
"126 403 OFFCURVE",
"160 465 OFFCURVE",
"228 465 CURVE SMOOTH"
);
},
{
closed = 1;
nodes = (
"316 723 LINE",
"313 700 OFFCURVE",
"300 692 OFFCURVE",
"282 692 CURVE SMOOTH",
"243 692 OFFCURVE",
"210 723 OFFCURVE",
"167 723 CURVE SMOOTH",
"107 723 OFFCURVE",
"82 665 OFFCURVE",
"82 619 CURVE",
"140 619 LINE",
"143 642 OFFCURVE",
"156 650 OFFCURVE",
"174 650 CURVE SMOOTH",
"213 650 OFFCURVE",
"246 619 OFFCURVE",
"289 619 CURVE SMOOTH",
"349 619 OFFCURVE",
"374 677 OFFCURVE",
"374 723 CURVE"
);
}
);
width = 456;
}
);
unicode = 00F5;
},
{
glyphname = oe;
lastChange = "2015-02-05 02:37:04 +0000";
layers = (
{
anchors = (
{
name = top;
position = "{387, 526}";
}
);
layerId = UUID0;
name = Regular;
paths = (
{
closed = 1;
nodes = (
"472 538 OFFCURVE",
"420 513 OFFCURVE",
"387 461 CURVE",
"356 513 OFFCURVE",
"307 538 OFFCURVE",
"241 538 CURVE SMOOTH",
"118 538 OFFCURVE",
"53 452 OFFCURVE",
"53 263 CURVE SMOOTH",
"53 74 OFFCURVE",
"118 -12 OFFCURVE",
"241 -12 CURVE SMOOTH",
"306 -12 OFFCURVE",
"356 12 OFFCURVE",
"387 64 CURVE",
"420 11 OFFCURVE",
"473 -12 OFFCURVE",
"544 -12 CURVE SMOOTH",
"646 -12 OFFCURVE",
"716 61 OFFCURVE",
"716 179 CURVE",
"635 179 LINE",
"635 106 OFFCURVE",
"598 61 OFFCURVE",
"546 61 CURVE SMOOTH",
"468 61 OFFCURVE",
"432 116 OFFCURVE",
"431 239 CURVE",
"716 239 LINE",
"716 291 LINE SMOOTH",
"716 467 OFFCURVE",
"658 538 OFFCURVE",
"543 538 CURVE SMOOTH"
);
},
{
closed = 1;
nodes = (
"309 465 OFFCURVE",
"343 403 OFFCURVE",
"343 282 CURVE SMOOTH",
"343 244 LINE",
"343 123 OFFCURVE",
"309 61 OFFCURVE",
"241 61 CURVE SMOOTH",
"173 61 OFFCURVE",
"139 123 OFFCURVE",
"139 244 CURVE SMOOTH",
"139 282 LINE SMOOTH",
"139 403 OFFCURVE",
"173 465 OFFCURVE",
"241 465 CURVE SMOOTH"
);
},
{
closed = 1;
nodes = (
"600 465 OFFCURVE",
"630 412 OFFCURVE",
"630 312 CURVE",
"432 312 LINE",
"439 413 OFFCURVE",
"470 465 OFFCURVE",
"543 465 CURVE SMOOTH"
);
}
);
width = 774;
}
);
unicode = 0153;
},
{
glyphname = p;
lastChange = "2015-02-05 02:37:04 +0000";
layers = (
{
layerId = UUID0;
name = Regular;
paths = (
{
closed = 1;
nodes = (
"205 538 OFFCURVE",
"163 513 OFFCURVE",
"138 465 CURVE",
"133 465 LINE",
"122 526 LINE",
"60 526 LINE",
"60 -173 LINE",
"142 -173 LINE",
"142 46 LINE",
"147 46 LINE",
"165 10 OFFCURVE",
"208 -12 OFFCURVE",
"259 -12 CURVE SMOOTH",
"346 -12 OFFCURVE",
"416 71 OFFCURVE",
"416 262 CURVE SMOOTH",
"416 455 OFFCURVE",
"353 538 OFFCURVE",
"253 538 CURVE SMOOTH"
);
},
{
closed = 1;
nodes = (
"299 465 OFFCURVE",
"330 413 OFFCURVE",
"330 282 CURVE",
"330 244 LINE SMOOTH",
"330 113 OFFCURVE",
"299 61 OFFCURVE",
"236 61 CURVE SMOOTH",
"173 61 OFFCURVE",
"142 123 OFFCURVE",
"142 244 CURVE SMOOTH",
"142 282 LINE SMOOTH",
"142 403 OFFCURVE",
"173 465 OFFCURVE",
"236 465 CURVE SMOOTH"
);
}
);
width = 456;
}
);
unicode = 0070;
},
{
glyphname = thorn;
lastChange = "2015-02-05 02:37:04 +0000";
layers = (
{
layerId = UUID0;
name = Regular;
paths = (
{
closed = 1;
nodes = (
"142 723 LINE",
"60 723 LINE",
"60 -173 LINE",
"142 -173 LINE",
"142 46 LINE",
"147 46 LINE",
"165 10 OFFCURVE",
"208 -12 OFFCURVE",
"259 -12 CURVE SMOOTH",
"346 -12 OFFCURVE",
"416 71 OFFCURVE",
"416 262 CURVE SMOOTH",
"416 455 OFFCURVE",
"353 538 OFFCURVE",
"253 538 CURVE SMOOTH",
"207 538 OFFCURVE",
"167 515 OFFCURVE",
"146 479 CURVE",
"142 480 LINE"
);
},
{
closed = 1;
nodes = (
"299 465 OFFCURVE",
"330 413 OFFCURVE",
"330 282 CURVE",
"330 244 LINE SMOOTH",
"330 113 OFFCURVE",
"299 61 OFFCURVE",
"236 61 CURVE SMOOTH",
"173 61 OFFCURVE",
"142 123 OFFCURVE",
"142 244 CURVE SMOOTH",
"142 282 LINE SMOOTH",
"142 403 OFFCURVE",
"173 465 OFFCURVE",
"236 465 CURVE SMOOTH"
);
}
);
width = 456;
}
);
unicode = 00FE;
},
